<svg width="28" height="32" viewBox="0 0 28 32" fill="none" xmlns="http://www.w3.org/2000/svg">
<path fill-rule="evenodd" clip-rule="evenodd" d="M15.8989 24.9372H15.8387H9.73787C5.91195 24.9372 5.61545 24.9511 6.68428 22.3427L7.0884 21.3553C7.90195 19.3711 8.00958 19.1325 10.984 19.1325H15.8989H20.8138C23.7882 19.1325 23.8958 19.3711 24.7093 21.3553L25.1135 22.3427C26.1823 24.9511 25.8847 24.9372 22.0599 24.9372H15.958H15.8989Z" fill="white"/>
<path fill-rule="evenodd" clip-rule="evenodd" d="M17.3436 3.67892L20.3392 10.9854C21.771 14.4789 22.2585 14.3309 18.5792 14.3309H13.7814C9.2739 14.3309 9.81939 14.678 11.38 10.8885L14.3987 3.52448C16.1577 -0.766739 15.5847 -0.612301 17.3436 3.67892Z" fill="white"/>
<path fill-rule="evenodd" clip-rule="evenodd" d="M3.62926 19.8227L10.494 2.8388C11.7655 -0.307464 12.1242 0.00886637 8.21493 0.00886637H3.52375C-0.228348 0.00886637 -0.124944 -0.289358 0.0818643 2.59915L1.31322 19.7886C1.75638 25.9778 1.43351 25.2557 3.62926 19.8227Z" fill="white"/>
<path d="M27.6588 2.36065C27.6588 3.60932 26.6482 4.6213 25.4019 4.6213C24.1556 4.6213 23.145 3.60932 23.145 2.36065C23.145 1.11198 24.1556 0.1 25.4019 0.1C26.6482 0.1 27.6588 1.11198 27.6588 2.36065Z" stroke="white" stroke-width="0.2"/>
<path d="M23.5701 1.84806V1.57373H24.8349V1.84806H24.3634V3.1475H24.0416V1.84806H23.5701Z" fill="white"/>
<path d="M25.0432 1.57373H25.4448L25.8689 2.63111H25.8869L26.311 1.57373H26.7126V3.1475H26.3968V2.12317H26.384L25.9854 3.13981H25.7704L25.3718 2.11932H25.359V3.1475H25.0432V1.57373Z" fill="white"/>
<path d="M9.65442 31.2026L9.42209 30.6106H7.9555L7.71833 31.2026H6.80837L8.26527 27.8557H9.17523L10.5983 31.2026H9.65442ZM8.22171 29.9422H9.16071L8.69605 28.7486L8.22171 29.9422ZM13.2238 27.8557H14.0466V31.2026H13.2722L11.733 29.2021V31.2026H10.9053V27.8557H11.6846L13.2286 29.8705L13.2238 27.8557ZM18.331 31.6275C18.2017 31.7421 18.0468 31.8328 17.8663 31.8997C17.6887 31.9665 17.5144 31.9999 17.3436 31.9999C17.1144 31.9999 16.9046 31.9347 16.7142 31.8042C16.5238 31.6737 16.3722 31.4938 16.2593 31.2647C15.9237 31.2551 15.6219 31.174 15.3541 31.0212C15.0863 30.8652 14.875 30.6567 14.7201 30.3957C14.5684 30.1347 14.4926 29.8435 14.4926 29.522C14.4926 29.1974 14.5716 28.9045 14.7297 28.6435C14.8911 28.3825 15.1105 28.1772 15.388 28.0276C15.6688 27.878 15.9817 27.8032 16.327 27.8032C16.6723 27.8032 16.9837 27.878 17.2613 28.0276C17.542 28.1772 17.7613 28.3825 17.9195 28.6435C18.0807 28.9045 18.1616 29.1974 18.1616 29.522C18.1616 29.8912 18.0614 30.2191 17.8615 30.5055C17.6613 30.792 17.3934 31.0005 17.058 31.131C17.1773 31.2679 17.3048 31.3363 17.4404 31.3363C17.5178 31.3363 17.6064 31.314 17.7066 31.2694C17.8097 31.2249 17.9147 31.1644 18.0212 31.088L18.331 31.6275ZM15.4025 29.5268C15.4025 29.7114 15.4445 29.8801 15.5284 30.0329C15.6155 30.1825 15.7301 30.3018 15.872 30.391C16.014 30.4769 16.1689 30.5199 16.3367 30.5199C16.5045 30.5199 16.6578 30.4769 16.7966 30.391C16.9384 30.3018 17.0498 30.1825 17.1306 30.0329C17.2112 29.8801 17.2516 29.7114 17.2516 29.5268C17.2516 29.3454 17.2112 29.1799 17.1306 29.0302C17.0498 28.8775 16.9384 28.7581 16.7966 28.6722C16.6578 28.5862 16.5045 28.5433 16.3367 28.5433C16.1689 28.5433 16.0124 28.5862 15.8672 28.6722C15.7252 28.7581 15.6123 28.8775 15.5284 29.0302C15.4445 29.1799 15.4025 29.3454 15.4025 29.5268Z" fill="white"/>
</svg>
