<svg width="245" height="76" viewBox="0 0 245 76" fill="none" xmlns="http://www.w3.org/2000/svg">
<path d="M4.389 21V10.143H0.084V6.3H13.65V10.143H9.345V21H4.389ZM19.0841 21L14.3801 6.3H19.4831L23.2841 18.711H20.7221L24.7541 6.3H29.3111L33.0701 18.711H30.6131L34.5821 6.3H39.2861L34.5821 21H29.2691L26.2031 10.836H27.6311L24.3971 21H19.0841ZM48.7285 21.336C47.5385 21.336 46.4325 21.147 45.4105 20.769C44.4025 20.391 43.5275 19.859 42.7855 19.173C42.0435 18.473 41.4625 17.654 41.0425 16.716C40.6365 15.778 40.4335 14.756 40.4335 13.65C40.4335 12.53 40.6365 11.508 41.0425 10.584C41.4625 9.646 42.0435 8.834 42.7855 8.148C43.5275 7.448 44.4025 6.909 45.4105 6.531C46.4325 6.153 47.5385 5.964 48.7285 5.964C49.9325 5.964 51.0385 6.153 52.0465 6.531C53.0545 6.909 53.9295 7.448 54.6715 8.148C55.4135 8.834 55.9875 9.646 56.3935 10.584C56.8135 11.508 57.0235 12.53 57.0235 13.65C57.0235 14.756 56.8135 15.778 56.3935 16.716C55.9875 17.654 55.4135 18.473 54.6715 19.173C53.9295 19.859 53.0545 20.391 52.0465 20.769C51.0385 21.147 49.9325 21.336 48.7285 21.336ZM48.7285 17.325C49.1905 17.325 49.6175 17.241 50.0095 17.073C50.4155 16.905 50.7655 16.667 51.0595 16.359C51.3675 16.037 51.6055 15.652 51.7735 15.204C51.9415 14.742 52.0255 14.224 52.0255 13.65C52.0255 13.076 51.9415 12.565 51.7735 12.117C51.6055 11.655 51.3675 11.27 51.0595 10.962C50.7655 10.64 50.4155 10.395 50.0095 10.227C49.6175 10.059 49.1905 9.975 48.7285 9.975C48.2665 9.975 47.8325 10.059 47.4265 10.227C47.0345 10.395 46.6845 10.64 46.3765 10.962C46.0825 11.27 45.8515 11.655 45.6835 12.117C45.5155 12.565 45.4315 13.076 45.4315 13.65C45.4315 14.224 45.5155 14.742 45.6835 15.204C45.8515 15.652 46.0825 16.037 46.3765 16.359C46.6845 16.667 47.0345 16.905 47.4265 17.073C47.8325 17.241 48.2665 17.325 48.7285 17.325ZM74.4002 21.336C73.2242 21.336 72.1322 21.154 71.1242 20.79C70.1302 20.412 69.2622 19.88 68.5202 19.194C67.7922 18.508 67.2252 17.696 66.8192 16.758C66.4132 15.82 66.2102 14.784 66.2102 13.65C66.2102 12.516 66.4132 11.48 66.8192 10.542C67.2252 9.604 67.7922 8.792 68.5202 8.106C69.2622 7.42 70.1302 6.895 71.1242 6.531C72.1322 6.153 73.2242 5.964 74.4002 5.964C75.8422 5.964 77.1162 6.216 78.2222 6.72C79.3422 7.224 80.2662 7.952 80.9942 8.904L77.8652 11.697C77.4312 11.151 76.9482 10.731 76.4162 10.437C75.8982 10.129 75.3102 9.975 74.6522 9.975C74.1342 9.975 73.6652 10.059 73.2452 10.227C72.8252 10.395 72.4612 10.64 72.1532 10.962C71.8592 11.284 71.6282 11.676 71.4602 12.138C71.2922 12.586 71.2082 13.09 71.2082 13.65C71.2082 14.21 71.2922 14.721 71.4602 15.183C71.6282 15.631 71.8592 16.016 72.1532 16.338C72.4612 16.66 72.8252 16.905 73.2452 17.073C73.6652 17.241 74.1342 17.325 74.6522 17.325C75.3102 17.325 75.8982 17.178 76.4162 16.884C76.9482 16.576 77.4312 16.149 77.8652 15.603L80.9942 18.396C80.2662 19.334 79.3422 20.062 78.2222 20.58C77.1162 21.084 75.8422 21.336 74.4002 21.336ZM83.2652 21V6.3H90.3422C91.7142 6.3 92.8972 6.524 93.8912 6.972C94.8992 7.42 95.6762 8.064 96.2222 8.904C96.7682 9.73 97.0412 10.71 97.0412 11.844C97.0412 12.978 96.7682 13.958 96.2222 14.784C95.6762 15.596 94.8992 16.219 93.8912 16.653C92.8972 17.087 91.7142 17.304 90.3422 17.304H86.0162L88.2212 15.267V21H83.2652ZM92.0642 21L88.4522 15.645H93.7022L97.3562 21H92.0642ZM88.2212 15.813L86.0162 13.566H90.0272C90.7132 13.566 91.2172 13.412 91.5392 13.104C91.8752 12.796 92.0432 12.376 92.0432 11.844C92.0432 11.312 91.8752 10.892 91.5392 10.584C91.2172 10.276 90.7132 10.122 90.0272 10.122H86.0162L88.2212 7.875V15.813ZM104.289 11.76H110.841V15.33H104.289V11.76ZM104.625 17.262H111.975V21H99.7526V6.3H111.702V10.038H104.625V17.262ZM114.723 21V6.3H121.968C123.606 6.3 125.048 6.601 126.294 7.203C127.54 7.791 128.513 8.631 129.213 9.723C129.913 10.815 130.263 12.117 130.263 13.629C130.263 15.155 129.913 16.471 129.213 17.577C128.513 18.669 127.54 19.516 126.294 20.118C125.048 20.706 123.606 21 121.968 21H114.723ZM119.679 17.136H121.758C122.458 17.136 123.067 17.003 123.585 16.737C124.117 16.471 124.53 16.079 124.824 15.561C125.118 15.029 125.265 14.385 125.265 13.629C125.265 12.887 125.118 12.257 124.824 11.739C124.53 11.221 124.117 10.829 123.585 10.563C123.067 10.297 122.458 10.164 121.758 10.164H119.679V17.136ZM132.912 21V6.3H137.868V21H132.912ZM144.286 21V10.143H139.981V6.3H153.547V10.143H149.242V21H144.286ZM170.412 21.336C169.236 21.336 168.144 21.154 167.136 20.79C166.142 20.412 165.274 19.88 164.532 19.194C163.804 18.508 163.237 17.696 162.831 16.758C162.425 15.82 162.222 14.784 162.222 13.65C162.222 12.516 162.425 11.48 162.831 10.542C163.237 9.604 163.804 8.792 164.532 8.106C165.274 7.42 166.142 6.895 167.136 6.531C168.144 6.153 169.236 5.964 170.412 5.964C171.854 5.964 173.128 6.216 174.234 6.72C175.354 7.224 176.278 7.952 177.006 8.904L173.877 11.697C173.443 11.151 172.96 10.731 172.428 10.437C171.91 10.129 171.322 9.975 170.664 9.975C170.146 9.975 169.677 10.059 169.257 10.227C168.837 10.395 168.473 10.64 168.165 10.962C167.871 11.284 167.64 11.676 167.472 12.138C167.304 12.586 167.22 13.09 167.22 13.65C167.22 14.21 167.304 14.721 167.472 15.183C167.64 15.631 167.871 16.016 168.165 16.338C168.473 16.66 168.837 16.905 169.257 17.073C169.677 17.241 170.146 17.325 170.664 17.325C171.322 17.325 171.91 17.178 172.428 16.884C172.96 16.576 173.443 16.149 173.877 15.603L177.006 18.396C176.278 19.334 175.354 20.062 174.234 20.58C173.128 21.084 171.854 21.336 170.412 21.336ZM177.476 21L183.902 6.3H188.774L195.2 21H190.076L185.33 8.652H187.262L182.516 21H177.476ZM181.298 18.438L182.558 14.868H189.32L190.58 18.438H181.298ZM196.831 21V6.3H203.908C205.28 6.3 206.463 6.524 207.457 6.972C208.465 7.42 209.242 8.064 209.788 8.904C210.334 9.73 210.607 10.71 210.607 11.844C210.607 12.978 210.334 13.958 209.788 14.784C209.242 15.596 208.465 16.219 207.457 16.653C206.463 17.087 205.28 17.304 203.908 17.304H199.582L201.787 15.267V21H196.831ZM205.63 21L202.018 15.645H207.268L210.922 21H205.63ZM201.787 15.813L199.582 13.566H203.593C204.279 13.566 204.783 13.412 205.105 13.104C205.441 12.796 205.609 12.376 205.609 11.844C205.609 11.312 205.441 10.892 205.105 10.584C204.783 10.276 204.279 10.122 203.593 10.122H199.582L201.787 7.875V15.813ZM213.318 21V6.3H220.563C222.201 6.3 223.643 6.601 224.889 7.203C226.135 7.791 227.108 8.631 227.808 9.723C228.508 10.815 228.858 12.117 228.858 13.629C228.858 15.155 228.508 16.471 227.808 17.577C227.108 18.669 226.135 19.516 224.889 20.118C223.643 20.706 222.201 21 220.563 21H213.318ZM218.274 17.136H220.353C221.053 17.136 221.662 17.003 222.18 16.737C222.712 16.471 223.125 16.079 223.419 15.561C223.713 15.029 223.86 14.385 223.86 13.629C223.86 12.887 223.713 12.257 223.419 11.739C223.125 11.221 222.712 10.829 222.18 10.563C221.662 10.297 221.053 10.164 220.353 10.164H218.274V17.136ZM236.989 21.336C235.757 21.336 234.567 21.196 233.419 20.916C232.271 20.636 231.326 20.272 230.584 19.824L232.18 16.212C232.88 16.618 233.657 16.947 234.511 17.199C235.379 17.437 236.219 17.556 237.031 17.556C237.507 17.556 237.878 17.528 238.144 17.472C238.424 17.402 238.627 17.311 238.753 17.199C238.879 17.073 238.942 16.926 238.942 16.758C238.942 16.492 238.795 16.282 238.501 16.128C238.207 15.974 237.815 15.848 237.325 15.75C236.849 15.638 236.324 15.526 235.75 15.414C235.176 15.288 234.595 15.127 234.007 14.931C233.433 14.735 232.901 14.476 232.411 14.154C231.935 13.832 231.55 13.412 231.256 12.894C230.962 12.362 230.815 11.704 230.815 10.92C230.815 10.01 231.067 9.184 231.571 8.442C232.089 7.686 232.852 7.084 233.86 6.636C234.882 6.188 236.149 5.964 237.661 5.964C238.655 5.964 239.635 6.069 240.601 6.279C241.567 6.489 242.435 6.811 243.205 7.245L241.714 10.836C240.986 10.472 240.279 10.199 239.593 10.017C238.921 9.835 238.263 9.744 237.619 9.744C237.143 9.744 236.765 9.786 236.485 9.87C236.205 9.954 236.002 10.066 235.876 10.206C235.764 10.346 235.708 10.5 235.708 10.668C235.708 10.92 235.855 11.123 236.149 11.277C236.443 11.417 236.828 11.536 237.304 11.634C237.794 11.732 238.326 11.837 238.9 11.949C239.488 12.061 240.069 12.215 240.643 12.411C241.217 12.607 241.742 12.866 242.218 13.188C242.708 13.51 243.1 13.93 243.394 14.448C243.688 14.966 243.835 15.61 243.835 16.38C243.835 17.276 243.576 18.102 243.058 18.858C242.554 19.6 241.798 20.202 240.79 20.664C239.782 21.112 238.515 21.336 236.989 21.336Z" fill="url(#paint0_linear_3298_4646)"/>
<path d="M49.3506 39.325C49.4839 39.275 49.6089 39.2833 49.7256 39.35C49.8423 39.4 49.9256 39.4917 49.9756 39.625C50.0256 39.7417 50.0173 39.8583 49.9506 39.975C49.5006 40.9417 48.9923 41.9333 48.4256 42.95C47.8589 43.9667 47.2339 44.9917 46.5506 46.025C45.8839 47.075 45.2173 47.925 44.5506 48.575C43.8839 49.2417 43.3173 49.575 42.8506 49.575C42.7339 49.575 42.6256 49.55 42.5256 49.5C41.8423 49.2333 41.6256 48.2 41.8756 46.4C42.1089 44.7167 42.7256 42.3333 43.7256 39.25C43.7089 39.25 43.6923 39.2583 43.6756 39.275C43.6756 39.275 43.6673 39.275 43.6506 39.275C43.2839 39.525 42.9756 39.7167 42.7256 39.85C42.4923 39.9833 42.1673 40.1333 41.7506 40.3C41.3506 40.4667 40.9673 40.5417 40.6006 40.525C40.2339 40.5083 39.8923 40.3917 39.5756 40.175C38.9423 39.725 38.6173 39.1 38.6006 38.3C38.5839 37.5 38.8839 36.625 39.5006 35.675C39.8839 35.075 40.3423 34.55 40.8756 34.1C41.4256 33.65 41.8923 33.55 42.2756 33.8C42.5089 33.9333 42.6423 34.15 42.6756 34.45C42.7256 34.75 42.5839 35.3333 42.2506 36.2C41.9173 37.05 41.3589 38.1667 40.5756 39.55C41.0923 39.6167 41.9423 39.2583 43.1256 38.475C43.3423 38.325 43.5006 38.225 43.6006 38.175C43.7173 38.1083 43.8423 38.0417 43.9756 37.975C44.1256 37.9083 44.2506 37.8833 44.3506 37.9C44.4506 37.9167 44.5506 37.9583 44.6506 38.025C44.9006 38.225 44.9423 38.575 44.7756 39.075C43.1089 44.2417 42.4506 47.375 42.8006 48.475C42.8339 48.5417 42.8589 48.5917 42.8756 48.625C43.0089 48.6417 43.2089 48.5333 43.4756 48.3C43.7589 48.0667 44.1006 47.7 44.5006 47.2C44.9173 46.7 45.3589 46.1 45.8256 45.4C46.3089 44.7 46.8339 43.8417 47.4006 42.825C47.9839 41.8083 48.5423 40.725 49.0756 39.575C49.1423 39.4417 49.2339 39.3583 49.3506 39.325ZM39.6506 37.625C39.5006 38.2083 39.5339 38.675 39.7506 39.025C40.9673 36.9083 41.6173 35.475 41.7006 34.725C41.5006 34.8417 41.2673 35.0333 41.0006 35.3C40.7506 35.5667 40.4839 35.9167 40.2006 36.35C39.9339 36.7667 39.7506 37.1917 39.6506 37.625ZM57.0859 39.35C57.2193 39.3167 57.3359 39.3417 57.4359 39.425C57.5526 39.4917 57.6193 39.5917 57.6359 39.725C57.6526 39.8583 57.6276 39.975 57.5609 40.075C55.6776 42.7083 53.9609 44.575 52.4109 45.675C51.7943 46.1083 51.1859 46.325 50.5859 46.325C50.1193 46.325 49.7109 46.2 49.3609 45.95C49.1609 45.8 48.9859 45.6 48.8359 45.35C48.6693 45.1 48.5276 44.75 48.4109 44.3C48.2943 43.85 48.2776 43.2583 48.3609 42.525C48.4276 41.7917 48.6109 40.9583 48.9109 40.025V40C49.3776 38.4833 49.9443 37.2833 50.6109 36.4C51.2776 35.5167 51.8776 35.0667 52.4109 35.05C52.7943 35.0333 53.0443 35.2 53.1609 35.55C53.3443 36.0333 53.1276 36.7167 52.5109 37.6C51.8943 38.4833 50.9859 39.4333 49.7859 40.45C49.5859 41.1 49.4443 41.7 49.3609 42.25C49.2776 42.8 49.2443 43.2417 49.2609 43.575C49.2943 43.8917 49.3526 44.175 49.4359 44.425C49.5359 44.6583 49.6193 44.825 49.6859 44.925C49.7693 45.025 49.8526 45.1083 49.9359 45.175C50.4359 45.5417 51.0776 45.4417 51.8609 44.875C53.3276 43.8417 54.9609 42.0583 56.7609 39.525C56.8443 39.425 56.9526 39.3667 57.0859 39.35ZM52.2359 36.1C51.6526 36.4667 51.0776 37.2583 50.5109 38.475C51.4776 37.5083 52.0526 36.7167 52.2359 36.1ZM67.1863 24.125C67.6197 24.5583 67.403 26.0917 66.5363 28.725C66.4697 28.925 66.378 29.2 66.2613 29.55C65.8947 30.6667 65.5947 31.5583 65.3613 32.225C65.128 32.8917 64.7613 33.825 64.2613 35.025C63.7613 36.225 63.2197 37.375 62.6363 38.475C62.153 40.775 61.6947 43.225 61.2613 45.825C60.5113 50.275 60.1113 53.2917 60.0613 54.875C60.1947 54.825 60.328 54.825 60.4613 54.875C60.578 54.9417 60.653 55.0333 60.6863 55.15C60.7363 55.2833 60.7363 55.4083 60.6863 55.525C60.3863 56.1583 60.0863 56.475 59.7863 56.475C59.7197 56.475 59.653 56.4667 59.5863 56.45C59.403 56.3833 59.2697 56.2583 59.1863 56.075C59.1197 55.9083 59.0863 55.5417 59.0863 54.975C59.103 54.425 59.178 53.6083 59.3113 52.525C59.5113 50.7917 59.8447 48.5083 60.3113 45.675C60.578 44.125 60.853 42.6167 61.1363 41.15C60.6197 41.9833 60.0697 42.8167 59.4863 43.65C58.3863 45.25 57.428 45.825 56.6113 45.375C56.078 44.9917 55.8197 44.3167 55.8363 43.35C55.853 42.3667 56.0947 41.375 56.5613 40.375C57.1113 39.2083 57.7613 38.35 58.5113 37.8C59.2613 37.25 59.928 37.0667 60.5113 37.25C61.0947 37.4167 61.428 37.85 61.5113 38.55C61.5947 38.4167 61.6697 38.2833 61.7363 38.15C62.6197 33.9667 63.503 30.6083 64.3863 28.075C65.2863 25.525 66.0197 24.1583 66.5863 23.975C66.8197 23.8917 67.0197 23.9417 67.1863 24.125ZM58.7113 43.1C59.4947 41.9667 60.2113 40.8333 60.8613 39.7C60.6113 39.6167 60.5113 39.45 60.5613 39.2C60.628 38.5833 60.5197 38.2333 60.2363 38.15C60.203 38.15 60.153 38.15 60.0863 38.15C59.7363 38.15 59.303 38.3833 58.7863 38.85C58.2863 39.3 57.8363 39.95 57.4363 40.8C57.1697 41.35 56.9863 41.9167 56.8863 42.5C56.803 43.0667 56.7863 43.5333 56.8363 43.9C56.8863 44.25 56.978 44.4583 57.1113 44.525C57.1613 44.5583 57.2363 44.5583 57.3363 44.525C57.453 44.475 57.6363 44.3333 57.8863 44.1C58.1363 43.85 58.4113 43.5167 58.7113 43.1ZM65.6113 28.425C65.9447 27.4083 66.1863 26.5417 66.3363 25.825C65.5197 27.5417 64.6447 30.2167 63.7113 33.85C64.178 32.7167 64.7197 31.1917 65.3363 29.275C65.453 28.9083 65.5447 28.625 65.6113 28.425ZM72.6982 39.35C72.8316 39.3167 72.9482 39.3417 73.0482 39.425C73.1649 39.4917 73.2316 39.5917 73.2482 39.725C73.2649 39.8583 73.2399 39.975 73.1732 40.075C71.2899 42.7083 69.5732 44.575 68.0232 45.675C67.4066 46.1083 66.7982 46.325 66.1982 46.325C65.7316 46.325 65.3232 46.2 64.9732 45.95C64.7732 45.8 64.5982 45.6 64.4482 45.35C64.2816 45.1 64.1399 44.75 64.0232 44.3C63.9066 43.85 63.8899 43.2583 63.9732 42.525C64.0399 41.7917 64.2232 40.9583 64.5232 40.025V40C64.9899 38.4833 65.5566 37.2833 66.2232 36.4C66.8899 35.5167 67.4899 35.0667 68.0232 35.05C68.4066 35.0333 68.6566 35.2 68.7732 35.55C68.9566 36.0333 68.7399 36.7167 68.1232 37.6C67.5066 38.4833 66.5982 39.4333 65.3982 40.45C65.1982 41.1 65.0566 41.7 64.9732 42.25C64.8899 42.8 64.8566 43.2417 64.8732 43.575C64.9066 43.8917 64.9649 44.175 65.0482 44.425C65.1482 44.6583 65.2316 44.825 65.2982 44.925C65.3816 45.025 65.4649 45.1083 65.5482 45.175C66.0482 45.5417 66.6899 45.4417 67.4732 44.875C68.9399 43.8417 70.5732 42.0583 72.3732 39.525C72.4566 39.425 72.5649 39.3667 72.6982 39.35ZM67.8482 36.1C67.2649 36.4667 66.6899 37.2583 66.1232 38.475C67.0899 37.5083 67.6649 36.7167 67.8482 36.1ZM77.1986 38.375C77.332 38.3583 77.4486 38.3917 77.5486 38.475C77.6653 38.5583 77.732 38.6667 77.7486 38.8C77.7653 38.9333 77.732 39.05 77.6486 39.15C77.5653 39.25 77.457 39.3083 77.3236 39.325C76.107 39.4917 74.9736 39.625 73.9236 39.725C72.957 43.7083 72.057 47.7167 71.2236 51.75C70.3903 55.7833 69.8486 58.6667 69.5986 60.4C69.6153 60.4 69.6403 60.4 69.6736 60.4C69.7903 60.45 69.882 60.5333 69.9486 60.65C69.9986 60.7833 69.9986 60.9083 69.9486 61.025C69.8486 61.3083 69.7736 61.5167 69.7236 61.65C69.657 61.8 69.5653 61.9417 69.4486 62.075C69.332 62.2083 69.207 62.275 69.0736 62.275C69.0236 62.275 68.9736 62.2667 68.9236 62.25C68.6736 62.1833 68.5486 61.9583 68.5486 61.575C68.532 61.2083 68.6403 60.2833 68.8736 58.8C69.1736 57 69.632 54.65 70.2486 51.75C71.0653 47.7667 71.957 43.7833 72.9236 39.8C72.357 39.85 71.6903 39.9083 70.9236 39.975C70.907 39.975 70.8903 39.975 70.8736 39.975C70.7903 39.975 70.7153 39.9583 70.6486 39.925C70.582 39.875 70.532 39.8167 70.4986 39.75C70.4486 39.6833 70.4153 39.6083 70.3986 39.525C70.3986 39.3917 70.4403 39.275 70.5236 39.175C70.607 39.075 70.7153 39.0167 70.8486 39C71.782 38.9333 72.5486 38.875 73.1486 38.825C73.582 37.0917 73.982 35.5167 74.3486 34.1C74.4986 33.5167 74.6653 32.9167 74.8486 32.3C75.0486 31.6667 75.307 30.9167 75.6236 30.05C75.9403 29.1667 76.282 28.4417 76.6486 27.875C77.0153 27.2917 77.3653 26.975 77.6986 26.925C77.982 26.875 78.207 26.975 78.3736 27.225C78.7736 27.825 78.5653 29.1417 77.7486 31.175C76.9486 33.2083 75.8653 35.3083 74.4986 37.475C74.482 37.4917 74.4736 37.5083 74.4736 37.525C74.3903 37.8417 74.2903 38.2417 74.1736 38.725C75.0736 38.6417 76.082 38.525 77.1986 38.375ZM77.5736 28.25C76.8403 29.35 76.0903 31.3167 75.3236 34.15C76.657 31.65 77.407 29.6833 77.5736 28.25ZM84.9877 39.25C85.121 39.2167 85.246 39.2333 85.3627 39.3C85.4794 39.3667 85.546 39.4667 85.5627 39.6C85.596 39.7333 85.5794 39.8583 85.5127 39.975C85.046 40.7083 84.4794 41.475 83.8127 42.275C83.1627 43.0583 82.421 43.7667 81.5877 44.4C80.771 45.0333 80.0794 45.35 79.5127 45.35C79.3127 45.35 79.1377 45.3167 78.9877 45.25C77.871 44.7667 77.7544 42.8083 78.6377 39.375C78.671 39.2417 78.746 39.1417 78.8627 39.075C78.9794 39.0083 79.096 38.9917 79.2127 39.025C79.346 39.0583 79.446 39.1333 79.5127 39.25C79.5794 39.3667 79.596 39.4833 79.5627 39.6C79.3627 40.4 79.2127 41.1083 79.1127 41.725C79.0294 42.325 78.9877 42.7833 78.9877 43.1C79.0044 43.4167 79.0377 43.6833 79.0877 43.9C79.1544 44.1 79.2044 44.225 79.2377 44.275C79.2877 44.3083 79.3294 44.3333 79.3627 44.35C79.796 44.5333 80.5794 44.1 81.7127 43.05C82.8627 42 83.8544 40.8 84.6877 39.45C84.771 39.35 84.871 39.2833 84.9877 39.25ZM79.4627 37.3C78.9794 37.2667 78.8294 37.0667 79.0127 36.7C79.1794 36.4 79.396 36.2 79.6627 36.1C80.0794 35.9667 80.3294 36.075 80.4127 36.425C80.496 36.7583 80.371 37.0083 80.0377 37.175C79.871 37.2583 79.6794 37.3 79.4627 37.3ZM94.3109 39.375C94.4443 39.3417 94.5693 39.3583 94.6859 39.425C94.8026 39.4917 94.8776 39.5917 94.9109 39.725C94.9443 39.8417 94.9276 39.9583 94.8609 40.075C94.2943 41.075 93.8026 41.8667 93.3859 42.45C92.9693 43.0333 92.5443 43.4917 92.1109 43.825C91.6776 44.1583 91.2526 44.3 90.8359 44.25C90.0026 44.15 89.3443 43.25 88.8609 41.55C88.5109 40.4 88.2109 39.825 87.9609 39.825C87.9109 39.8083 87.8359 39.8333 87.7359 39.9C87.6526 39.95 87.5109 40.1 87.3109 40.35C87.1109 40.5833 86.8859 40.9083 86.6359 41.325C86.4026 41.7417 86.0859 42.3583 85.6859 43.175C85.3026 43.9917 84.8859 44.9583 84.4359 46.075C84.3526 46.275 84.2026 46.375 83.9859 46.375C83.9526 46.375 83.9193 46.3667 83.8859 46.35C83.6026 46.2833 83.4776 46.1083 83.5109 45.825C83.6776 44.4583 84.3026 41.9167 85.3859 38.2C85.5026 37.8167 85.5859 37.525 85.6359 37.325C85.6859 37.1917 85.7693 37.1 85.8859 37.05C86.0026 36.9833 86.1193 36.9667 86.2359 37C86.3693 37.0333 86.4693 37.1083 86.5359 37.225C86.6026 37.3417 86.6109 37.4667 86.5609 37.6C86.5276 37.7167 86.4443 38.0083 86.3109 38.475C85.9443 39.7583 85.6609 40.7583 85.4609 41.475C85.9943 40.475 86.4609 39.7833 86.8609 39.4C87.2609 39.0167 87.6443 38.8333 88.0109 38.85C88.4443 38.8667 88.7859 39.0917 89.0359 39.525C89.3026 39.9583 89.5526 40.55 89.7859 41.3C90.1526 42.5833 90.5443 43.25 90.9609 43.3C91.1609 43.3333 91.4026 43.225 91.6859 42.975C91.9859 42.7083 92.3026 42.3333 92.6359 41.85C92.9693 41.35 93.2193 40.9583 93.3859 40.675C93.5693 40.3917 93.7776 40.0333 94.0109 39.6C94.0776 39.4833 94.1776 39.4083 94.3109 39.375ZM100.746 39.25C100.88 39.2167 101.005 39.2333 101.121 39.3C101.238 39.3667 101.305 39.4667 101.321 39.6C101.355 39.7333 101.338 39.8583 101.271 39.975C100.805 40.7083 100.238 41.475 99.5715 42.275C98.9215 43.0583 98.1798 43.7667 97.3465 44.4C96.5298 45.0333 95.8382 45.35 95.2715 45.35C95.0715 45.35 94.8965 45.3167 94.7465 45.25C93.6298 44.7667 93.5132 42.8083 94.3965 39.375C94.4298 39.2417 94.5048 39.1417 94.6215 39.075C94.7382 39.0083 94.8548 38.9917 94.9715 39.025C95.1048 39.0583 95.2048 39.1333 95.2715 39.25C95.3382 39.3667 95.3548 39.4833 95.3215 39.6C95.1215 40.4 94.9715 41.1083 94.8715 41.725C94.7882 42.325 94.7465 42.7833 94.7465 43.1C94.7632 43.4167 94.7965 43.6833 94.8465 43.9C94.9132 44.1 94.9632 44.225 94.9965 44.275C95.0465 44.3083 95.0882 44.3333 95.1215 44.35C95.5548 44.5333 96.3382 44.1 97.4715 43.05C98.6215 42 99.6132 40.8 100.446 39.45C100.53 39.35 100.63 39.2833 100.746 39.25ZM95.2215 37.3C94.7382 37.2667 94.5882 37.0667 94.7715 36.7C94.9382 36.4 95.1548 36.2 95.4215 36.1C95.8382 35.9667 96.0882 36.075 96.1715 36.425C96.2548 36.7583 96.1298 37.0083 95.7965 37.175C95.6298 37.2583 95.4382 37.3 95.2215 37.3ZM110.07 39.375C110.203 39.3417 110.328 39.3583 110.445 39.425C110.561 39.4917 110.636 39.5917 110.67 39.725C110.703 39.8417 110.686 39.9583 110.62 40.075C110.053 41.075 109.561 41.8667 109.145 42.45C108.728 43.0333 108.303 43.4917 107.87 43.825C107.436 44.1583 107.011 44.3 106.595 44.25C105.761 44.15 105.103 43.25 104.62 41.55C104.27 40.4 103.97 39.825 103.72 39.825C103.67 39.8083 103.595 39.8333 103.495 39.9C103.411 39.95 103.27 40.1 103.07 40.35C102.87 40.5833 102.645 40.9083 102.395 41.325C102.161 41.7417 101.845 42.3583 101.445 43.175C101.061 43.9917 100.645 44.9583 100.195 46.075C100.111 46.275 99.9614 46.375 99.7447 46.375C99.7114 46.375 99.6781 46.3667 99.6447 46.35C99.3614 46.2833 99.2364 46.1083 99.2697 45.825C99.4364 44.4583 100.061 41.9167 101.145 38.2C101.261 37.8167 101.345 37.525 101.395 37.325C101.445 37.1917 101.528 37.1 101.645 37.05C101.761 36.9833 101.878 36.9667 101.995 37C102.128 37.0333 102.228 37.1083 102.295 37.225C102.361 37.3417 102.37 37.4667 102.32 37.6C102.286 37.7167 102.203 38.0083 102.07 38.475C101.703 39.7583 101.42 40.7583 101.22 41.475C101.753 40.475 102.22 39.7833 102.62 39.4C103.02 39.0167 103.403 38.8333 103.77 38.85C104.203 38.8667 104.545 39.0917 104.795 39.525C105.061 39.9583 105.311 40.55 105.545 41.3C105.911 42.5833 106.303 43.25 106.72 43.3C106.92 43.3333 107.161 43.225 107.445 42.975C107.745 42.7083 108.061 42.3333 108.395 41.85C108.728 41.35 108.978 40.9583 109.145 40.675C109.328 40.3917 109.536 40.0333 109.77 39.6C109.836 39.4833 109.936 39.4083 110.07 39.375ZM120.705 39.25C120.839 39.2833 120.939 39.3583 121.005 39.475C121.089 39.575 121.114 39.6917 121.08 39.825C121.064 39.9583 120.997 40.0583 120.88 40.125C117.88 42.075 115.522 43.7833 113.805 45.25C112.755 51.5833 111.53 56.4 110.13 59.7C108.73 63 107.364 64.8333 106.03 65.2C105.847 65.25 105.672 65.275 105.505 65.275C104.972 65.275 104.514 65.0417 104.13 64.575C103.414 63.675 103.155 62.2333 103.355 60.25C103.589 58.1167 104.314 55.9333 105.53 53.7C107.314 50.4833 109.772 47.5 112.905 44.75C113.139 43.3333 113.355 41.85 113.555 40.3C113.022 41.1 112.53 41.8 112.08 42.4C111.38 43.3167 110.78 43.7 110.28 43.55C109.88 43.4333 109.647 43.0667 109.58 42.45C109.53 41.8667 109.614 41.1167 109.83 40.2C110.064 39.2667 110.439 38.35 110.955 37.45C111.472 36.55 112.039 35.95 112.655 35.65C113.505 35.2167 114.33 35.3583 115.13 36.075C115.23 36.175 115.28 36.2917 115.28 36.425C115.297 36.5417 115.255 36.65 115.155 36.75C115.072 36.85 114.964 36.9083 114.83 36.925C114.697 36.925 114.58 36.8833 114.48 36.8C113.88 36.25 113.272 36.25 112.655 36.8C111.955 37.4333 111.397 38.4417 110.98 39.825C110.564 41.1917 110.43 42.1083 110.58 42.575C110.764 42.4583 111.005 42.2083 111.305 41.825C112.372 40.425 113.23 39.15 113.88 38C114.014 37.7833 114.205 37.7167 114.455 37.8C114.705 37.8667 114.814 38.0333 114.78 38.3C114.547 40.2167 114.297 42.05 114.03 43.8C115.58 42.5333 117.689 41.0417 120.355 39.325C120.472 39.2417 120.589 39.2167 120.705 39.25ZM105.755 64.275C106.205 64.1583 106.697 63.7583 107.23 63.075C107.747 62.3917 108.314 61.3917 108.93 60.075C109.547 58.7583 110.18 56.9083 110.83 54.525C111.497 52.1417 112.105 49.4 112.655 46.3C110.022 48.7333 107.93 51.3583 106.38 54.175C105.88 55.075 105.472 55.975 105.155 56.875C104.822 57.775 104.589 58.5917 104.455 59.325C104.322 60.0583 104.255 60.7333 104.255 61.35C104.255 61.9833 104.314 62.5167 104.43 62.95C104.547 63.3833 104.697 63.725 104.88 63.975C105.13 64.275 105.422 64.375 105.755 64.275ZM136.124 39.35C136.257 39.3167 136.374 39.3417 136.474 39.425C136.591 39.4917 136.657 39.5917 136.674 39.725C136.691 39.8583 136.666 39.975 136.599 40.075C134.716 42.7083 132.999 44.575 131.449 45.675C130.832 46.1083 130.224 46.325 129.624 46.325C129.157 46.325 128.749 46.2 128.399 45.95C128.199 45.8 128.024 45.6 127.874 45.35C127.707 45.1 127.566 44.75 127.449 44.3C127.332 43.85 127.316 43.2583 127.399 42.525C127.466 41.7917 127.649 40.9583 127.949 40.025V40C128.416 38.4833 128.982 37.2833 129.649 36.4C130.316 35.5167 130.916 35.0667 131.449 35.05C131.832 35.0333 132.082 35.2 132.199 35.55C132.382 36.0333 132.166 36.7167 131.549 37.6C130.932 38.4833 130.024 39.4333 128.824 40.45C128.624 41.1 128.482 41.7 128.399 42.25C128.316 42.8 128.282 43.2417 128.299 43.575C128.332 43.8917 128.391 44.175 128.474 44.425C128.574 44.6583 128.657 44.825 128.724 44.925C128.807 45.025 128.891 45.1083 128.974 45.175C129.474 45.5417 130.116 45.4417 130.899 44.875C132.366 43.8417 133.999 42.0583 135.799 39.525C135.882 39.425 135.991 39.3667 136.124 39.35ZM131.274 36.1C130.691 36.4667 130.116 37.2583 129.549 38.475C130.516 37.5083 131.091 36.7167 131.274 36.1ZM141.624 37.125C141.758 37.1583 141.858 37.2333 141.924 37.35C141.991 37.45 142.008 37.5667 141.974 37.7C141.941 37.8333 141.866 37.9333 141.749 38C140.633 38.6833 139.358 39.9917 137.924 41.925C138.241 42.6083 138.566 43.1833 138.899 43.65C139.233 44.1167 139.541 44.4 139.824 44.5C140.024 44.5667 140.216 44.4583 140.399 44.175C140.466 44.0583 140.566 43.9917 140.699 43.975C140.833 43.9417 140.949 43.9667 141.049 44.05C141.166 44.1167 141.233 44.2167 141.249 44.35C141.283 44.4833 141.266 44.6 141.199 44.7C140.849 45.2167 140.433 45.475 139.949 45.475C139.816 45.475 139.683 45.4583 139.549 45.425C138.816 45.175 138.066 44.3083 137.299 42.825C136.299 44.2417 135.291 45.9 134.274 47.8C134.174 47.9667 134.033 48.05 133.849 48.05C133.766 48.05 133.691 48.025 133.624 47.975C133.508 47.925 133.433 47.8333 133.399 47.7C133.349 47.5667 133.358 47.4417 133.424 47.325C134.574 45.2083 135.708 43.3667 136.824 41.8C136.124 40.2 135.791 38.9917 135.824 38.175C135.824 38.0417 135.874 37.9333 135.974 37.85C136.074 37.75 136.191 37.7083 136.324 37.725C136.458 37.725 136.566 37.775 136.649 37.875C136.749 37.975 136.799 38.0917 136.799 38.225C136.766 38.7583 136.991 39.65 137.474 40.9C138.841 39.1 140.099 37.8583 141.249 37.175C141.366 37.1083 141.491 37.0917 141.624 37.125ZM147.888 35.725C148.388 35.875 148.721 36.275 148.888 36.925C149.054 37.5583 149.029 38.3 148.813 39.15C148.413 40.6167 147.429 41.975 145.863 43.225C145.213 43.7583 144.496 44.225 143.713 44.625C143.113 47.075 142.446 50.1167 141.713 53.75C140.963 57.4 140.413 60.2833 140.063 62.4C140.013 62.6667 139.854 62.8 139.588 62.8C139.554 62.8 139.529 62.8 139.513 62.8C139.429 62.7833 139.354 62.75 139.288 62.7C139.221 62.65 139.171 62.5833 139.138 62.5C139.104 62.4167 139.096 62.3333 139.113 62.25C139.546 59.3333 140.504 53.7 141.988 45.35C141.788 45.4167 141.588 45.475 141.388 45.525C141.254 45.575 141.129 45.5667 141.013 45.5C140.896 45.4333 140.821 45.3333 140.788 45.2C140.754 45.0667 140.771 44.9417 140.838 44.825C140.904 44.7083 141.004 44.6333 141.138 44.6C141.471 44.5167 141.813 44.4 142.163 44.25C142.279 43.6667 142.438 42.8 142.638 41.65C143.504 36.7833 143.946 34.2417 143.963 34.025C143.963 33.8917 144.004 33.7833 144.088 33.7C144.188 33.6 144.296 33.55 144.413 33.55C144.546 33.5333 144.663 33.575 144.763 33.675C144.863 33.7583 144.921 33.8667 144.938 34C144.938 34.1333 144.546 36.4 143.763 40.8C144.013 40.1 144.263 39.4667 144.513 38.9C144.779 38.3333 145.021 37.8667 145.238 37.5C145.471 37.1333 145.704 36.825 145.938 36.575C146.171 36.325 146.379 36.1417 146.563 36.025C146.746 35.8917 146.921 35.8 147.088 35.75C147.271 35.6833 147.421 35.6583 147.538 35.675C147.671 35.675 147.788 35.6917 147.888 35.725ZM147.888 38.9C148.038 38.25 148.071 37.725 147.988 37.325C147.921 36.925 147.796 36.7 147.613 36.65C147.596 36.6333 147.571 36.625 147.538 36.625C147.438 36.625 147.321 36.6667 147.188 36.75C147.071 36.8167 146.913 36.9583 146.713 37.175C146.513 37.375 146.304 37.6417 146.088 37.975C145.888 38.2917 145.654 38.7333 145.388 39.3C145.138 39.8667 144.888 40.5167 144.638 41.25C144.471 41.75 144.271 42.45 144.038 43.35C144.988 42.7667 145.804 42.0917 146.488 41.325C147.188 40.5583 147.654 39.75 147.888 38.9ZM158.432 39.35C158.565 39.3167 158.682 39.3417 158.782 39.425C158.898 39.4917 158.965 39.5917 158.982 39.725C158.998 39.8583 158.973 39.975 158.907 40.075C157.023 42.7083 155.307 44.575 153.757 45.675C153.14 46.1083 152.532 46.325 151.932 46.325C151.465 46.325 151.057 46.2 150.707 45.95C150.507 45.8 150.332 45.6 150.182 45.35C150.015 45.1 149.873 44.75 149.757 44.3C149.64 43.85 149.623 43.2583 149.707 42.525C149.773 41.7917 149.957 40.9583 150.257 40.025V40C150.723 38.4833 151.29 37.2833 151.957 36.4C152.623 35.5167 153.223 35.0667 153.757 35.05C154.14 35.0333 154.39 35.2 154.507 35.55C154.69 36.0333 154.473 36.7167 153.857 37.6C153.24 38.4833 152.332 39.4333 151.132 40.45C150.932 41.1 150.79 41.7 150.707 42.25C150.623 42.8 150.59 43.2417 150.607 43.575C150.64 43.8917 150.698 44.175 150.782 44.425C150.882 44.6583 150.965 44.825 151.032 44.925C151.115 45.025 151.198 45.1083 151.282 45.175C151.782 45.5417 152.423 45.4417 153.207 44.875C154.673 43.8417 156.307 42.0583 158.107 39.525C158.19 39.425 158.298 39.3667 158.432 39.35ZM153.582 36.1C152.998 36.4667 152.423 37.2583 151.857 38.475C152.823 37.5083 153.398 36.7167 153.582 36.1ZM168.457 39.325C168.59 39.275 168.715 39.2833 168.832 39.35C168.949 39.4 169.032 39.4917 169.082 39.625C169.132 39.7417 169.124 39.8583 169.057 39.975C168.607 40.9417 168.099 41.9333 167.532 42.95C166.965 43.9667 166.34 44.9917 165.657 46.025C164.99 47.075 164.324 47.925 163.657 48.575C162.99 49.2417 162.424 49.575 161.957 49.575C161.84 49.575 161.732 49.55 161.632 49.5C160.949 49.2333 160.732 48.2 160.982 46.4C161.215 44.7167 161.832 42.3333 162.832 39.25C162.815 39.25 162.799 39.2583 162.782 39.275C162.782 39.275 162.774 39.275 162.757 39.275C162.39 39.525 162.082 39.7167 161.832 39.85C161.599 39.9833 161.274 40.1333 160.857 40.3C160.457 40.4667 160.074 40.5417 159.707 40.525C159.34 40.5083 158.999 40.3917 158.682 40.175C158.049 39.725 157.724 39.1 157.707 38.3C157.69 37.5 157.99 36.625 158.607 35.675C158.99 35.075 159.449 34.55 159.982 34.1C160.532 33.65 160.999 33.55 161.382 33.8C161.615 33.9333 161.749 34.15 161.782 34.45C161.832 34.75 161.69 35.3333 161.357 36.2C161.024 37.05 160.465 38.1667 159.682 39.55C160.199 39.6167 161.049 39.2583 162.232 38.475C162.449 38.325 162.607 38.225 162.707 38.175C162.824 38.1083 162.949 38.0417 163.082 37.975C163.232 37.9083 163.357 37.8833 163.457 37.9C163.557 37.9167 163.657 37.9583 163.757 38.025C164.007 38.225 164.049 38.575 163.882 39.075C162.215 44.2417 161.557 47.375 161.907 48.475C161.94 48.5417 161.965 48.5917 161.982 48.625C162.115 48.6417 162.315 48.5333 162.582 48.3C162.865 48.0667 163.207 47.7 163.607 47.2C164.024 46.7 164.465 46.1 164.932 45.4C165.415 44.7 165.94 43.8417 166.507 42.825C167.09 41.8083 167.649 40.725 168.182 39.575C168.249 39.4417 168.34 39.3583 168.457 39.325ZM158.757 37.625C158.607 38.2083 158.64 38.675 158.857 39.025C160.074 36.9083 160.724 35.475 160.807 34.725C160.607 34.8417 160.374 35.0333 160.107 35.3C159.857 35.5667 159.59 35.9167 159.307 36.35C159.04 36.7667 158.857 37.1917 158.757 37.625ZM174.896 39.25C175.029 39.2167 175.154 39.2333 175.271 39.3C175.388 39.3667 175.454 39.4667 175.471 39.6C175.504 39.7333 175.488 39.8583 175.421 39.975C174.954 40.7083 174.388 41.475 173.721 42.275C173.071 43.0583 172.329 43.7667 171.496 44.4C170.679 45.0333 169.988 45.35 169.421 45.35C169.221 45.35 169.046 45.3167 168.896 45.25C167.779 44.7667 167.663 42.8083 168.546 39.375C168.579 39.2417 168.654 39.1417 168.771 39.075C168.888 39.0083 169.004 38.9917 169.121 39.025C169.254 39.0583 169.354 39.1333 169.421 39.25C169.488 39.3667 169.504 39.4833 169.471 39.6C169.271 40.4 169.121 41.1083 169.021 41.725C168.938 42.325 168.896 42.7833 168.896 43.1C168.913 43.4167 168.946 43.6833 168.996 43.9C169.063 44.1 169.113 44.225 169.146 44.275C169.196 44.3083 169.238 44.3333 169.271 44.35C169.704 44.5333 170.488 44.1 171.621 43.05C172.771 42 173.763 40.8 174.596 39.45C174.679 39.35 174.779 39.2833 174.896 39.25ZM169.371 37.3C168.888 37.2667 168.738 37.0667 168.921 36.7C169.088 36.4 169.304 36.2 169.571 36.1C169.988 35.9667 170.238 36.075 170.321 36.425C170.404 36.7583 170.279 37.0083 169.946 37.175C169.779 37.2583 169.588 37.3 169.371 37.3ZM182.619 39.35C182.752 39.3167 182.869 39.3417 182.969 39.425C183.086 39.4917 183.152 39.5917 183.169 39.725C183.186 39.8583 183.161 39.975 183.094 40.075C181.211 42.7083 179.494 44.575 177.944 45.675C177.327 46.1083 176.719 46.325 176.119 46.325C175.652 46.325 175.244 46.2 174.894 45.95C174.694 45.8 174.519 45.6 174.369 45.35C174.202 45.1 174.061 44.75 173.944 44.3C173.827 43.85 173.811 43.2583 173.894 42.525C173.961 41.7917 174.144 40.9583 174.444 40.025V40C174.911 38.4833 175.477 37.2833 176.144 36.4C176.811 35.5167 177.411 35.0667 177.944 35.05C178.327 35.0333 178.577 35.2 178.694 35.55C178.877 36.0333 178.661 36.7167 178.044 37.6C177.427 38.4833 176.519 39.4333 175.319 40.45C175.119 41.1 174.977 41.7 174.894 42.25C174.811 42.8 174.777 43.2417 174.794 43.575C174.827 43.8917 174.886 44.175 174.969 44.425C175.069 44.6583 175.152 44.825 175.219 44.925C175.302 45.025 175.386 45.1083 175.469 45.175C175.969 45.5417 176.611 45.4417 177.394 44.875C178.861 43.8417 180.494 42.0583 182.294 39.525C182.377 39.425 182.486 39.3667 182.619 39.35ZM177.769 36.1C177.186 36.4667 176.611 37.2583 176.044 38.475C177.011 37.5083 177.586 36.7167 177.769 36.1ZM191.745 39.375C191.878 39.3417 192.003 39.3583 192.12 39.425C192.236 39.4917 192.311 39.5917 192.345 39.725C192.378 39.8417 192.361 39.9583 192.295 40.075C191.728 41.075 191.236 41.8667 190.82 42.45C190.403 43.0333 189.978 43.4917 189.545 43.825C189.111 44.1583 188.686 44.3 188.27 44.25C187.436 44.15 186.778 43.25 186.295 41.55C185.945 40.4 185.645 39.825 185.395 39.825C185.345 39.8083 185.27 39.8333 185.17 39.9C185.086 39.95 184.945 40.1 184.745 40.35C184.545 40.5833 184.32 40.9083 184.07 41.325C183.836 41.7417 183.52 42.3583 183.12 43.175C182.736 43.9917 182.32 44.9583 181.87 46.075C181.786 46.275 181.636 46.375 181.42 46.375C181.386 46.375 181.353 46.3667 181.32 46.35C181.036 46.2833 180.911 46.1083 180.945 45.825C181.111 44.4583 181.736 41.9167 182.82 38.2C182.936 37.8167 183.02 37.525 183.07 37.325C183.12 37.1917 183.203 37.1 183.32 37.05C183.436 36.9833 183.553 36.9667 183.67 37C183.803 37.0333 183.903 37.1083 183.97 37.225C184.036 37.3417 184.045 37.4667 183.995 37.6C183.961 37.7167 183.878 38.0083 183.745 38.475C183.378 39.7583 183.095 40.7583 182.895 41.475C183.428 40.475 183.895 39.7833 184.295 39.4C184.695 39.0167 185.078 38.8333 185.445 38.85C185.878 38.8667 186.22 39.0917 186.47 39.525C186.736 39.9583 186.986 40.55 187.22 41.3C187.586 42.5833 187.978 43.25 188.395 43.3C188.595 43.3333 188.836 43.225 189.12 42.975C189.42 42.7083 189.736 42.3333 190.07 41.85C190.403 41.35 190.653 40.9583 190.82 40.675C191.003 40.3917 191.211 40.0333 191.445 39.6C191.511 39.4833 191.611 39.4083 191.745 39.375ZM199.277 39.25C199.41 39.2167 199.527 39.2417 199.627 39.325C199.743 39.3917 199.818 39.4917 199.852 39.625C199.885 39.7583 199.86 39.875 199.777 39.975C199.227 40.825 198.743 41.5417 198.327 42.125C197.927 42.7083 197.468 43.3333 196.952 44C196.435 44.65 195.96 45.1667 195.527 45.55C195.11 45.95 194.668 46.275 194.202 46.525C193.735 46.7917 193.293 46.925 192.877 46.925C192.727 46.925 192.577 46.9083 192.427 46.875C191.827 46.7417 191.368 46.3917 191.052 45.825C190.718 45.075 190.577 44.2583 190.627 43.375C190.66 42.475 190.835 41.5917 191.152 40.725C191.485 39.8083 191.902 39.1 192.402 38.6C192.918 38.1 193.402 37.925 193.852 38.075C193.952 38.1083 194.043 38.1583 194.127 38.225C194.21 38.275 194.31 38.3917 194.427 38.575C194.543 38.7417 194.602 38.9667 194.602 39.25C194.602 39.5333 194.552 39.9 194.452 40.35C194.418 40.4833 194.343 40.5833 194.227 40.65C194.127 40.7167 194.01 40.7333 193.877 40.7C193.743 40.6667 193.643 40.5917 193.577 40.475C193.51 40.3583 193.493 40.2417 193.527 40.125C193.693 39.4917 193.702 39.1083 193.552 38.975C193.485 38.975 193.377 39.025 193.227 39.125C193.093 39.225 192.91 39.45 192.677 39.8C192.443 40.1333 192.235 40.5583 192.052 41.075C191.752 41.8583 191.585 42.6583 191.552 43.475C191.535 44.275 191.652 44.9 191.902 45.35C192.068 45.6667 192.31 45.8583 192.627 45.925C192.91 45.9917 193.227 45.95 193.577 45.8C193.943 45.65 194.327 45.3833 194.727 45C195.143 44.6 195.518 44.2167 195.852 43.85C196.185 43.4667 196.568 42.9667 197.002 42.35C197.452 41.7167 197.793 41.2333 198.027 40.9C198.26 40.55 198.577 40.0667 198.977 39.45C199.043 39.35 199.143 39.2833 199.277 39.25ZM207.124 39.35C207.257 39.3167 207.374 39.3417 207.474 39.425C207.591 39.4917 207.657 39.5917 207.674 39.725C207.691 39.8583 207.666 39.975 207.599 40.075C205.716 42.7083 203.999 44.575 202.449 45.675C201.832 46.1083 201.224 46.325 200.624 46.325C200.157 46.325 199.749 46.2 199.399 45.95C199.199 45.8 199.024 45.6 198.874 45.35C198.707 45.1 198.566 44.75 198.449 44.3C198.332 43.85 198.316 43.2583 198.399 42.525C198.466 41.7917 198.649 40.9583 198.949 40.025V40C199.416 38.4833 199.982 37.2833 200.649 36.4C201.316 35.5167 201.916 35.0667 202.449 35.05C202.832 35.0333 203.082 35.2 203.199 35.55C203.382 36.0333 203.166 36.7167 202.549 37.6C201.932 38.4833 201.024 39.4333 199.824 40.45C199.624 41.1 199.482 41.7 199.399 42.25C199.316 42.8 199.282 43.2417 199.299 43.575C199.332 43.8917 199.391 44.175 199.474 44.425C199.574 44.6583 199.657 44.825 199.724 44.925C199.807 45.025 199.891 45.1083 199.974 45.175C200.474 45.5417 201.116 45.4417 201.899 44.875C203.366 43.8417 204.999 42.0583 206.799 39.525C206.882 39.425 206.991 39.3667 207.124 39.35ZM202.274 36.1C201.691 36.4667 201.116 37.2583 200.549 38.475C201.516 37.5083 202.091 36.7167 202.274 36.1Z" fill="url(#paint1_linear_3298_4646)"/>
<path d="M49.3506 39.325C49.4839 39.275 49.6089 39.2833 49.7256 39.35C49.8423 39.4 49.9256 39.4917 49.9756 39.625C50.0256 39.7417 50.0173 39.8583 49.9506 39.975C49.5006 40.9417 48.9923 41.9333 48.4256 42.95C47.8589 43.9667 47.2339 44.9917 46.5506 46.025C45.8839 47.075 45.2173 47.925 44.5506 48.575C43.8839 49.2417 43.3173 49.575 42.8506 49.575C42.7339 49.575 42.6256 49.55 42.5256 49.5C41.8423 49.2333 41.6256 48.2 41.8756 46.4C42.1089 44.7167 42.7256 42.3333 43.7256 39.25C43.7089 39.25 43.6923 39.2583 43.6756 39.275C43.6756 39.275 43.6673 39.275 43.6506 39.275C43.2839 39.525 42.9756 39.7167 42.7256 39.85C42.4923 39.9833 42.1673 40.1333 41.7506 40.3C41.3506 40.4667 40.9673 40.5417 40.6006 40.525C40.2339 40.5083 39.8923 40.3917 39.5756 40.175C38.9423 39.725 38.6173 39.1 38.6006 38.3C38.5839 37.5 38.8839 36.625 39.5006 35.675C39.8839 35.075 40.3423 34.55 40.8756 34.1C41.4256 33.65 41.8923 33.55 42.2756 33.8C42.5089 33.9333 42.6423 34.15 42.6756 34.45C42.7256 34.75 42.5839 35.3333 42.2506 36.2C41.9173 37.05 41.3589 38.1667 40.5756 39.55C41.0923 39.6167 41.9423 39.2583 43.1256 38.475C43.3423 38.325 43.5006 38.225 43.6006 38.175C43.7173 38.1083 43.8423 38.0417 43.9756 37.975C44.1256 37.9083 44.2506 37.8833 44.3506 37.9C44.4506 37.9167 44.5506 37.9583 44.6506 38.025C44.9006 38.225 44.9423 38.575 44.7756 39.075C43.1089 44.2417 42.4506 47.375 42.8006 48.475C42.8339 48.5417 42.8589 48.5917 42.8756 48.625C43.0089 48.6417 43.2089 48.5333 43.4756 48.3C43.7589 48.0667 44.1006 47.7 44.5006 47.2C44.9173 46.7 45.3589 46.1 45.8256 45.4C46.3089 44.7 46.8339 43.8417 47.4006 42.825C47.9839 41.8083 48.5423 40.725 49.0756 39.575C49.1423 39.4417 49.2339 39.3583 49.3506 39.325ZM39.6506 37.625C39.5006 38.2083 39.5339 38.675 39.7506 39.025C40.9673 36.9083 41.6173 35.475 41.7006 34.725C41.5006 34.8417 41.2673 35.0333 41.0006 35.3C40.7506 35.5667 40.4839 35.9167 40.2006 36.35C39.9339 36.7667 39.7506 37.1917 39.6506 37.625ZM57.0859 39.35C57.2193 39.3167 57.3359 39.3417 57.4359 39.425C57.5526 39.4917 57.6193 39.5917 57.6359 39.725C57.6526 39.8583 57.6276 39.975 57.5609 40.075C55.6776 42.7083 53.9609 44.575 52.4109 45.675C51.7943 46.1083 51.1859 46.325 50.5859 46.325C50.1193 46.325 49.7109 46.2 49.3609 45.95C49.1609 45.8 48.9859 45.6 48.8359 45.35C48.6693 45.1 48.5276 44.75 48.4109 44.3C48.2943 43.85 48.2776 43.2583 48.3609 42.525C48.4276 41.7917 48.6109 40.9583 48.9109 40.025V40C49.3776 38.4833 49.9443 37.2833 50.6109 36.4C51.2776 35.5167 51.8776 35.0667 52.4109 35.05C52.7943 35.0333 53.0443 35.2 53.1609 35.55C53.3443 36.0333 53.1276 36.7167 52.5109 37.6C51.8943 38.4833 50.9859 39.4333 49.7859 40.45C49.5859 41.1 49.4443 41.7 49.3609 42.25C49.2776 42.8 49.2443 43.2417 49.2609 43.575C49.2943 43.8917 49.3526 44.175 49.4359 44.425C49.5359 44.6583 49.6193 44.825 49.6859 44.925C49.7693 45.025 49.8526 45.1083 49.9359 45.175C50.4359 45.5417 51.0776 45.4417 51.8609 44.875C53.3276 43.8417 54.9609 42.0583 56.7609 39.525C56.8443 39.425 56.9526 39.3667 57.0859 39.35ZM52.2359 36.1C51.6526 36.4667 51.0776 37.2583 50.5109 38.475C51.4776 37.5083 52.0526 36.7167 52.2359 36.1ZM67.1863 24.125C67.6197 24.5583 67.403 26.0917 66.5363 28.725C66.4697 28.925 66.378 29.2 66.2613 29.55C65.8947 30.6667 65.5947 31.5583 65.3613 32.225C65.128 32.8917 64.7613 33.825 64.2613 35.025C63.7613 36.225 63.2197 37.375 62.6363 38.475C62.153 40.775 61.6947 43.225 61.2613 45.825C60.5113 50.275 60.1113 53.2917 60.0613 54.875C60.1947 54.825 60.328 54.825 60.4613 54.875C60.578 54.9417 60.653 55.0333 60.6863 55.15C60.7363 55.2833 60.7363 55.4083 60.6863 55.525C60.3863 56.1583 60.0863 56.475 59.7863 56.475C59.7197 56.475 59.653 56.4667 59.5863 56.45C59.403 56.3833 59.2697 56.2583 59.1863 56.075C59.1197 55.9083 59.0863 55.5417 59.0863 54.975C59.103 54.425 59.178 53.6083 59.3113 52.525C59.5113 50.7917 59.8447 48.5083 60.3113 45.675C60.578 44.125 60.853 42.6167 61.1363 41.15C60.6197 41.9833 60.0697 42.8167 59.4863 43.65C58.3863 45.25 57.428 45.825 56.6113 45.375C56.078 44.9917 55.8197 44.3167 55.8363 43.35C55.853 42.3667 56.0947 41.375 56.5613 40.375C57.1113 39.2083 57.7613 38.35 58.5113 37.8C59.2613 37.25 59.928 37.0667 60.5113 37.25C61.0947 37.4167 61.428 37.85 61.5113 38.55C61.5947 38.4167 61.6697 38.2833 61.7363 38.15C62.6197 33.9667 63.503 30.6083 64.3863 28.075C65.2863 25.525 66.0197 24.1583 66.5863 23.975C66.8197 23.8917 67.0197 23.9417 67.1863 24.125ZM58.7113 43.1C59.4947 41.9667 60.2113 40.8333 60.8613 39.7C60.6113 39.6167 60.5113 39.45 60.5613 39.2C60.628 38.5833 60.5197 38.2333 60.2363 38.15C60.203 38.15 60.153 38.15 60.0863 38.15C59.7363 38.15 59.303 38.3833 58.7863 38.85C58.2863 39.3 57.8363 39.95 57.4363 40.8C57.1697 41.35 56.9863 41.9167 56.8863 42.5C56.803 43.0667 56.7863 43.5333 56.8363 43.9C56.8863 44.25 56.978 44.4583 57.1113 44.525C57.1613 44.5583 57.2363 44.5583 57.3363 44.525C57.453 44.475 57.6363 44.3333 57.8863 44.1C58.1363 43.85 58.4113 43.5167 58.7113 43.1ZM65.6113 28.425C65.9447 27.4083 66.1863 26.5417 66.3363 25.825C65.5197 27.5417 64.6447 30.2167 63.7113 33.85C64.178 32.7167 64.7197 31.1917 65.3363 29.275C65.453 28.9083 65.5447 28.625 65.6113 28.425ZM72.6982 39.35C72.8316 39.3167 72.9482 39.3417 73.0482 39.425C73.1649 39.4917 73.2316 39.5917 73.2482 39.725C73.2649 39.8583 73.2399 39.975 73.1732 40.075C71.2899 42.7083 69.5732 44.575 68.0232 45.675C67.4066 46.1083 66.7982 46.325 66.1982 46.325C65.7316 46.325 65.3232 46.2 64.9732 45.95C64.7732 45.8 64.5982 45.6 64.4482 45.35C64.2816 45.1 64.1399 44.75 64.0232 44.3C63.9066 43.85 63.8899 43.2583 63.9732 42.525C64.0399 41.7917 64.2232 40.9583 64.5232 40.025V40C64.9899 38.4833 65.5566 37.2833 66.2232 36.4C66.8899 35.5167 67.4899 35.0667 68.0232 35.05C68.4066 35.0333 68.6566 35.2 68.7732 35.55C68.9566 36.0333 68.7399 36.7167 68.1232 37.6C67.5066 38.4833 66.5982 39.4333 65.3982 40.45C65.1982 41.1 65.0566 41.7 64.9732 42.25C64.8899 42.8 64.8566 43.2417 64.8732 43.575C64.9066 43.8917 64.9649 44.175 65.0482 44.425C65.1482 44.6583 65.2316 44.825 65.2982 44.925C65.3816 45.025 65.4649 45.1083 65.5482 45.175C66.0482 45.5417 66.6899 45.4417 67.4732 44.875C68.9399 43.8417 70.5732 42.0583 72.3732 39.525C72.4566 39.425 72.5649 39.3667 72.6982 39.35ZM67.8482 36.1C67.2649 36.4667 66.6899 37.2583 66.1232 38.475C67.0899 37.5083 67.6649 36.7167 67.8482 36.1ZM77.1986 38.375C77.332 38.3583 77.4486 38.3917 77.5486 38.475C77.6653 38.5583 77.732 38.6667 77.7486 38.8C77.7653 38.9333 77.732 39.05 77.6486 39.15C77.5653 39.25 77.457 39.3083 77.3236 39.325C76.107 39.4917 74.9736 39.625 73.9236 39.725C72.957 43.7083 72.057 47.7167 71.2236 51.75C70.3903 55.7833 69.8486 58.6667 69.5986 60.4C69.6153 60.4 69.6403 60.4 69.6736 60.4C69.7903 60.45 69.882 60.5333 69.9486 60.65C69.9986 60.7833 69.9986 60.9083 69.9486 61.025C69.8486 61.3083 69.7736 61.5167 69.7236 61.65C69.657 61.8 69.5653 61.9417 69.4486 62.075C69.332 62.2083 69.207 62.275 69.0736 62.275C69.0236 62.275 68.9736 62.2667 68.9236 62.25C68.6736 62.1833 68.5486 61.9583 68.5486 61.575C68.532 61.2083 68.6403 60.2833 68.8736 58.8C69.1736 57 69.632 54.65 70.2486 51.75C71.0653 47.7667 71.957 43.7833 72.9236 39.8C72.357 39.85 71.6903 39.9083 70.9236 39.975C70.907 39.975 70.8903 39.975 70.8736 39.975C70.7903 39.975 70.7153 39.9583 70.6486 39.925C70.582 39.875 70.532 39.8167 70.4986 39.75C70.4486 39.6833 70.4153 39.6083 70.3986 39.525C70.3986 39.3917 70.4403 39.275 70.5236 39.175C70.607 39.075 70.7153 39.0167 70.8486 39C71.782 38.9333 72.5486 38.875 73.1486 38.825C73.582 37.0917 73.982 35.5167 74.3486 34.1C74.4986 33.5167 74.6653 32.9167 74.8486 32.3C75.0486 31.6667 75.307 30.9167 75.6236 30.05C75.9403 29.1667 76.282 28.4417 76.6486 27.875C77.0153 27.2917 77.3653 26.975 77.6986 26.925C77.982 26.875 78.207 26.975 78.3736 27.225C78.7736 27.825 78.5653 29.1417 77.7486 31.175C76.9486 33.2083 75.8653 35.3083 74.4986 37.475C74.482 37.4917 74.4736 37.5083 74.4736 37.525C74.3903 37.8417 74.2903 38.2417 74.1736 38.725C75.0736 38.6417 76.082 38.525 77.1986 38.375ZM77.5736 28.25C76.8403 29.35 76.0903 31.3167 75.3236 34.15C76.657 31.65 77.407 29.6833 77.5736 28.25ZM84.9877 39.25C85.121 39.2167 85.246 39.2333 85.3627 39.3C85.4794 39.3667 85.546 39.4667 85.5627 39.6C85.596 39.7333 85.5794 39.8583 85.5127 39.975C85.046 40.7083 84.4794 41.475 83.8127 42.275C83.1627 43.0583 82.421 43.7667 81.5877 44.4C80.771 45.0333 80.0794 45.35 79.5127 45.35C79.3127 45.35 79.1377 45.3167 78.9877 45.25C77.871 44.7667 77.7544 42.8083 78.6377 39.375C78.671 39.2417 78.746 39.1417 78.8627 39.075C78.9794 39.0083 79.096 38.9917 79.2127 39.025C79.346 39.0583 79.446 39.1333 79.5127 39.25C79.5794 39.3667 79.596 39.4833 79.5627 39.6C79.3627 40.4 79.2127 41.1083 79.1127 41.725C79.0294 42.325 78.9877 42.7833 78.9877 43.1C79.0044 43.4167 79.0377 43.6833 79.0877 43.9C79.1544 44.1 79.2044 44.225 79.2377 44.275C79.2877 44.3083 79.3294 44.3333 79.3627 44.35C79.796 44.5333 80.5794 44.1 81.7127 43.05C82.8627 42 83.8544 40.8 84.6877 39.45C84.771 39.35 84.871 39.2833 84.9877 39.25ZM79.4627 37.3C78.9794 37.2667 78.8294 37.0667 79.0127 36.7C79.1794 36.4 79.396 36.2 79.6627 36.1C80.0794 35.9667 80.3294 36.075 80.4127 36.425C80.496 36.7583 80.371 37.0083 80.0377 37.175C79.871 37.2583 79.6794 37.3 79.4627 37.3ZM94.3109 39.375C94.4443 39.3417 94.5693 39.3583 94.6859 39.425C94.8026 39.4917 94.8776 39.5917 94.9109 39.725C94.9443 39.8417 94.9276 39.9583 94.8609 40.075C94.2943 41.075 93.8026 41.8667 93.3859 42.45C92.9693 43.0333 92.5443 43.4917 92.1109 43.825C91.6776 44.1583 91.2526 44.3 90.8359 44.25C90.0026 44.15 89.3443 43.25 88.8609 41.55C88.5109 40.4 88.2109 39.825 87.9609 39.825C87.9109 39.8083 87.8359 39.8333 87.7359 39.9C87.6526 39.95 87.5109 40.1 87.3109 40.35C87.1109 40.5833 86.8859 40.9083 86.6359 41.325C86.4026 41.7417 86.0859 42.3583 85.6859 43.175C85.3026 43.9917 84.8859 44.9583 84.4359 46.075C84.3526 46.275 84.2026 46.375 83.9859 46.375C83.9526 46.375 83.9193 46.3667 83.8859 46.35C83.6026 46.2833 83.4776 46.1083 83.5109 45.825C83.6776 44.4583 84.3026 41.9167 85.3859 38.2C85.5026 37.8167 85.5859 37.525 85.6359 37.325C85.6859 37.1917 85.7693 37.1 85.8859 37.05C86.0026 36.9833 86.1193 36.9667 86.2359 37C86.3693 37.0333 86.4693 37.1083 86.5359 37.225C86.6026 37.3417 86.6109 37.4667 86.5609 37.6C86.5276 37.7167 86.4443 38.0083 86.3109 38.475C85.9443 39.7583 85.6609 40.7583 85.4609 41.475C85.9943 40.475 86.4609 39.7833 86.8609 39.4C87.2609 39.0167 87.6443 38.8333 88.0109 38.85C88.4443 38.8667 88.7859 39.0917 89.0359 39.525C89.3026 39.9583 89.5526 40.55 89.7859 41.3C90.1526 42.5833 90.5443 43.25 90.9609 43.3C91.1609 43.3333 91.4026 43.225 91.6859 42.975C91.9859 42.7083 92.3026 42.3333 92.6359 41.85C92.9693 41.35 93.2193 40.9583 93.3859 40.675C93.5693 40.3917 93.7776 40.0333 94.0109 39.6C94.0776 39.4833 94.1776 39.4083 94.3109 39.375ZM100.746 39.25C100.88 39.2167 101.005 39.2333 101.121 39.3C101.238 39.3667 101.305 39.4667 101.321 39.6C101.355 39.7333 101.338 39.8583 101.271 39.975C100.805 40.7083 100.238 41.475 99.5715 42.275C98.9215 43.0583 98.1798 43.7667 97.3465 44.4C96.5298 45.0333 95.8382 45.35 95.2715 45.35C95.0715 45.35 94.8965 45.3167 94.7465 45.25C93.6298 44.7667 93.5132 42.8083 94.3965 39.375C94.4298 39.2417 94.5048 39.1417 94.6215 39.075C94.7382 39.0083 94.8548 38.9917 94.9715 39.025C95.1048 39.0583 95.2048 39.1333 95.2715 39.25C95.3382 39.3667 95.3548 39.4833 95.3215 39.6C95.1215 40.4 94.9715 41.1083 94.8715 41.725C94.7882 42.325 94.7465 42.7833 94.7465 43.1C94.7632 43.4167 94.7965 43.6833 94.8465 43.9C94.9132 44.1 94.9632 44.225 94.9965 44.275C95.0465 44.3083 95.0882 44.3333 95.1215 44.35C95.5548 44.5333 96.3382 44.1 97.4715 43.05C98.6215 42 99.6132 40.8 100.446 39.45C100.53 39.35 100.63 39.2833 100.746 39.25ZM95.2215 37.3C94.7382 37.2667 94.5882 37.0667 94.7715 36.7C94.9382 36.4 95.1548 36.2 95.4215 36.1C95.8382 35.9667 96.0882 36.075 96.1715 36.425C96.2548 36.7583 96.1298 37.0083 95.7965 37.175C95.6298 37.2583 95.4382 37.3 95.2215 37.3ZM110.07 39.375C110.203 39.3417 110.328 39.3583 110.445 39.425C110.561 39.4917 110.636 39.5917 110.67 39.725C110.703 39.8417 110.686 39.9583 110.62 40.075C110.053 41.075 109.561 41.8667 109.145 42.45C108.728 43.0333 108.303 43.4917 107.87 43.825C107.436 44.1583 107.011 44.3 106.595 44.25C105.761 44.15 105.103 43.25 104.62 41.55C104.27 40.4 103.97 39.825 103.72 39.825C103.67 39.8083 103.595 39.8333 103.495 39.9C103.411 39.95 103.27 40.1 103.07 40.35C102.87 40.5833 102.645 40.9083 102.395 41.325C102.161 41.7417 101.845 42.3583 101.445 43.175C101.061 43.9917 100.645 44.9583 100.195 46.075C100.111 46.275 99.9614 46.375 99.7447 46.375C99.7114 46.375 99.6781 46.3667 99.6447 46.35C99.3614 46.2833 99.2364 46.1083 99.2697 45.825C99.4364 44.4583 100.061 41.9167 101.145 38.2C101.261 37.8167 101.345 37.525 101.395 37.325C101.445 37.1917 101.528 37.1 101.645 37.05C101.761 36.9833 101.878 36.9667 101.995 37C102.128 37.0333 102.228 37.1083 102.295 37.225C102.361 37.3417 102.37 37.4667 102.32 37.6C102.286 37.7167 102.203 38.0083 102.07 38.475C101.703 39.7583 101.42 40.7583 101.22 41.475C101.753 40.475 102.22 39.7833 102.62 39.4C103.02 39.0167 103.403 38.8333 103.77 38.85C104.203 38.8667 104.545 39.0917 104.795 39.525C105.061 39.9583 105.311 40.55 105.545 41.3C105.911 42.5833 106.303 43.25 106.72 43.3C106.92 43.3333 107.161 43.225 107.445 42.975C107.745 42.7083 108.061 42.3333 108.395 41.85C108.728 41.35 108.978 40.9583 109.145 40.675C109.328 40.3917 109.536 40.0333 109.77 39.6C109.836 39.4833 109.936 39.4083 110.07 39.375ZM120.705 39.25C120.839 39.2833 120.939 39.3583 121.005 39.475C121.089 39.575 121.114 39.6917 121.08 39.825C121.064 39.9583 120.997 40.0583 120.88 40.125C117.88 42.075 115.522 43.7833 113.805 45.25C112.755 51.5833 111.53 56.4 110.13 59.7C108.73 63 107.364 64.8333 106.03 65.2C105.847 65.25 105.672 65.275 105.505 65.275C104.972 65.275 104.514 65.0417 104.13 64.575C103.414 63.675 103.155 62.2333 103.355 60.25C103.589 58.1167 104.314 55.9333 105.53 53.7C107.314 50.4833 109.772 47.5 112.905 44.75C113.139 43.3333 113.355 41.85 113.555 40.3C113.022 41.1 112.53 41.8 112.08 42.4C111.38 43.3167 110.78 43.7 110.28 43.55C109.88 43.4333 109.647 43.0667 109.58 42.45C109.53 41.8667 109.614 41.1167 109.83 40.2C110.064 39.2667 110.439 38.35 110.955 37.45C111.472 36.55 112.039 35.95 112.655 35.65C113.505 35.2167 114.33 35.3583 115.13 36.075C115.23 36.175 115.28 36.2917 115.28 36.425C115.297 36.5417 115.255 36.65 115.155 36.75C115.072 36.85 114.964 36.9083 114.83 36.925C114.697 36.925 114.58 36.8833 114.48 36.8C113.88 36.25 113.272 36.25 112.655 36.8C111.955 37.4333 111.397 38.4417 110.98 39.825C110.564 41.1917 110.43 42.1083 110.58 42.575C110.764 42.4583 111.005 42.2083 111.305 41.825C112.372 40.425 113.23 39.15 113.88 38C114.014 37.7833 114.205 37.7167 114.455 37.8C114.705 37.8667 114.814 38.0333 114.78 38.3C114.547 40.2167 114.297 42.05 114.03 43.8C115.58 42.5333 117.689 41.0417 120.355 39.325C120.472 39.2417 120.589 39.2167 120.705 39.25ZM105.755 64.275C106.205 64.1583 106.697 63.7583 107.23 63.075C107.747 62.3917 108.314 61.3917 108.93 60.075C109.547 58.7583 110.18 56.9083 110.83 54.525C111.497 52.1417 112.105 49.4 112.655 46.3C110.022 48.7333 107.93 51.3583 106.38 54.175C105.88 55.075 105.472 55.975 105.155 56.875C104.822 57.775 104.589 58.5917 104.455 59.325C104.322 60.0583 104.255 60.7333 104.255 61.35C104.255 61.9833 104.314 62.5167 104.43 62.95C104.547 63.3833 104.697 63.725 104.88 63.975C105.13 64.275 105.422 64.375 105.755 64.275ZM136.124 39.35C136.257 39.3167 136.374 39.3417 136.474 39.425C136.591 39.4917 136.657 39.5917 136.674 39.725C136.691 39.8583 136.666 39.975 136.599 40.075C134.716 42.7083 132.999 44.575 131.449 45.675C130.832 46.1083 130.224 46.325 129.624 46.325C129.157 46.325 128.749 46.2 128.399 45.95C128.199 45.8 128.024 45.6 127.874 45.35C127.707 45.1 127.566 44.75 127.449 44.3C127.332 43.85 127.316 43.2583 127.399 42.525C127.466 41.7917 127.649 40.9583 127.949 40.025V40C128.416 38.4833 128.982 37.2833 129.649 36.4C130.316 35.5167 130.916 35.0667 131.449 35.05C131.832 35.0333 132.082 35.2 132.199 35.55C132.382 36.0333 132.166 36.7167 131.549 37.6C130.932 38.4833 130.024 39.4333 128.824 40.45C128.624 41.1 128.482 41.7 128.399 42.25C128.316 42.8 128.282 43.2417 128.299 43.575C128.332 43.8917 128.391 44.175 128.474 44.425C128.574 44.6583 128.657 44.825 128.724 44.925C128.807 45.025 128.891 45.1083 128.974 45.175C129.474 45.5417 130.116 45.4417 130.899 44.875C132.366 43.8417 133.999 42.0583 135.799 39.525C135.882 39.425 135.991 39.3667 136.124 39.35ZM131.274 36.1C130.691 36.4667 130.116 37.2583 129.549 38.475C130.516 37.5083 131.091 36.7167 131.274 36.1ZM141.624 37.125C141.758 37.1583 141.858 37.2333 141.924 37.35C141.991 37.45 142.008 37.5667 141.974 37.7C141.941 37.8333 141.866 37.9333 141.749 38C140.633 38.6833 139.358 39.9917 137.924 41.925C138.241 42.6083 138.566 43.1833 138.899 43.65C139.233 44.1167 139.541 44.4 139.824 44.5C140.024 44.5667 140.216 44.4583 140.399 44.175C140.466 44.0583 140.566 43.9917 140.699 43.975C140.833 43.9417 140.949 43.9667 141.049 44.05C141.166 44.1167 141.233 44.2167 141.249 44.35C141.283 44.4833 141.266 44.6 141.199 44.7C140.849 45.2167 140.433 45.475 139.949 45.475C139.816 45.475 139.683 45.4583 139.549 45.425C138.816 45.175 138.066 44.3083 137.299 42.825C136.299 44.2417 135.291 45.9 134.274 47.8C134.174 47.9667 134.033 48.05 133.849 48.05C133.766 48.05 133.691 48.025 133.624 47.975C133.508 47.925 133.433 47.8333 133.399 47.7C133.349 47.5667 133.358 47.4417 133.424 47.325C134.574 45.2083 135.708 43.3667 136.824 41.8C136.124 40.2 135.791 38.9917 135.824 38.175C135.824 38.0417 135.874 37.9333 135.974 37.85C136.074 37.75 136.191 37.7083 136.324 37.725C136.458 37.725 136.566 37.775 136.649 37.875C136.749 37.975 136.799 38.0917 136.799 38.225C136.766 38.7583 136.991 39.65 137.474 40.9C138.841 39.1 140.099 37.8583 141.249 37.175C141.366 37.1083 141.491 37.0917 141.624 37.125ZM147.888 35.725C148.388 35.875 148.721 36.275 148.888 36.925C149.054 37.5583 149.029 38.3 148.813 39.15C148.413 40.6167 147.429 41.975 145.863 43.225C145.213 43.7583 144.496 44.225 143.713 44.625C143.113 47.075 142.446 50.1167 141.713 53.75C140.963 57.4 140.413 60.2833 140.063 62.4C140.013 62.6667 139.854 62.8 139.588 62.8C139.554 62.8 139.529 62.8 139.513 62.8C139.429 62.7833 139.354 62.75 139.288 62.7C139.221 62.65 139.171 62.5833 139.138 62.5C139.104 62.4167 139.096 62.3333 139.113 62.25C139.546 59.3333 140.504 53.7 141.988 45.35C141.788 45.4167 141.588 45.475 141.388 45.525C141.254 45.575 141.129 45.5667 141.013 45.5C140.896 45.4333 140.821 45.3333 140.788 45.2C140.754 45.0667 140.771 44.9417 140.838 44.825C140.904 44.7083 141.004 44.6333 141.138 44.6C141.471 44.5167 141.813 44.4 142.163 44.25C142.279 43.6667 142.438 42.8 142.638 41.65C143.504 36.7833 143.946 34.2417 143.963 34.025C143.963 33.8917 144.004 33.7833 144.088 33.7C144.188 33.6 144.296 33.55 144.413 33.55C144.546 33.5333 144.663 33.575 144.763 33.675C144.863 33.7583 144.921 33.8667 144.938 34C144.938 34.1333 144.546 36.4 143.763 40.8C144.013 40.1 144.263 39.4667 144.513 38.9C144.779 38.3333 145.021 37.8667 145.238 37.5C145.471 37.1333 145.704 36.825 145.938 36.575C146.171 36.325 146.379 36.1417 146.563 36.025C146.746 35.8917 146.921 35.8 147.088 35.75C147.271 35.6833 147.421 35.6583 147.538 35.675C147.671 35.675 147.788 35.6917 147.888 35.725ZM147.888 38.9C148.038 38.25 148.071 37.725 147.988 37.325C147.921 36.925 147.796 36.7 147.613 36.65C147.596 36.6333 147.571 36.625 147.538 36.625C147.438 36.625 147.321 36.6667 147.188 36.75C147.071 36.8167 146.913 36.9583 146.713 37.175C146.513 37.375 146.304 37.6417 146.088 37.975C145.888 38.2917 145.654 38.7333 145.388 39.3C145.138 39.8667 144.888 40.5167 144.638 41.25C144.471 41.75 144.271 42.45 144.038 43.35C144.988 42.7667 145.804 42.0917 146.488 41.325C147.188 40.5583 147.654 39.75 147.888 38.9ZM158.432 39.35C158.565 39.3167 158.682 39.3417 158.782 39.425C158.898 39.4917 158.965 39.5917 158.982 39.725C158.998 39.8583 158.973 39.975 158.907 40.075C157.023 42.7083 155.307 44.575 153.757 45.675C153.14 46.1083 152.532 46.325 151.932 46.325C151.465 46.325 151.057 46.2 150.707 45.95C150.507 45.8 150.332 45.6 150.182 45.35C150.015 45.1 149.873 44.75 149.757 44.3C149.64 43.85 149.623 43.2583 149.707 42.525C149.773 41.7917 149.957 40.9583 150.257 40.025V40C150.723 38.4833 151.29 37.2833 151.957 36.4C152.623 35.5167 153.223 35.0667 153.757 35.05C154.14 35.0333 154.39 35.2 154.507 35.55C154.69 36.0333 154.473 36.7167 153.857 37.6C153.24 38.4833 152.332 39.4333 151.132 40.45C150.932 41.1 150.79 41.7 150.707 42.25C150.623 42.8 150.59 43.2417 150.607 43.575C150.64 43.8917 150.698 44.175 150.782 44.425C150.882 44.6583 150.965 44.825 151.032 44.925C151.115 45.025 151.198 45.1083 151.282 45.175C151.782 45.5417 152.423 45.4417 153.207 44.875C154.673 43.8417 156.307 42.0583 158.107 39.525C158.19 39.425 158.298 39.3667 158.432 39.35ZM153.582 36.1C152.998 36.4667 152.423 37.2583 151.857 38.475C152.823 37.5083 153.398 36.7167 153.582 36.1ZM168.457 39.325C168.59 39.275 168.715 39.2833 168.832 39.35C168.949 39.4 169.032 39.4917 169.082 39.625C169.132 39.7417 169.124 39.8583 169.057 39.975C168.607 40.9417 168.099 41.9333 167.532 42.95C166.965 43.9667 166.34 44.9917 165.657 46.025C164.99 47.075 164.324 47.925 163.657 48.575C162.99 49.2417 162.424 49.575 161.957 49.575C161.84 49.575 161.732 49.55 161.632 49.5C160.949 49.2333 160.732 48.2 160.982 46.4C161.215 44.7167 161.832 42.3333 162.832 39.25C162.815 39.25 162.799 39.2583 162.782 39.275C162.782 39.275 162.774 39.275 162.757 39.275C162.39 39.525 162.082 39.7167 161.832 39.85C161.599 39.9833 161.274 40.1333 160.857 40.3C160.457 40.4667 160.074 40.5417 159.707 40.525C159.34 40.5083 158.999 40.3917 158.682 40.175C158.049 39.725 157.724 39.1 157.707 38.3C157.69 37.5 157.99 36.625 158.607 35.675C158.99 35.075 159.449 34.55 159.982 34.1C160.532 33.65 160.999 33.55 161.382 33.8C161.615 33.9333 161.749 34.15 161.782 34.45C161.832 34.75 161.69 35.3333 161.357 36.2C161.024 37.05 160.465 38.1667 159.682 39.55C160.199 39.6167 161.049 39.2583 162.232 38.475C162.449 38.325 162.607 38.225 162.707 38.175C162.824 38.1083 162.949 38.0417 163.082 37.975C163.232 37.9083 163.357 37.8833 163.457 37.9C163.557 37.9167 163.657 37.9583 163.757 38.025C164.007 38.225 164.049 38.575 163.882 39.075C162.215 44.2417 161.557 47.375 161.907 48.475C161.94 48.5417 161.965 48.5917 161.982 48.625C162.115 48.6417 162.315 48.5333 162.582 48.3C162.865 48.0667 163.207 47.7 163.607 47.2C164.024 46.7 164.465 46.1 164.932 45.4C165.415 44.7 165.94 43.8417 166.507 42.825C167.09 41.8083 167.649 40.725 168.182 39.575C168.249 39.4417 168.34 39.3583 168.457 39.325ZM158.757 37.625C158.607 38.2083 158.64 38.675 158.857 39.025C160.074 36.9083 160.724 35.475 160.807 34.725C160.607 34.8417 160.374 35.0333 160.107 35.3C159.857 35.5667 159.59 35.9167 159.307 36.35C159.04 36.7667 158.857 37.1917 158.757 37.625ZM174.896 39.25C175.029 39.2167 175.154 39.2333 175.271 39.3C175.388 39.3667 175.454 39.4667 175.471 39.6C175.504 39.7333 175.488 39.8583 175.421 39.975C174.954 40.7083 174.388 41.475 173.721 42.275C173.071 43.0583 172.329 43.7667 171.496 44.4C170.679 45.0333 169.988 45.35 169.421 45.35C169.221 45.35 169.046 45.3167 168.896 45.25C167.779 44.7667 167.663 42.8083 168.546 39.375C168.579 39.2417 168.654 39.1417 168.771 39.075C168.888 39.0083 169.004 38.9917 169.121 39.025C169.254 39.0583 169.354 39.1333 169.421 39.25C169.488 39.3667 169.504 39.4833 169.471 39.6C169.271 40.4 169.121 41.1083 169.021 41.725C168.938 42.325 168.896 42.7833 168.896 43.1C168.913 43.4167 168.946 43.6833 168.996 43.9C169.063 44.1 169.113 44.225 169.146 44.275C169.196 44.3083 169.238 44.3333 169.271 44.35C169.704 44.5333 170.488 44.1 171.621 43.05C172.771 42 173.763 40.8 174.596 39.45C174.679 39.35 174.779 39.2833 174.896 39.25ZM169.371 37.3C168.888 37.2667 168.738 37.0667 168.921 36.7C169.088 36.4 169.304 36.2 169.571 36.1C169.988 35.9667 170.238 36.075 170.321 36.425C170.404 36.7583 170.279 37.0083 169.946 37.175C169.779 37.2583 169.588 37.3 169.371 37.3ZM182.619 39.35C182.752 39.3167 182.869 39.3417 182.969 39.425C183.086 39.4917 183.152 39.5917 183.169 39.725C183.186 39.8583 183.161 39.975 183.094 40.075C181.211 42.7083 179.494 44.575 177.944 45.675C177.327 46.1083 176.719 46.325 176.119 46.325C175.652 46.325 175.244 46.2 174.894 45.95C174.694 45.8 174.519 45.6 174.369 45.35C174.202 45.1 174.061 44.75 173.944 44.3C173.827 43.85 173.811 43.2583 173.894 42.525C173.961 41.7917 174.144 40.9583 174.444 40.025V40C174.911 38.4833 175.477 37.2833 176.144 36.4C176.811 35.5167 177.411 35.0667 177.944 35.05C178.327 35.0333 178.577 35.2 178.694 35.55C178.877 36.0333 178.661 36.7167 178.044 37.6C177.427 38.4833 176.519 39.4333 175.319 40.45C175.119 41.1 174.977 41.7 174.894 42.25C174.811 42.8 174.777 43.2417 174.794 43.575C174.827 43.8917 174.886 44.175 174.969 44.425C175.069 44.6583 175.152 44.825 175.219 44.925C175.302 45.025 175.386 45.1083 175.469 45.175C175.969 45.5417 176.611 45.4417 177.394 44.875C178.861 43.8417 180.494 42.0583 182.294 39.525C182.377 39.425 182.486 39.3667 182.619 39.35ZM177.769 36.1C177.186 36.4667 176.611 37.2583 176.044 38.475C177.011 37.5083 177.586 36.7167 177.769 36.1ZM191.745 39.375C191.878 39.3417 192.003 39.3583 192.12 39.425C192.236 39.4917 192.311 39.5917 192.345 39.725C192.378 39.8417 192.361 39.9583 192.295 40.075C191.728 41.075 191.236 41.8667 190.82 42.45C190.403 43.0333 189.978 43.4917 189.545 43.825C189.111 44.1583 188.686 44.3 188.27 44.25C187.436 44.15 186.778 43.25 186.295 41.55C185.945 40.4 185.645 39.825 185.395 39.825C185.345 39.8083 185.27 39.8333 185.17 39.9C185.086 39.95 184.945 40.1 184.745 40.35C184.545 40.5833 184.32 40.9083 184.07 41.325C183.836 41.7417 183.52 42.3583 183.12 43.175C182.736 43.9917 182.32 44.9583 181.87 46.075C181.786 46.275 181.636 46.375 181.42 46.375C181.386 46.375 181.353 46.3667 181.32 46.35C181.036 46.2833 180.911 46.1083 180.945 45.825C181.111 44.4583 181.736 41.9167 182.82 38.2C182.936 37.8167 183.02 37.525 183.07 37.325C183.12 37.1917 183.203 37.1 183.32 37.05C183.436 36.9833 183.553 36.9667 183.67 37C183.803 37.0333 183.903 37.1083 183.97 37.225C184.036 37.3417 184.045 37.4667 183.995 37.6C183.961 37.7167 183.878 38.0083 183.745 38.475C183.378 39.7583 183.095 40.7583 182.895 41.475C183.428 40.475 183.895 39.7833 184.295 39.4C184.695 39.0167 185.078 38.8333 185.445 38.85C185.878 38.8667 186.22 39.0917 186.47 39.525C186.736 39.9583 186.986 40.55 187.22 41.3C187.586 42.5833 187.978 43.25 188.395 43.3C188.595 43.3333 188.836 43.225 189.12 42.975C189.42 42.7083 189.736 42.3333 190.07 41.85C190.403 41.35 190.653 40.9583 190.82 40.675C191.003 40.3917 191.211 40.0333 191.445 39.6C191.511 39.4833 191.611 39.4083 191.745 39.375ZM199.277 39.25C199.41 39.2167 199.527 39.2417 199.627 39.325C199.743 39.3917 199.818 39.4917 199.852 39.625C199.885 39.7583 199.86 39.875 199.777 39.975C199.227 40.825 198.743 41.5417 198.327 42.125C197.927 42.7083 197.468 43.3333 196.952 44C196.435 44.65 195.96 45.1667 195.527 45.55C195.11 45.95 194.668 46.275 194.202 46.525C193.735 46.7917 193.293 46.925 192.877 46.925C192.727 46.925 192.577 46.9083 192.427 46.875C191.827 46.7417 191.368 46.3917 191.052 45.825C190.718 45.075 190.577 44.2583 190.627 43.375C190.66 42.475 190.835 41.5917 191.152 40.725C191.485 39.8083 191.902 39.1 192.402 38.6C192.918 38.1 193.402 37.925 193.852 38.075C193.952 38.1083 194.043 38.1583 194.127 38.225C194.21 38.275 194.31 38.3917 194.427 38.575C194.543 38.7417 194.602 38.9667 194.602 39.25C194.602 39.5333 194.552 39.9 194.452 40.35C194.418 40.4833 194.343 40.5833 194.227 40.65C194.127 40.7167 194.01 40.7333 193.877 40.7C193.743 40.6667 193.643 40.5917 193.577 40.475C193.51 40.3583 193.493 40.2417 193.527 40.125C193.693 39.4917 193.702 39.1083 193.552 38.975C193.485 38.975 193.377 39.025 193.227 39.125C193.093 39.225 192.91 39.45 192.677 39.8C192.443 40.1333 192.235 40.5583 192.052 41.075C191.752 41.8583 191.585 42.6583 191.552 43.475C191.535 44.275 191.652 44.9 191.902 45.35C192.068 45.6667 192.31 45.8583 192.627 45.925C192.91 45.9917 193.227 45.95 193.577 45.8C193.943 45.65 194.327 45.3833 194.727 45C195.143 44.6 195.518 44.2167 195.852 43.85C196.185 43.4667 196.568 42.9667 197.002 42.35C197.452 41.7167 197.793 41.2333 198.027 40.9C198.26 40.55 198.577 40.0667 198.977 39.45C199.043 39.35 199.143 39.2833 199.277 39.25ZM207.124 39.35C207.257 39.3167 207.374 39.3417 207.474 39.425C207.591 39.4917 207.657 39.5917 207.674 39.725C207.691 39.8583 207.666 39.975 207.599 40.075C205.716 42.7083 203.999 44.575 202.449 45.675C201.832 46.1083 201.224 46.325 200.624 46.325C200.157 46.325 199.749 46.2 199.399 45.95C199.199 45.8 199.024 45.6 198.874 45.35C198.707 45.1 198.566 44.75 198.449 44.3C198.332 43.85 198.316 43.2583 198.399 42.525C198.466 41.7917 198.649 40.9583 198.949 40.025V40C199.416 38.4833 199.982 37.2833 200.649 36.4C201.316 35.5167 201.916 35.0667 202.449 35.05C202.832 35.0333 203.082 35.2 203.199 35.55C203.382 36.0333 203.166 36.7167 202.549 37.6C201.932 38.4833 201.024 39.4333 199.824 40.45C199.624 41.1 199.482 41.7 199.399 42.25C199.316 42.8 199.282 43.2417 199.299 43.575C199.332 43.8917 199.391 44.175 199.474 44.425C199.574 44.6583 199.657 44.825 199.724 44.925C199.807 45.025 199.891 45.1083 199.974 45.175C200.474 45.5417 201.116 45.4417 201.899 44.875C203.366 43.8417 204.999 42.0583 206.799 39.525C206.882 39.425 206.991 39.3667 207.124 39.35ZM202.274 36.1C201.691 36.4667 201.116 37.2583 200.549 38.475C201.516 37.5083 202.091 36.7167 202.274 36.1Z" fill="url(#paint2_linear_3298_4646)"/>
<path d="M0.672 71V67.955L8.862 58.421L9.471 60.143H0.882V56.3H13.839V59.345L5.649 68.879L5.04 67.157H14.175V71H0.672ZM20.99 61.76H27.542V65.33H20.99V61.76ZM21.326 67.262H28.676V71H16.454V56.3H28.403V60.038H21.326V67.262ZM31.4239 71V56.3H38.5009C39.8729 56.3 41.0559 56.524 42.0499 56.972C43.0579 57.42 43.8349 58.064 44.3809 58.904C44.9269 59.73 45.1999 60.71 45.1999 61.844C45.1999 62.978 44.9269 63.958 44.3809 64.784C43.8349 65.596 43.0579 66.219 42.0499 66.653C41.0559 67.087 39.8729 67.304 38.5009 67.304H34.1749L36.3799 65.267V71H31.4239ZM40.2229 71L36.6109 65.645H41.8609L45.5149 71H40.2229ZM36.3799 65.813L34.1749 63.566H38.1859C38.8719 63.566 39.3759 63.412 39.6979 63.104C40.0339 62.796 40.2019 62.376 40.2019 61.844C40.2019 61.312 40.0339 60.892 39.6979 60.584C39.3759 60.276 38.8719 60.122 38.1859 60.122H34.1749L36.3799 57.875V65.813ZM55.6183 71.336C54.4283 71.336 53.3223 71.147 52.3003 70.769C51.2923 70.391 50.4173 69.859 49.6753 69.173C48.9333 68.473 48.3523 67.654 47.9323 66.716C47.5263 65.778 47.3233 64.756 47.3233 63.65C47.3233 62.53 47.5263 61.508 47.9323 60.584C48.3523 59.646 48.9333 58.834 49.6753 58.148C50.4173 57.448 51.2923 56.909 52.3003 56.531C53.3223 56.153 54.4283 55.964 55.6183 55.964C56.8223 55.964 57.9283 56.153 58.9363 56.531C59.9443 56.909 60.8193 57.448 61.5613 58.148C62.3033 58.834 62.8773 59.646 63.2833 60.584C63.7033 61.508 63.9133 62.53 63.9133 63.65C63.9133 64.756 63.7033 65.778 63.2833 66.716C62.8773 67.654 62.3033 68.473 61.5613 69.173C60.8193 69.859 59.9443 70.391 58.9363 70.769C57.9283 71.147 56.8223 71.336 55.6183 71.336ZM55.6183 67.325C56.0803 67.325 56.5073 67.241 56.8993 67.073C57.3053 66.905 57.6553 66.667 57.9493 66.359C58.2573 66.037 58.4953 65.652 58.6633 65.204C58.8313 64.742 58.9153 64.224 58.9153 63.65C58.9153 63.076 58.8313 62.565 58.6633 62.117C58.4953 61.655 58.2573 61.27 57.9493 60.962C57.6553 60.64 57.3053 60.395 56.8993 60.227C56.5073 60.059 56.0803 59.975 55.6183 59.975C55.1563 59.975 54.7223 60.059 54.3163 60.227C53.9243 60.395 53.5743 60.64 53.2663 60.962C52.9723 61.27 52.7413 61.655 52.5733 62.117C52.4053 62.565 52.3213 63.076 52.3213 63.65C52.3213 64.224 52.4053 64.742 52.5733 65.204C52.7413 65.652 52.9723 66.037 53.2663 66.359C53.5743 66.667 53.9243 66.905 54.3163 67.073C54.7223 67.241 55.1563 67.325 55.6183 67.325ZM77.405 71.336C76.257 71.336 75.221 71.154 74.297 70.79C73.373 70.412 72.603 69.866 71.987 69.152L74.654 66.002C75.046 66.478 75.431 66.842 75.809 67.094C76.187 67.332 76.579 67.451 76.985 67.451C78.049 67.451 78.581 66.842 78.581 65.624V60.038H73.583V56.3H83.474V65.33C83.474 67.346 82.956 68.851 81.92 69.845C80.884 70.839 79.379 71.336 77.405 71.336ZM94.2936 71.336C93.1036 71.336 91.9976 71.147 90.9756 70.769C89.9676 70.391 89.0926 69.859 88.3506 69.173C87.6086 68.473 87.0276 67.654 86.6076 66.716C86.2016 65.778 85.9986 64.756 85.9986 63.65C85.9986 62.53 86.2016 61.508 86.6076 60.584C87.0276 59.646 87.6086 58.834 88.3506 58.148C89.0926 57.448 89.9676 56.909 90.9756 56.531C91.9976 56.153 93.1036 55.964 94.2936 55.964C95.4976 55.964 96.6036 56.153 97.6116 56.531C98.6196 56.909 99.4946 57.448 100.237 58.148C100.979 58.834 101.553 59.646 101.959 60.584C102.379 61.508 102.589 62.53 102.589 63.65C102.589 64.756 102.379 65.778 101.959 66.716C101.553 67.654 100.979 68.473 100.237 69.173C99.4946 69.859 98.6196 70.391 97.6116 70.769C96.6036 71.147 95.4976 71.336 94.2936 71.336ZM94.2936 67.325C94.7556 67.325 95.1826 67.241 95.5746 67.073C95.9806 66.905 96.3306 66.667 96.6246 66.359C96.9326 66.037 97.1706 65.652 97.3386 65.204C97.5066 64.742 97.5906 64.224 97.5906 63.65C97.5906 63.076 97.5066 62.565 97.3386 62.117C97.1706 61.655 96.9326 61.27 96.6246 60.962C96.3306 60.64 95.9806 60.395 95.5746 60.227C95.1826 60.059 94.7556 59.975 94.2936 59.975C93.8316 59.975 93.3976 60.059 92.9916 60.227C92.5996 60.395 92.2496 60.64 91.9416 60.962C91.6476 61.27 91.4166 61.655 91.2486 62.117C91.0806 62.565 90.9966 63.076 90.9966 63.65C90.9966 64.224 91.0806 64.742 91.2486 65.204C91.4166 65.652 91.6476 66.037 91.9416 66.359C92.2496 66.667 92.5996 66.905 92.9916 67.073C93.3976 67.241 93.8316 67.325 94.2936 67.325ZM105.227 71V56.3H110.183V71H105.227ZM113.409 71V56.3H117.483L124.959 65.246H123.069V56.3H127.899V71H123.825L116.349 62.054H118.239V71H113.409ZM131.127 71V56.3H136.083V71H131.127ZM139.309 71V56.3H143.383L150.859 65.246H148.969V56.3H153.799V71H149.725L142.249 62.054H144.139V71H139.309ZM164.65 71.336C163.46 71.336 162.361 71.154 161.353 70.79C160.359 70.412 159.491 69.88 158.749 69.194C158.021 68.508 157.454 67.696 157.048 66.758C156.642 65.82 156.439 64.784 156.439 63.65C156.439 62.516 156.642 61.48 157.048 60.542C157.454 59.604 158.028 58.792 158.77 58.106C159.512 57.42 160.387 56.895 161.395 56.531C162.417 56.153 163.537 55.964 164.755 55.964C166.211 55.964 167.506 56.209 168.64 56.699C169.788 57.189 170.733 57.889 171.475 58.799L168.304 61.592C167.842 61.06 167.338 60.661 166.792 60.395C166.26 60.115 165.665 59.975 165.007 59.975C164.461 59.975 163.964 60.059 163.516 60.227C163.082 60.395 162.711 60.64 162.403 60.962C162.095 61.284 161.857 61.669 161.689 62.117C161.521 62.565 161.437 63.076 161.437 63.65C161.437 64.196 161.521 64.7 161.689 65.162C161.857 65.61 162.095 65.995 162.403 66.317C162.711 66.639 163.075 66.891 163.495 67.073C163.929 67.241 164.412 67.325 164.944 67.325C165.504 67.325 166.05 67.234 166.582 67.052C167.114 66.856 167.681 66.527 168.283 66.065L171.055 69.467C170.159 70.069 169.137 70.531 167.989 70.853C166.841 71.175 165.728 71.336 164.65 71.336ZM166.75 68.837V63.251H171.055V69.467L166.75 68.837ZM185.762 62.558H192.23V66.296H185.762V62.558ZM186.098 71H181.142V56.3H193.091V60.038H186.098V71ZM200.033 61.76H206.585V65.33H200.033V61.76ZM200.369 67.262H207.719V71H195.497V56.3H207.446V60.038H200.369V67.262ZM215.003 61.76H221.555V65.33H215.003V61.76ZM215.339 67.262H222.689V71H210.467V56.3H222.416V60.038H215.339V67.262ZM230.918 71.336C229.686 71.336 228.496 71.196 227.348 70.916C226.2 70.636 225.255 70.272 224.513 69.824L226.109 66.212C226.809 66.618 227.586 66.947 228.44 67.199C229.308 67.437 230.148 67.556 230.96 67.556C231.436 67.556 231.807 67.528 232.073 67.472C232.353 67.402 232.556 67.311 232.682 67.199C232.808 67.073 232.871 66.926 232.871 66.758C232.871 66.492 232.724 66.282 232.43 66.128C232.136 65.974 231.744 65.848 231.254 65.75C230.778 65.638 230.253 65.526 229.679 65.414C229.105 65.288 228.524 65.127 227.936 64.931C227.362 64.735 226.83 64.476 226.34 64.154C225.864 63.832 225.479 63.412 225.185 62.894C224.891 62.362 224.744 61.704 224.744 60.92C224.744 60.01 224.996 59.184 225.5 58.442C226.018 57.686 226.781 57.084 227.789 56.636C228.811 56.188 230.078 55.964 231.59 55.964C232.584 55.964 233.564 56.069 234.53 56.279C235.496 56.489 236.364 56.811 237.134 57.245L235.643 60.836C234.915 60.472 234.208 60.199 233.522 60.017C232.85 59.835 232.192 59.744 231.548 59.744C231.072 59.744 230.694 59.786 230.414 59.87C230.134 59.954 229.931 60.066 229.805 60.206C229.693 60.346 229.637 60.5 229.637 60.668C229.637 60.92 229.784 61.123 230.078 61.277C230.372 61.417 230.757 61.536 231.233 61.634C231.723 61.732 232.255 61.837 232.829 61.949C233.417 62.061 233.998 62.215 234.572 62.411C235.146 62.607 235.671 62.866 236.147 63.188C236.637 63.51 237.029 63.93 237.323 64.448C237.617 64.966 237.764 65.61 237.764 66.38C237.764 67.276 237.505 68.102 236.987 68.858C236.483 69.6 235.727 70.202 234.719 70.664C233.711 71.112 232.444 71.336 230.918 71.336Z" fill="url(#paint3_linear_3298_4646)"/>
<defs>
<linearGradient id="paint0_linear_3298_4646" x1="122.5" y1="0" x2="122.5" y2="26" gradientUnits="userSpaceOnUse">
<stop stop-color="white"/>
<stop offset="1" stop-color="#999999"/>
</linearGradient>
<linearGradient id="paint1_linear_3298_4646" x1="-2.85218e-06" y1="34" x2="210.083" y2="125.857" gradientUnits="userSpaceOnUse">
<stop stop-color="#72C3F5"/>
<stop offset="1" stop-color="#FFC700"/>
</linearGradient>
<linearGradient id="paint2_linear_3298_4646" x1="0" y1="38" x2="245" y2="38" gradientUnits="userSpaceOnUse">
<stop stop-color="#FBF09C"/>
<stop offset="0.06" stop-color="#F8EC97"/>
<stop offset="0.13" stop-color="#F2E18A"/>
<stop offset="0.2" stop-color="#E7CE74"/>
<stop offset="0.27" stop-color="#D9B456"/>
<stop offset="0.34" stop-color="#C6932F"/>
<stop offset="0.35" stop-color="#C6932F"/>
<stop offset="0.4" stop-color="#C79632"/>
<stop offset="0.45" stop-color="#CD9F3D"/>
<stop offset="0.49" stop-color="#D6AF50"/>
<stop offset="0.54" stop-color="#E2C56A"/>
<stop offset="0.58" stop-color="#F2E18B"/>
<stop offset="0.6" stop-color="#FBF09C"/>
<stop offset="0.67" stop-color="#F7E993"/>
<stop offset="0.79" stop-color="#EFD77D"/>
<stop offset="0.94" stop-color="#E2BA5A"/>
<stop offset="1" stop-color="#DCAD49"/>
</linearGradient>
<linearGradient id="paint3_linear_3298_4646" x1="122.5" y1="50" x2="122.5" y2="76" gradientUnits="userSpaceOnUse">
<stop stop-color="white"/>
<stop offset="1" stop-color="#999999"/>
</linearGradient>
</defs>
</svg>
