<svg width="270" height="23" viewBox="0 0 270 23" fill="none" xmlns="http://www.w3.org/2000/svg">
<path d="M6.14388 18V4.368H0.767875V1.2H15.4079V4.368H10.0319V18H6.14388ZM22.3313 18.192C20.8593 18.192 19.5633 17.904 18.4433 17.328C17.3393 16.752 16.4833 15.968 15.8753 14.976C15.2673 13.968 14.9633 12.824 14.9633 11.544C14.9633 10.248 15.2593 9.104 15.8513 8.112C16.4593 7.104 17.2833 6.32 18.3233 5.76C19.3633 5.184 20.5393 4.896 21.8513 4.896C23.1153 4.896 24.2513 5.168 25.2593 5.712C26.2833 6.24 27.0913 7.008 27.6833 8.016C28.2753 9.008 28.5713 10.2 28.5713 11.592C28.5713 11.736 28.5633 11.904 28.5473 12.096C28.5313 12.272 28.5153 12.44 28.4993 12.6H18.0113V10.416H26.5313L25.0913 11.064C25.0913 10.392 24.9553 9.808 24.6833 9.312C24.4113 8.816 24.0353 8.432 23.5553 8.16C23.0753 7.872 22.5153 7.728 21.8753 7.728C21.2353 7.728 20.6673 7.872 20.1713 8.16C19.6913 8.432 19.3153 8.824 19.0433 9.336C18.7713 9.832 18.6353 10.424 18.6353 11.112V11.688C18.6353 12.392 18.7873 13.016 19.0913 13.56C19.4113 14.088 19.8513 14.496 20.4113 14.784C20.9873 15.056 21.6593 15.192 22.4273 15.192C23.1153 15.192 23.7153 15.088 24.2273 14.88C24.7553 14.672 25.2353 14.36 25.6673 13.944L27.6593 16.104C27.0673 16.776 26.3233 17.296 25.4273 17.664C24.5313 18.016 23.4993 18.192 22.3313 18.192ZM31.0639 18V0.191999H34.8079V18H31.0639ZM38.2827 18V0.191999H42.0267V18H38.2827ZM57.7463 18.192C56.6743 18.192 55.7143 17.984 54.8663 17.568C54.0343 17.152 53.3863 16.52 52.9223 15.672C52.4583 14.808 52.2263 13.712 52.2263 12.384V5.088H55.9703V11.832C55.9703 12.904 56.1943 13.696 56.6423 14.208C57.1063 14.704 57.7543 14.952 58.5863 14.952C59.1623 14.952 59.6743 14.832 60.1223 14.592C60.5703 14.336 60.9223 13.952 61.1783 13.44C61.4343 12.912 61.5623 12.256 61.5623 11.472V5.088H65.3063V18H61.7543V14.448L62.4023 15.48C61.9703 16.376 61.3303 17.056 60.4823 17.52C59.6503 17.968 58.7383 18.192 57.7463 18.192ZM73.1189 18.192C72.0149 18.192 70.9509 18.064 69.9269 17.808C68.9189 17.536 68.1189 17.2 67.5269 16.8L68.7749 14.112C69.3669 14.48 70.0629 14.784 70.8629 15.024C71.6789 15.248 72.4789 15.36 73.2629 15.36C74.1269 15.36 74.7349 15.256 75.0869 15.048C75.4549 14.84 75.6389 14.552 75.6389 14.184C75.6389 13.88 75.4949 13.656 75.2069 13.512C74.9349 13.352 74.5669 13.232 74.1029 13.152C73.6389 13.072 73.1269 12.992 72.5669 12.912C72.0229 12.832 71.4709 12.728 70.9109 12.6C70.3509 12.456 69.8389 12.248 69.3749 11.976C68.9109 11.704 68.5349 11.336 68.2469 10.872C67.9749 10.408 67.8389 9.808 67.8389 9.072C67.8389 8.256 68.0709 7.536 68.5349 6.912C69.0149 6.288 69.7029 5.8 70.5989 5.448C71.4949 5.08 72.5669 4.896 73.8149 4.896C74.6949 4.896 75.5909 4.992 76.5029 5.184C77.4149 5.376 78.1749 5.656 78.7829 6.024L77.5349 8.688C76.9109 8.32 76.2789 8.072 75.6389 7.944C75.0149 7.8 74.4069 7.728 73.8149 7.728C72.9829 7.728 72.3749 7.84 71.9909 8.064C71.6069 8.288 71.4149 8.576 71.4149 8.928C71.4149 9.248 71.5509 9.488 71.8229 9.648C72.1109 9.808 72.4869 9.936 72.9509 10.032C73.4149 10.128 73.9189 10.216 74.4629 10.296C75.0229 10.36 75.5829 10.464 76.1429 10.608C76.7029 10.752 77.2069 10.96 77.6549 11.232C78.1189 11.488 78.4949 11.848 78.7829 12.312C79.0709 12.76 79.2149 13.352 79.2149 14.088C79.2149 14.888 78.9749 15.6 78.4949 16.224C78.0149 16.832 77.3189 17.312 76.4069 17.664C75.5109 18.016 74.4149 18.192 73.1189 18.192ZM96.2418 18V15.48L96.0018 14.928V10.416C96.0018 9.616 95.7538 8.992 95.2578 8.544C94.7778 8.096 94.0338 7.872 93.0258 7.872C92.3378 7.872 91.6578 7.984 90.9858 8.208C90.3298 8.416 89.7698 8.704 89.3058 9.072L87.9618 6.456C88.6658 5.96 89.5138 5.576 90.5058 5.304C91.4978 5.032 92.5058 4.896 93.5298 4.896C95.4978 4.896 97.0258 5.36 98.1138 6.288C99.2018 7.216 99.7458 8.664 99.7458 10.632V18H96.2418ZM92.3058 18.192C91.2978 18.192 90.4338 18.024 89.7138 17.688C88.9938 17.336 88.4418 16.864 88.0578 16.272C87.6738 15.68 87.4818 15.016 87.4818 14.28C87.4818 13.512 87.6658 12.84 88.0338 12.264C88.4178 11.688 89.0178 11.24 89.8338 10.92C90.6498 10.584 91.7138 10.416 93.0258 10.416H96.4578V12.6H93.4338C92.5538 12.6 91.9458 12.744 91.6098 13.032C91.2898 13.32 91.1298 13.68 91.1298 14.112C91.1298 14.592 91.3138 14.976 91.6818 15.264C92.0658 15.536 92.5858 15.672 93.2418 15.672C93.8658 15.672 94.4258 15.528 94.9218 15.24C95.4178 14.936 95.7778 14.496 96.0018 13.92L96.5778 15.648C96.3058 16.48 95.8098 17.112 95.0898 17.544C94.3698 17.976 93.4418 18.192 92.3058 18.192ZM110.766 18.192C109.63 18.192 108.654 17.952 107.838 17.472C107.022 16.992 106.398 16.264 105.966 15.288C105.534 14.296 105.318 13.048 105.318 11.544C105.318 10.024 105.542 8.776 105.99 7.8C106.454 6.824 107.094 6.096 107.91 5.616C108.726 5.136 109.678 4.896 110.766 4.896C111.982 4.896 113.07 5.168 114.03 5.712C115.006 6.256 115.774 7.024 116.334 8.016C116.91 9.008 117.198 10.184 117.198 11.544C117.198 12.888 116.91 14.056 116.334 15.048C115.774 16.04 115.006 16.816 114.03 17.376C113.07 17.92 111.982 18.192 110.766 18.192ZM103.134 18V0.191999H106.878V7.704L106.638 11.52L106.71 15.36V18H103.134ZM110.118 15.12C110.742 15.12 111.294 14.976 111.774 14.688C112.27 14.4 112.662 13.992 112.95 13.464C113.254 12.92 113.406 12.28 113.406 11.544C113.406 10.792 113.254 10.152 112.95 9.624C112.662 9.096 112.27 8.688 111.774 8.4C111.294 8.112 110.742 7.968 110.118 7.968C109.494 7.968 108.934 8.112 108.438 8.4C107.942 8.688 107.55 9.096 107.262 9.624C106.974 10.152 106.83 10.792 106.83 11.544C106.83 12.28 106.974 12.92 107.262 13.464C107.55 13.992 107.942 14.4 108.438 14.688C108.934 14.976 109.494 15.12 110.118 15.12ZM125.849 18.192C124.473 18.192 123.249 17.904 122.177 17.328C121.121 16.752 120.281 15.968 119.657 14.976C119.049 13.968 118.745 12.824 118.745 11.544C118.745 10.248 119.049 9.104 119.657 8.112C120.281 7.104 121.121 6.32 122.177 5.76C123.249 5.184 124.473 4.896 125.849 4.896C127.209 4.896 128.425 5.184 129.497 5.76C130.569 6.32 131.409 7.096 132.017 8.088C132.625 9.08 132.929 10.232 132.929 11.544C132.929 12.824 132.625 13.968 132.017 14.976C131.409 15.968 130.569 16.752 129.497 17.328C128.425 17.904 127.209 18.192 125.849 18.192ZM125.849 15.12C126.473 15.12 127.033 14.976 127.529 14.688C128.025 14.4 128.417 13.992 128.705 13.464C128.993 12.92 129.137 12.28 129.137 11.544C129.137 10.792 128.993 10.152 128.705 9.624C128.417 9.096 128.025 8.688 127.529 8.4C127.033 8.112 126.473 7.968 125.849 7.968C125.225 7.968 124.665 8.112 124.169 8.4C123.673 8.688 123.273 9.096 122.969 9.624C122.681 10.152 122.537 10.792 122.537 11.544C122.537 12.28 122.681 12.92 122.969 13.464C123.273 13.992 123.673 14.4 124.169 14.688C124.665 14.976 125.225 15.12 125.849 15.12ZM140.879 18.192C139.807 18.192 138.847 17.984 137.999 17.568C137.167 17.152 136.519 16.52 136.055 15.672C135.591 14.808 135.359 13.712 135.359 12.384V5.088H139.103V11.832C139.103 12.904 139.327 13.696 139.775 14.208C140.239 14.704 140.887 14.952 141.719 14.952C142.295 14.952 142.807 14.832 143.255 14.592C143.703 14.336 144.055 13.952 144.311 13.44C144.567 12.912 144.695 12.256 144.695 11.472V5.088H148.439V18H144.887V14.448L145.535 15.48C145.103 16.376 144.463 17.056 143.615 17.52C142.783 17.968 141.871 18.192 140.879 18.192ZM157.188 18.192C155.668 18.192 154.484 17.808 153.636 17.04C152.788 16.256 152.364 15.096 152.364 13.56V2.232H156.108V13.512C156.108 14.056 156.252 14.48 156.54 14.784C156.828 15.072 157.22 15.216 157.716 15.216C158.308 15.216 158.812 15.056 159.228 14.736L160.236 17.376C159.852 17.648 159.388 17.856 158.844 18C158.316 18.128 157.764 18.192 157.188 18.192ZM150.372 8.256V5.376H159.324V8.256H150.372ZM170.766 22.848C170.094 22.848 169.43 22.744 168.774 22.536C168.118 22.328 167.582 22.04 167.166 21.672L168.534 19.008C168.822 19.264 169.15 19.464 169.518 19.608C169.902 19.752 170.278 19.824 170.646 19.824C171.174 19.824 171.59 19.696 171.894 19.44C172.214 19.2 172.502 18.792 172.758 18.216L173.43 16.632L173.718 16.224L178.35 5.088H181.95L176.118 18.792C175.702 19.832 175.222 20.648 174.678 21.24C174.15 21.832 173.558 22.248 172.902 22.488C172.262 22.728 171.55 22.848 170.766 22.848ZM172.974 18.504L167.214 5.088H171.078L175.542 15.888L172.974 18.504ZM189.27 18.192C187.894 18.192 186.67 17.904 185.598 17.328C184.542 16.752 183.702 15.968 183.078 14.976C182.47 13.968 182.166 12.824 182.166 11.544C182.166 10.248 182.47 9.104 183.078 8.112C183.702 7.104 184.542 6.32 185.598 5.76C186.67 5.184 187.894 4.896 189.27 4.896C190.63 4.896 191.846 5.184 192.918 5.76C193.99 6.32 194.83 7.096 195.438 8.088C196.046 9.08 196.35 10.232 196.35 11.544C196.35 12.824 196.046 13.968 195.438 14.976C194.83 15.968 193.99 16.752 192.918 17.328C191.846 17.904 190.63 18.192 189.27 18.192ZM189.27 15.12C189.894 15.12 190.454 14.976 190.95 14.688C191.446 14.4 191.838 13.992 192.126 13.464C192.414 12.92 192.558 12.28 192.558 11.544C192.558 10.792 192.414 10.152 192.126 9.624C191.838 9.096 191.446 8.688 190.95 8.4C190.454 8.112 189.894 7.968 189.27 7.968C188.646 7.968 188.086 8.112 187.59 8.4C187.094 8.688 186.694 9.096 186.39 9.624C186.102 10.152 185.958 10.792 185.958 11.544C185.958 12.28 186.102 12.92 186.39 13.464C186.694 13.992 187.094 14.4 187.59 14.688C188.086 14.976 188.646 15.12 189.27 15.12ZM204.301 18.192C203.229 18.192 202.269 17.984 201.421 17.568C200.589 17.152 199.941 16.52 199.477 15.672C199.013 14.808 198.781 13.712 198.781 12.384V5.088H202.525V11.832C202.525 12.904 202.749 13.696 203.197 14.208C203.661 14.704 204.309 14.952 205.141 14.952C205.717 14.952 206.229 14.832 206.677 14.592C207.125 14.336 207.477 13.952 207.733 13.44C207.989 12.912 208.117 12.256 208.117 11.472V5.088H211.861V18H208.309V14.448L208.957 15.48C208.525 16.376 207.885 17.056 207.037 17.52C206.205 17.968 205.293 18.192 204.301 18.192ZM215.33 18V5.088H218.906V8.736L218.402 7.68C218.786 6.768 219.402 6.08 220.25 5.616C221.098 5.136 222.13 4.896 223.346 4.896V8.352C223.186 8.336 223.042 8.328 222.914 8.328C222.786 8.312 222.65 8.304 222.506 8.304C221.482 8.304 220.65 8.6 220.01 9.192C219.386 9.768 219.074 10.672 219.074 11.904V18H215.33ZM230.01 18.192C228.906 18.192 227.842 18.064 226.818 17.808C225.81 17.536 225.01 17.2 224.418 16.8L225.666 14.112C226.258 14.48 226.954 14.784 227.754 15.024C228.57 15.248 229.37 15.36 230.154 15.36C231.018 15.36 231.626 15.256 231.978 15.048C232.346 14.84 232.53 14.552 232.53 14.184C232.53 13.88 232.386 13.656 232.098 13.512C231.826 13.352 231.458 13.232 230.993 13.152C230.53 13.072 230.018 12.992 229.458 12.912C228.914 12.832 228.362 12.728 227.802 12.6C227.242 12.456 226.73 12.248 226.266 11.976C225.802 11.704 225.426 11.336 225.138 10.872C224.866 10.408 224.729 9.808 224.729 9.072C224.729 8.256 224.962 7.536 225.426 6.912C225.906 6.288 226.594 5.8 227.49 5.448C228.386 5.08 229.458 4.896 230.706 4.896C231.586 4.896 232.482 4.992 233.394 5.184C234.306 5.376 235.066 5.656 235.674 6.024L234.426 8.688C233.802 8.32 233.17 8.072 232.53 7.944C231.906 7.8 231.298 7.728 230.706 7.728C229.874 7.728 229.266 7.84 228.882 8.064C228.498 8.288 228.306 8.576 228.306 8.928C228.306 9.248 228.442 9.488 228.714 9.648C229.002 9.808 229.378 9.936 229.842 10.032C230.306 10.128 230.81 10.216 231.354 10.296C231.914 10.36 232.474 10.464 233.034 10.608C233.594 10.752 234.098 10.96 234.546 11.232C235.01 11.488 235.386 11.848 235.674 12.312C235.962 12.76 236.106 13.352 236.106 14.088C236.106 14.888 235.866 15.6 235.386 16.224C234.906 16.832 234.21 17.312 233.298 17.664C232.402 18.016 231.306 18.192 230.01 18.192ZM244.824 18.192C243.352 18.192 242.056 17.904 240.936 17.328C239.832 16.752 238.976 15.968 238.368 14.976C237.76 13.968 237.456 12.824 237.456 11.544C237.456 10.248 237.752 9.104 238.344 8.112C238.952 7.104 239.776 6.32 240.816 5.76C241.856 5.184 243.032 4.896 244.344 4.896C245.608 4.896 246.744 5.168 247.752 5.712C248.776 6.24 249.584 7.008 250.176 8.016C250.768 9.008 251.064 10.2 251.064 11.592C251.064 11.736 251.056 11.904 251.04 12.096C251.024 12.272 251.008 12.44 250.992 12.6H240.504V10.416H249.023L247.584 11.064C247.584 10.392 247.448 9.808 247.176 9.312C246.904 8.816 246.528 8.432 246.048 8.16C245.568 7.872 245.008 7.728 244.368 7.728C243.728 7.728 243.16 7.872 242.664 8.16C242.184 8.432 241.808 8.824 241.536 9.336C241.264 9.832 241.128 10.424 241.128 11.112V11.688C241.128 12.392 241.28 13.016 241.584 13.56C241.904 14.088 242.344 14.496 242.904 14.784C243.48 15.056 244.152 15.192 244.92 15.192C245.608 15.192 246.208 15.088 246.72 14.88C247.248 14.672 247.728 14.36 248.16 13.944L250.152 16.104C249.56 16.776 248.816 17.296 247.92 17.664C247.024 18.016 245.992 18.192 244.824 18.192ZM253.556 18V0.191999H257.3V18H253.556ZM261.231 18V4.8C261.231 3.344 261.663 2.184 262.527 1.32C263.391 0.439999 264.623 -1.43051e-06 266.223 -1.43051e-06C266.767 -1.43051e-06 267.287 0.0559988 267.783 0.167999C268.295 0.279999 268.727 0.455999 269.079 0.696L268.095 3.408C267.887 3.264 267.655 3.152 267.399 3.072C267.143 2.992 266.871 2.952 266.583 2.952C266.039 2.952 265.615 3.112 265.311 3.432C265.023 3.736 264.879 4.2 264.879 4.824V6.024L264.975 7.632V18H261.231ZM259.239 8.256V5.376H268.191V8.256H259.239Z" fill="white"/>
<path d="M6.14388 18V4.368H0.767875V1.2H15.4079V4.368H10.0319V18H6.14388ZM22.3313 18.192C20.8593 18.192 19.5633 17.904 18.4433 17.328C17.3393 16.752 16.4833 15.968 15.8753 14.976C15.2673 13.968 14.9633 12.824 14.9633 11.544C14.9633 10.248 15.2593 9.104 15.8513 8.112C16.4593 7.104 17.2833 6.32 18.3233 5.76C19.3633 5.184 20.5393 4.896 21.8513 4.896C23.1153 4.896 24.2513 5.168 25.2593 5.712C26.2833 6.24 27.0913 7.008 27.6833 8.016C28.2753 9.008 28.5713 10.2 28.5713 11.592C28.5713 11.736 28.5633 11.904 28.5473 12.096C28.5313 12.272 28.5153 12.44 28.4993 12.6H18.0113V10.416H26.5313L25.0913 11.064C25.0913 10.392 24.9553 9.808 24.6833 9.312C24.4113 8.816 24.0353 8.432 23.5553 8.16C23.0753 7.872 22.5153 7.728 21.8753 7.728C21.2353 7.728 20.6673 7.872 20.1713 8.16C19.6913 8.432 19.3153 8.824 19.0433 9.336C18.7713 9.832 18.6353 10.424 18.6353 11.112V11.688C18.6353 12.392 18.7873 13.016 19.0913 13.56C19.4113 14.088 19.8513 14.496 20.4113 14.784C20.9873 15.056 21.6593 15.192 22.4273 15.192C23.1153 15.192 23.7153 15.088 24.2273 14.88C24.7553 14.672 25.2353 14.36 25.6673 13.944L27.6593 16.104C27.0673 16.776 26.3233 17.296 25.4273 17.664C24.5313 18.016 23.4993 18.192 22.3313 18.192ZM31.0639 18V0.191999H34.8079V18H31.0639ZM38.2827 18V0.191999H42.0267V18H38.2827ZM57.7463 18.192C56.6743 18.192 55.7143 17.984 54.8663 17.568C54.0343 17.152 53.3863 16.52 52.9223 15.672C52.4583 14.808 52.2263 13.712 52.2263 12.384V5.088H55.9703V11.832C55.9703 12.904 56.1943 13.696 56.6423 14.208C57.1063 14.704 57.7543 14.952 58.5863 14.952C59.1623 14.952 59.6743 14.832 60.1223 14.592C60.5703 14.336 60.9223 13.952 61.1783 13.44C61.4343 12.912 61.5623 12.256 61.5623 11.472V5.088H65.3063V18H61.7543V14.448L62.4023 15.48C61.9703 16.376 61.3303 17.056 60.4823 17.52C59.6503 17.968 58.7383 18.192 57.7463 18.192ZM73.1189 18.192C72.0149 18.192 70.9509 18.064 69.9269 17.808C68.9189 17.536 68.1189 17.2 67.5269 16.8L68.7749 14.112C69.3669 14.48 70.0629 14.784 70.8629 15.024C71.6789 15.248 72.4789 15.36 73.2629 15.36C74.1269 15.36 74.7349 15.256 75.0869 15.048C75.4549 14.84 75.6389 14.552 75.6389 14.184C75.6389 13.88 75.4949 13.656 75.2069 13.512C74.9349 13.352 74.5669 13.232 74.1029 13.152C73.6389 13.072 73.1269 12.992 72.5669 12.912C72.0229 12.832 71.4709 12.728 70.9109 12.6C70.3509 12.456 69.8389 12.248 69.3749 11.976C68.9109 11.704 68.5349 11.336 68.2469 10.872C67.9749 10.408 67.8389 9.808 67.8389 9.072C67.8389 8.256 68.0709 7.536 68.5349 6.912C69.0149 6.288 69.7029 5.8 70.5989 5.448C71.4949 5.08 72.5669 4.896 73.8149 4.896C74.6949 4.896 75.5909 4.992 76.5029 5.184C77.4149 5.376 78.1749 5.656 78.7829 6.024L77.5349 8.688C76.9109 8.32 76.2789 8.072 75.6389 7.944C75.0149 7.8 74.4069 7.728 73.8149 7.728C72.9829 7.728 72.3749 7.84 71.9909 8.064C71.6069 8.288 71.4149 8.576 71.4149 8.928C71.4149 9.248 71.5509 9.488 71.8229 9.648C72.1109 9.808 72.4869 9.936 72.9509 10.032C73.4149 10.128 73.9189 10.216 74.4629 10.296C75.0229 10.36 75.5829 10.464 76.1429 10.608C76.7029 10.752 77.2069 10.96 77.6549 11.232C78.1189 11.488 78.4949 11.848 78.7829 12.312C79.0709 12.76 79.2149 13.352 79.2149 14.088C79.2149 14.888 78.9749 15.6 78.4949 16.224C78.0149 16.832 77.3189 17.312 76.4069 17.664C75.5109 18.016 74.4149 18.192 73.1189 18.192ZM96.2418 18V15.48L96.0018 14.928V10.416C96.0018 9.616 95.7538 8.992 95.2578 8.544C94.7778 8.096 94.0338 7.872 93.0258 7.872C92.3378 7.872 91.6578 7.984 90.9858 8.208C90.3298 8.416 89.7698 8.704 89.3058 9.072L87.9618 6.456C88.6658 5.96 89.5138 5.576 90.5058 5.304C91.4978 5.032 92.5058 4.896 93.5298 4.896C95.4978 4.896 97.0258 5.36 98.1138 6.288C99.2018 7.216 99.7458 8.664 99.7458 10.632V18H96.2418ZM92.3058 18.192C91.2978 18.192 90.4338 18.024 89.7138 17.688C88.9938 17.336 88.4418 16.864 88.0578 16.272C87.6738 15.68 87.4818 15.016 87.4818 14.28C87.4818 13.512 87.6658 12.84 88.0338 12.264C88.4178 11.688 89.0178 11.24 89.8338 10.92C90.6498 10.584 91.7138 10.416 93.0258 10.416H96.4578V12.6H93.4338C92.5538 12.6 91.9458 12.744 91.6098 13.032C91.2898 13.32 91.1298 13.68 91.1298 14.112C91.1298 14.592 91.3138 14.976 91.6818 15.264C92.0658 15.536 92.5858 15.672 93.2418 15.672C93.8658 15.672 94.4258 15.528 94.9218 15.24C95.4178 14.936 95.7778 14.496 96.0018 13.92L96.5778 15.648C96.3058 16.48 95.8098 17.112 95.0898 17.544C94.3698 17.976 93.4418 18.192 92.3058 18.192ZM110.766 18.192C109.63 18.192 108.654 17.952 107.838 17.472C107.022 16.992 106.398 16.264 105.966 15.288C105.534 14.296 105.318 13.048 105.318 11.544C105.318 10.024 105.542 8.776 105.99 7.8C106.454 6.824 107.094 6.096 107.91 5.616C108.726 5.136 109.678 4.896 110.766 4.896C111.982 4.896 113.07 5.168 114.03 5.712C115.006 6.256 115.774 7.024 116.334 8.016C116.91 9.008 117.198 10.184 117.198 11.544C117.198 12.888 116.91 14.056 116.334 15.048C115.774 16.04 115.006 16.816 114.03 17.376C113.07 17.92 111.982 18.192 110.766 18.192ZM103.134 18V0.191999H106.878V7.704L106.638 11.52L106.71 15.36V18H103.134ZM110.118 15.12C110.742 15.12 111.294 14.976 111.774 14.688C112.27 14.4 112.662 13.992 112.95 13.464C113.254 12.92 113.406 12.28 113.406 11.544C113.406 10.792 113.254 10.152 112.95 9.624C112.662 9.096 112.27 8.688 111.774 8.4C111.294 8.112 110.742 7.968 110.118 7.968C109.494 7.968 108.934 8.112 108.438 8.4C107.942 8.688 107.55 9.096 107.262 9.624C106.974 10.152 106.83 10.792 106.83 11.544C106.83 12.28 106.974 12.92 107.262 13.464C107.55 13.992 107.942 14.4 108.438 14.688C108.934 14.976 109.494 15.12 110.118 15.12ZM125.849 18.192C124.473 18.192 123.249 17.904 122.177 17.328C121.121 16.752 120.281 15.968 119.657 14.976C119.049 13.968 118.745 12.824 118.745 11.544C118.745 10.248 119.049 9.104 119.657 8.112C120.281 7.104 121.121 6.32 122.177 5.76C123.249 5.184 124.473 4.896 125.849 4.896C127.209 4.896 128.425 5.184 129.497 5.76C130.569 6.32 131.409 7.096 132.017 8.088C132.625 9.08 132.929 10.232 132.929 11.544C132.929 12.824 132.625 13.968 132.017 14.976C131.409 15.968 130.569 16.752 129.497 17.328C128.425 17.904 127.209 18.192 125.849 18.192ZM125.849 15.12C126.473 15.12 127.033 14.976 127.529 14.688C128.025 14.4 128.417 13.992 128.705 13.464C128.993 12.92 129.137 12.28 129.137 11.544C129.137 10.792 128.993 10.152 128.705 9.624C128.417 9.096 128.025 8.688 127.529 8.4C127.033 8.112 126.473 7.968 125.849 7.968C125.225 7.968 124.665 8.112 124.169 8.4C123.673 8.688 123.273 9.096 122.969 9.624C122.681 10.152 122.537 10.792 122.537 11.544C122.537 12.28 122.681 12.92 122.969 13.464C123.273 13.992 123.673 14.4 124.169 14.688C124.665 14.976 125.225 15.12 125.849 15.12ZM140.879 18.192C139.807 18.192 138.847 17.984 137.999 17.568C137.167 17.152 136.519 16.52 136.055 15.672C135.591 14.808 135.359 13.712 135.359 12.384V5.088H139.103V11.832C139.103 12.904 139.327 13.696 139.775 14.208C140.239 14.704 140.887 14.952 141.719 14.952C142.295 14.952 142.807 14.832 143.255 14.592C143.703 14.336 144.055 13.952 144.311 13.44C144.567 12.912 144.695 12.256 144.695 11.472V5.088H148.439V18H144.887V14.448L145.535 15.48C145.103 16.376 144.463 17.056 143.615 17.52C142.783 17.968 141.871 18.192 140.879 18.192ZM157.188 18.192C155.668 18.192 154.484 17.808 153.636 17.04C152.788 16.256 152.364 15.096 152.364 13.56V2.232H156.108V13.512C156.108 14.056 156.252 14.48 156.54 14.784C156.828 15.072 157.22 15.216 157.716 15.216C158.308 15.216 158.812 15.056 159.228 14.736L160.236 17.376C159.852 17.648 159.388 17.856 158.844 18C158.316 18.128 157.764 18.192 157.188 18.192ZM150.372 8.256V5.376H159.324V8.256H150.372ZM170.766 22.848C170.094 22.848 169.43 22.744 168.774 22.536C168.118 22.328 167.582 22.04 167.166 21.672L168.534 19.008C168.822 19.264 169.15 19.464 169.518 19.608C169.902 19.752 170.278 19.824 170.646 19.824C171.174 19.824 171.59 19.696 171.894 19.44C172.214 19.2 172.502 18.792 172.758 18.216L173.43 16.632L173.718 16.224L178.35 5.088H181.95L176.118 18.792C175.702 19.832 175.222 20.648 174.678 21.24C174.15 21.832 173.558 22.248 172.902 22.488C172.262 22.728 171.55 22.848 170.766 22.848ZM172.974 18.504L167.214 5.088H171.078L175.542 15.888L172.974 18.504ZM189.27 18.192C187.894 18.192 186.67 17.904 185.598 17.328C184.542 16.752 183.702 15.968 183.078 14.976C182.47 13.968 182.166 12.824 182.166 11.544C182.166 10.248 182.47 9.104 183.078 8.112C183.702 7.104 184.542 6.32 185.598 5.76C186.67 5.184 187.894 4.896 189.27 4.896C190.63 4.896 191.846 5.184 192.918 5.76C193.99 6.32 194.83 7.096 195.438 8.088C196.046 9.08 196.35 10.232 196.35 11.544C196.35 12.824 196.046 13.968 195.438 14.976C194.83 15.968 193.99 16.752 192.918 17.328C191.846 17.904 190.63 18.192 189.27 18.192ZM189.27 15.12C189.894 15.12 190.454 14.976 190.95 14.688C191.446 14.4 191.838 13.992 192.126 13.464C192.414 12.92 192.558 12.28 192.558 11.544C192.558 10.792 192.414 10.152 192.126 9.624C191.838 9.096 191.446 8.688 190.95 8.4C190.454 8.112 189.894 7.968 189.27 7.968C188.646 7.968 188.086 8.112 187.59 8.4C187.094 8.688 186.694 9.096 186.39 9.624C186.102 10.152 185.958 10.792 185.958 11.544C185.958 12.28 186.102 12.92 186.39 13.464C186.694 13.992 187.094 14.4 187.59 14.688C188.086 14.976 188.646 15.12 189.27 15.12ZM204.301 18.192C203.229 18.192 202.269 17.984 201.421 17.568C200.589 17.152 199.941 16.52 199.477 15.672C199.013 14.808 198.781 13.712 198.781 12.384V5.088H202.525V11.832C202.525 12.904 202.749 13.696 203.197 14.208C203.661 14.704 204.309 14.952 205.141 14.952C205.717 14.952 206.229 14.832 206.677 14.592C207.125 14.336 207.477 13.952 207.733 13.44C207.989 12.912 208.117 12.256 208.117 11.472V5.088H211.861V18H208.309V14.448L208.957 15.48C208.525 16.376 207.885 17.056 207.037 17.52C206.205 17.968 205.293 18.192 204.301 18.192ZM215.33 18V5.088H218.906V8.736L218.402 7.68C218.786 6.768 219.402 6.08 220.25 5.616C221.098 5.136 222.13 4.896 223.346 4.896V8.352C223.186 8.336 223.042 8.328 222.914 8.328C222.786 8.312 222.65 8.304 222.506 8.304C221.482 8.304 220.65 8.6 220.01 9.192C219.386 9.768 219.074 10.672 219.074 11.904V18H215.33ZM230.01 18.192C228.906 18.192 227.842 18.064 226.818 17.808C225.81 17.536 225.01 17.2 224.418 16.8L225.666 14.112C226.258 14.48 226.954 14.784 227.754 15.024C228.57 15.248 229.37 15.36 230.154 15.36C231.018 15.36 231.626 15.256 231.978 15.048C232.346 14.84 232.53 14.552 232.53 14.184C232.53 13.88 232.386 13.656 232.098 13.512C231.826 13.352 231.458 13.232 230.993 13.152C230.53 13.072 230.018 12.992 229.458 12.912C228.914 12.832 228.362 12.728 227.802 12.6C227.242 12.456 226.73 12.248 226.266 11.976C225.802 11.704 225.426 11.336 225.138 10.872C224.866 10.408 224.729 9.808 224.729 9.072C224.729 8.256 224.962 7.536 225.426 6.912C225.906 6.288 226.594 5.8 227.49 5.448C228.386 5.08 229.458 4.896 230.706 4.896C231.586 4.896 232.482 4.992 233.394 5.184C234.306 5.376 235.066 5.656 235.674 6.024L234.426 8.688C233.802 8.32 233.17 8.072 232.53 7.944C231.906 7.8 231.298 7.728 230.706 7.728C229.874 7.728 229.266 7.84 228.882 8.064C228.498 8.288 228.306 8.576 228.306 8.928C228.306 9.248 228.442 9.488 228.714 9.648C229.002 9.808 229.378 9.936 229.842 10.032C230.306 10.128 230.81 10.216 231.354 10.296C231.914 10.36 232.474 10.464 233.034 10.608C233.594 10.752 234.098 10.96 234.546 11.232C235.01 11.488 235.386 11.848 235.674 12.312C235.962 12.76 236.106 13.352 236.106 14.088C236.106 14.888 235.866 15.6 235.386 16.224C234.906 16.832 234.21 17.312 233.298 17.664C232.402 18.016 231.306 18.192 230.01 18.192ZM244.824 18.192C243.352 18.192 242.056 17.904 240.936 17.328C239.832 16.752 238.976 15.968 238.368 14.976C237.76 13.968 237.456 12.824 237.456 11.544C237.456 10.248 237.752 9.104 238.344 8.112C238.952 7.104 239.776 6.32 240.816 5.76C241.856 5.184 243.032 4.896 244.344 4.896C245.608 4.896 246.744 5.168 247.752 5.712C248.776 6.24 249.584 7.008 250.176 8.016C250.768 9.008 251.064 10.2 251.064 11.592C251.064 11.736 251.056 11.904 251.04 12.096C251.024 12.272 251.008 12.44 250.992 12.6H240.504V10.416H249.023L247.584 11.064C247.584 10.392 247.448 9.808 247.176 9.312C246.904 8.816 246.528 8.432 246.048 8.16C245.568 7.872 245.008 7.728 244.368 7.728C243.728 7.728 243.16 7.872 242.664 8.16C242.184 8.432 241.808 8.824 241.536 9.336C241.264 9.832 241.128 10.424 241.128 11.112V11.688C241.128 12.392 241.28 13.016 241.584 13.56C241.904 14.088 242.344 14.496 242.904 14.784C243.48 15.056 244.152 15.192 244.92 15.192C245.608 15.192 246.208 15.088 246.72 14.88C247.248 14.672 247.728 14.36 248.16 13.944L250.152 16.104C249.56 16.776 248.816 17.296 247.92 17.664C247.024 18.016 245.992 18.192 244.824 18.192ZM253.556 18V0.191999H257.3V18H253.556ZM261.231 18V4.8C261.231 3.344 261.663 2.184 262.527 1.32C263.391 0.439999 264.623 -1.43051e-06 266.223 -1.43051e-06C266.767 -1.43051e-06 267.287 0.0559988 267.783 0.167999C268.295 0.279999 268.727 0.455999 269.079 0.696L268.095 3.408C267.887 3.264 267.655 3.152 267.399 3.072C267.143 2.992 266.871 2.952 266.583 2.952C266.039 2.952 265.615 3.112 265.311 3.432C265.023 3.736 264.879 4.2 264.879 4.824V6.024L264.975 7.632V18H261.231ZM259.239 8.256V5.376H268.191V8.256H259.239Z" fill="url(#paint0_linear_3289_8690)"/>
<defs>
<linearGradient id="paint0_linear_3289_8690" x1="-37" y1="9.5" x2="306" y2="9.5" gradientUnits="userSpaceOnUse">
<stop stop-color="#FBF09C"/>
<stop offset="0.06" stop-color="#F8EC97"/>
<stop offset="0.13" stop-color="#F2E18A"/>
<stop offset="0.2" stop-color="#E7CE74"/>
<stop offset="0.27" stop-color="#D9B456"/>
<stop offset="0.34" stop-color="#C6932F"/>
<stop offset="0.35" stop-color="#C6932F"/>
<stop offset="0.4" stop-color="#C79632"/>
<stop offset="0.45" stop-color="#CD9F3D"/>
<stop offset="0.49" stop-color="#D6AF50"/>
<stop offset="0.54" stop-color="#E2C56A"/>
<stop offset="0.58" stop-color="#F2E18B"/>
<stop offset="0.6" stop-color="#FBF09C"/>
<stop offset="0.67" stop-color="#F7E993"/>
<stop offset="0.79" stop-color="#EFD77D"/>
<stop offset="0.94" stop-color="#E2BA5A"/>
<stop offset="1" stop-color="#DCAD49"/>
</linearGradient>
</defs>
</svg>
