<svg width="202" height="24" viewBox="0 0 202 24" fill="none" xmlns="http://www.w3.org/2000/svg">
<path d="M9.41091 19.288C8.11491 19.288 6.90691 19.08 5.78691 18.664C4.68291 18.232 3.72291 17.624 2.90691 16.84C2.09091 16.056 1.45091 15.136 0.986906 14.08C0.538906 13.024 0.314906 11.864 0.314906 10.6C0.314906 9.336 0.538906 8.176 0.986906 7.12C1.45091 6.064 2.09091 5.144 2.90691 4.36C3.73891 3.576 4.70691 2.976 5.81091 2.56C6.91491 2.128 8.12291 1.912 9.43491 1.912C10.8909 1.912 12.2029 2.168 13.3709 2.68C14.5549 3.176 15.5469 3.912 16.3469 4.888L13.8509 7.192C13.2749 6.536 12.6349 6.048 11.9309 5.728C11.2269 5.392 10.4589 5.224 9.62691 5.224C8.84291 5.224 8.12291 5.352 7.46691 5.608C6.81091 5.864 6.24291 6.232 5.76291 6.712C5.28291 7.192 4.90691 7.76 4.63491 8.416C4.37891 9.072 4.25091 9.8 4.25091 10.6C4.25091 11.4 4.37891 12.128 4.63491 12.784C4.90691 13.44 5.28291 14.008 5.76291 14.488C6.24291 14.968 6.81091 15.336 7.46691 15.592C8.12291 15.848 8.84291 15.976 9.62691 15.976C10.4589 15.976 11.2269 15.816 11.9309 15.496C12.6349 15.16 13.2749 14.656 13.8509 13.984L16.3469 16.288C15.5469 17.264 14.5549 18.008 13.3709 18.52C12.2029 19.032 10.8829 19.288 9.41091 19.288ZM24.4072 19.192C23.0312 19.192 21.8072 18.904 20.7352 18.328C19.6792 17.752 18.8392 16.968 18.2152 15.976C17.6072 14.968 17.3032 13.824 17.3032 12.544C17.3032 11.248 17.6072 10.104 18.2152 9.112C18.8392 8.104 19.6792 7.32 20.7352 6.76C21.8072 6.184 23.0312 5.896 24.4072 5.896C25.7672 5.896 26.9832 6.184 28.0552 6.76C29.1272 7.32 29.9672 8.096 30.5752 9.088C31.1832 10.08 31.4872 11.232 31.4872 12.544C31.4872 13.824 31.1832 14.968 30.5752 15.976C29.9672 16.968 29.1272 17.752 28.0552 18.328C26.9832 18.904 25.7672 19.192 24.4072 19.192ZM24.4072 16.12C25.0312 16.12 25.5912 15.976 26.0872 15.688C26.5832 15.4 26.9752 14.992 27.2632 14.464C27.5512 13.92 27.6952 13.28 27.6952 12.544C27.6952 11.792 27.5512 11.152 27.2632 10.624C26.9752 10.096 26.5832 9.688 26.0872 9.4C25.5912 9.112 25.0312 8.968 24.4072 8.968C23.7832 8.968 23.2232 9.112 22.7272 9.4C22.2312 9.688 21.8312 10.096 21.5272 10.624C21.2392 11.152 21.0952 11.792 21.0952 12.544C21.0952 13.28 21.2392 13.92 21.5272 14.464C21.8312 14.992 22.2312 15.4 22.7272 15.688C23.2232 15.976 23.7832 16.12 24.4072 16.12ZM41.8377 5.896C42.8617 5.896 43.7737 6.104 44.5737 6.52C45.3897 6.92 46.0297 7.544 46.4937 8.392C46.9577 9.224 47.1897 10.296 47.1897 11.608V19H43.4457V12.184C43.4457 11.144 43.2137 10.376 42.7497 9.88C42.3017 9.384 41.6617 9.136 40.8297 9.136C40.2377 9.136 39.7017 9.264 39.2217 9.52C38.7577 9.76 38.3897 10.136 38.1177 10.648C37.8617 11.16 37.7337 11.816 37.7337 12.616V19H33.9897V6.088H37.5657V9.664L36.8937 8.584C37.3577 7.72 38.0217 7.056 38.8857 6.592C39.7497 6.128 40.7337 5.896 41.8377 5.896ZM56.7492 23.848C55.5332 23.848 54.3572 23.696 53.2212 23.392C52.1012 23.104 51.1652 22.664 50.4132 22.072L51.9012 19.384C52.4452 19.832 53.1332 20.184 53.9652 20.44C54.8132 20.712 55.6452 20.848 56.4612 20.848C57.7892 20.848 58.7492 20.552 59.3412 19.96C59.9492 19.368 60.2532 18.488 60.2532 17.32V15.376L60.4932 12.136L60.4452 8.872V6.088H63.9972V16.84C63.9972 19.24 63.3732 21.008 62.1252 22.144C60.8772 23.28 59.0852 23.848 56.7492 23.848ZM56.1732 18.376C54.9732 18.376 53.8852 18.12 52.9092 17.608C51.9492 17.08 51.1732 16.352 50.5812 15.424C50.0052 14.48 49.7172 13.384 49.7172 12.136C49.7172 10.872 50.0052 9.776 50.5812 8.848C51.1732 7.904 51.9492 7.176 52.9092 6.664C53.8852 6.152 54.9732 5.896 56.1732 5.896C57.2612 5.896 58.2212 6.12 59.0532 6.568C59.8852 7 60.5332 7.68 60.9972 8.608C61.4612 9.52 61.6932 10.696 61.6932 12.136C61.6932 13.56 61.4612 14.736 60.9972 15.664C60.5332 16.576 59.8852 17.256 59.0532 17.704C58.2212 18.152 57.2612 18.376 56.1732 18.376ZM56.9172 15.304C57.5732 15.304 58.1572 15.176 58.6692 14.92C59.1812 14.648 59.5812 14.272 59.8692 13.792C60.1572 13.312 60.3012 12.76 60.3012 12.136C60.3012 11.496 60.1572 10.944 59.8692 10.48C59.5812 10 59.1812 9.632 58.6692 9.376C58.1572 9.104 57.5732 8.968 56.9172 8.968C56.2612 8.968 55.6772 9.104 55.1652 9.376C54.6532 9.632 54.2452 10 53.9412 10.48C53.6532 10.944 53.5092 11.496 53.5092 12.136C53.5092 12.76 53.6532 13.312 53.9412 13.792C54.2452 14.272 54.6532 14.648 55.1652 14.92C55.6772 15.176 56.2612 15.304 56.9172 15.304ZM67.4819 19V6.088H71.0579V9.736L70.5539 8.68C70.9379 7.768 71.5539 7.08 72.4019 6.616C73.2499 6.136 74.2819 5.896 75.4979 5.896V9.352C75.3379 9.336 75.1939 9.328 75.0659 9.328C74.9379 9.312 74.8019 9.304 74.6579 9.304C73.6339 9.304 72.8019 9.6 72.1619 10.192C71.5379 10.768 71.2259 11.672 71.2259 12.904V19H67.4819ZM84.8003 19V16.48L84.5603 15.928V11.416C84.5603 10.616 84.3123 9.992 83.8163 9.544C83.3363 9.096 82.5923 8.872 81.5843 8.872C80.8963 8.872 80.2163 8.984 79.5443 9.208C78.8883 9.416 78.3283 9.704 77.8643 10.072L76.5203 7.456C77.2243 6.96 78.0723 6.576 79.0643 6.304C80.0563 6.032 81.0643 5.896 82.0883 5.896C84.0563 5.896 85.5843 6.36 86.6723 7.288C87.7603 8.216 88.3043 9.664 88.3043 11.632V19H84.8003ZM80.8643 19.192C79.8563 19.192 78.9923 19.024 78.2723 18.688C77.5523 18.336 77.0003 17.864 76.6163 17.272C76.2323 16.68 76.0403 16.016 76.0403 15.28C76.0403 14.512 76.2243 13.84 76.5923 13.264C76.9763 12.688 77.5763 12.24 78.3923 11.92C79.2083 11.584 80.2723 11.416 81.5843 11.416H85.0163V13.6H81.9923C81.1123 13.6 80.5043 13.744 80.1683 14.032C79.8483 14.32 79.6883 14.68 79.6883 15.112C79.6883 15.592 79.8723 15.976 80.2403 16.264C80.6243 16.536 81.1443 16.672 81.8003 16.672C82.4243 16.672 82.9843 16.528 83.4803 16.24C83.9763 15.936 84.3363 15.496 84.5603 14.92L85.1363 16.648C84.8643 17.48 84.3683 18.112 83.6483 18.544C82.9283 18.976 82.0003 19.192 80.8643 19.192ZM96.9728 19.192C95.4528 19.192 94.2688 18.808 93.4208 18.04C92.5728 17.256 92.1488 16.096 92.1488 14.56V3.232H95.8928V14.512C95.8928 15.056 96.0368 15.48 96.3248 15.784C96.6128 16.072 97.0048 16.216 97.5008 16.216C98.0928 16.216 98.5968 16.056 99.0128 15.736L100.021 18.376C99.6368 18.648 99.1728 18.856 98.6288 19C98.1008 19.128 97.5488 19.192 96.9728 19.192ZM90.1568 9.256V6.376H99.1088V9.256H90.1568ZM107.571 19.192C106.499 19.192 105.539 18.984 104.691 18.568C103.859 18.152 103.211 17.52 102.747 16.672C102.283 15.808 102.051 14.712 102.051 13.384V6.088H105.795V12.832C105.795 13.904 106.019 14.696 106.467 15.208C106.931 15.704 107.579 15.952 108.411 15.952C108.987 15.952 109.499 15.832 109.947 15.592C110.395 15.336 110.747 14.952 111.003 14.44C111.259 13.912 111.387 13.256 111.387 12.472V6.088H115.131V19H111.579V15.448L112.227 16.48C111.795 17.376 111.155 18.056 110.307 18.52C109.475 18.968 108.563 19.192 107.571 19.192ZM118.599 19V1.192H122.343V19H118.599ZM133.738 19V16.48L133.498 15.928V11.416C133.498 10.616 133.25 9.992 132.754 9.544C132.274 9.096 131.53 8.872 130.522 8.872C129.834 8.872 129.154 8.984 128.482 9.208C127.826 9.416 127.266 9.704 126.802 10.072L125.458 7.456C126.162 6.96 127.01 6.576 128.002 6.304C128.994 6.032 130.002 5.896 131.026 5.896C132.994 5.896 134.522 6.36 135.61 7.288C136.698 8.216 137.242 9.664 137.242 11.632V19H133.738ZM129.802 19.192C128.794 19.192 127.93 19.024 127.21 18.688C126.49 18.336 125.938 17.864 125.554 17.272C125.17 16.68 124.978 16.016 124.978 15.28C124.978 14.512 125.162 13.84 125.53 13.264C125.914 12.688 126.514 12.24 127.33 11.92C128.146 11.584 129.21 11.416 130.522 11.416H133.954V13.6H130.93C130.05 13.6 129.442 13.744 129.106 14.032C128.786 14.32 128.626 14.68 128.626 15.112C128.626 15.592 128.81 15.976 129.178 16.264C129.562 16.536 130.082 16.672 130.738 16.672C131.362 16.672 131.922 16.528 132.418 16.24C132.914 15.936 133.274 15.496 133.498 14.92L134.074 16.648C133.802 17.48 133.306 18.112 132.586 18.544C131.866 18.976 130.938 19.192 129.802 19.192ZM145.91 19.192C144.39 19.192 143.206 18.808 142.358 18.04C141.51 17.256 141.086 16.096 141.086 14.56V3.232H144.83V14.512C144.83 15.056 144.974 15.48 145.262 15.784C145.55 16.072 145.942 16.216 146.438 16.216C147.03 16.216 147.534 16.056 147.95 15.736L148.958 18.376C148.574 18.648 148.11 18.856 147.566 19C147.038 19.128 146.486 19.192 145.91 19.192ZM139.094 9.256V6.376H148.046V9.256H139.094ZM151.06 19V6.088H154.804V19H151.06ZM152.932 4.288C152.244 4.288 151.684 4.088 151.252 3.688C150.82 3.288 150.604 2.792 150.604 2.2C150.604 1.608 150.82 1.112 151.252 0.711999C151.684 0.311999 152.244 0.111999 152.932 0.111999C153.62 0.111999 154.18 0.303999 154.612 0.688C155.044 1.056 155.26 1.536 155.26 2.128C155.26 2.752 155.044 3.272 154.612 3.688C154.196 4.088 153.636 4.288 152.932 4.288ZM164.423 19.192C163.047 19.192 161.823 18.904 160.751 18.328C159.695 17.752 158.855 16.968 158.231 15.976C157.623 14.968 157.319 13.824 157.319 12.544C157.319 11.248 157.623 10.104 158.231 9.112C158.855 8.104 159.695 7.32 160.751 6.76C161.823 6.184 163.047 5.896 164.423 5.896C165.783 5.896 166.999 6.184 168.071 6.76C169.143 7.32 169.983 8.096 170.591 9.088C171.199 10.08 171.503 11.232 171.503 12.544C171.503 13.824 171.199 14.968 170.591 15.976C169.983 16.968 169.143 17.752 168.071 18.328C166.999 18.904 165.783 19.192 164.423 19.192ZM164.423 16.12C165.047 16.12 165.607 15.976 166.103 15.688C166.599 15.4 166.991 14.992 167.279 14.464C167.567 13.92 167.711 13.28 167.711 12.544C167.711 11.792 167.567 11.152 167.279 10.624C166.991 10.096 166.599 9.688 166.103 9.4C165.607 9.112 165.047 8.968 164.423 8.968C163.799 8.968 163.239 9.112 162.743 9.4C162.247 9.688 161.847 10.096 161.543 10.624C161.255 11.152 161.111 11.792 161.111 12.544C161.111 13.28 161.255 13.92 161.543 14.464C161.847 14.992 162.247 15.4 162.743 15.688C163.239 15.976 163.799 16.12 164.423 16.12ZM181.853 5.896C182.877 5.896 183.789 6.104 184.589 6.52C185.405 6.92 186.045 7.544 186.509 8.392C186.973 9.224 187.205 10.296 187.205 11.608V19H183.461V12.184C183.461 11.144 183.229 10.376 182.765 9.88C182.317 9.384 181.677 9.136 180.845 9.136C180.253 9.136 179.717 9.264 179.237 9.52C178.773 9.76 178.405 10.136 178.133 10.648C177.877 11.16 177.749 11.816 177.749 12.616V19H174.005V6.088H177.581V9.664L176.909 8.584C177.373 7.72 178.037 7.056 178.901 6.592C179.765 6.128 180.749 5.896 181.853 5.896ZM194.943 19.192C193.839 19.192 192.775 19.064 191.751 18.808C190.743 18.536 189.943 18.2 189.351 17.8L190.599 15.112C191.191 15.48 191.887 15.784 192.687 16.024C193.503 16.248 194.303 16.36 195.087 16.36C195.951 16.36 196.559 16.256 196.911 16.048C197.279 15.84 197.463 15.552 197.463 15.184C197.463 14.88 197.319 14.656 197.031 14.512C196.759 14.352 196.391 14.232 195.927 14.152C195.463 14.072 194.951 13.992 194.391 13.912C193.847 13.832 193.295 13.728 192.735 13.6C192.175 13.456 191.663 13.248 191.199 12.976C190.735 12.704 190.359 12.336 190.071 11.872C189.799 11.408 189.663 10.808 189.663 10.072C189.663 9.256 189.895 8.536 190.359 7.912C190.839 7.288 191.527 6.8 192.423 6.448C193.319 6.08 194.391 5.896 195.639 5.896C196.519 5.896 197.415 5.992 198.327 6.184C199.239 6.376 199.999 6.656 200.607 7.024L199.359 9.688C198.735 9.32 198.103 9.072 197.463 8.944C196.839 8.8 196.231 8.728 195.639 8.728C194.807 8.728 194.199 8.84 193.815 9.064C193.431 9.288 193.239 9.576 193.239 9.928C193.239 10.248 193.375 10.488 193.647 10.648C193.935 10.808 194.311 10.936 194.775 11.032C195.239 11.128 195.743 11.216 196.287 11.296C196.847 11.36 197.407 11.464 197.967 11.608C198.527 11.752 199.031 11.96 199.479 12.232C199.943 12.488 200.319 12.848 200.607 13.312C200.895 13.76 201.039 14.352 201.039 15.088C201.039 15.888 200.799 16.6 200.319 17.224C199.839 17.832 199.143 18.312 198.231 18.664C197.335 19.016 196.239 19.192 194.943 19.192Z" fill="white"/>
<path d="M9.41091 19.288C8.11491 19.288 6.90691 19.08 5.78691 18.664C4.68291 18.232 3.72291 17.624 2.90691 16.84C2.09091 16.056 1.45091 15.136 0.986906 14.08C0.538906 13.024 0.314906 11.864 0.314906 10.6C0.314906 9.336 0.538906 8.176 0.986906 7.12C1.45091 6.064 2.09091 5.144 2.90691 4.36C3.73891 3.576 4.70691 2.976 5.81091 2.56C6.91491 2.128 8.12291 1.912 9.43491 1.912C10.8909 1.912 12.2029 2.168 13.3709 2.68C14.5549 3.176 15.5469 3.912 16.3469 4.888L13.8509 7.192C13.2749 6.536 12.6349 6.048 11.9309 5.728C11.2269 5.392 10.4589 5.224 9.62691 5.224C8.84291 5.224 8.12291 5.352 7.46691 5.608C6.81091 5.864 6.24291 6.232 5.76291 6.712C5.28291 7.192 4.90691 7.76 4.63491 8.416C4.37891 9.072 4.25091 9.8 4.25091 10.6C4.25091 11.4 4.37891 12.128 4.63491 12.784C4.90691 13.44 5.28291 14.008 5.76291 14.488C6.24291 14.968 6.81091 15.336 7.46691 15.592C8.12291 15.848 8.84291 15.976 9.62691 15.976C10.4589 15.976 11.2269 15.816 11.9309 15.496C12.6349 15.16 13.2749 14.656 13.8509 13.984L16.3469 16.288C15.5469 17.264 14.5549 18.008 13.3709 18.52C12.2029 19.032 10.8829 19.288 9.41091 19.288ZM24.4072 19.192C23.0312 19.192 21.8072 18.904 20.7352 18.328C19.6792 17.752 18.8392 16.968 18.2152 15.976C17.6072 14.968 17.3032 13.824 17.3032 12.544C17.3032 11.248 17.6072 10.104 18.2152 9.112C18.8392 8.104 19.6792 7.32 20.7352 6.76C21.8072 6.184 23.0312 5.896 24.4072 5.896C25.7672 5.896 26.9832 6.184 28.0552 6.76C29.1272 7.32 29.9672 8.096 30.5752 9.088C31.1832 10.08 31.4872 11.232 31.4872 12.544C31.4872 13.824 31.1832 14.968 30.5752 15.976C29.9672 16.968 29.1272 17.752 28.0552 18.328C26.9832 18.904 25.7672 19.192 24.4072 19.192ZM24.4072 16.12C25.0312 16.12 25.5912 15.976 26.0872 15.688C26.5832 15.4 26.9752 14.992 27.2632 14.464C27.5512 13.92 27.6952 13.28 27.6952 12.544C27.6952 11.792 27.5512 11.152 27.2632 10.624C26.9752 10.096 26.5832 9.688 26.0872 9.4C25.5912 9.112 25.0312 8.968 24.4072 8.968C23.7832 8.968 23.2232 9.112 22.7272 9.4C22.2312 9.688 21.8312 10.096 21.5272 10.624C21.2392 11.152 21.0952 11.792 21.0952 12.544C21.0952 13.28 21.2392 13.92 21.5272 14.464C21.8312 14.992 22.2312 15.4 22.7272 15.688C23.2232 15.976 23.7832 16.12 24.4072 16.12ZM41.8377 5.896C42.8617 5.896 43.7737 6.104 44.5737 6.52C45.3897 6.92 46.0297 7.544 46.4937 8.392C46.9577 9.224 47.1897 10.296 47.1897 11.608V19H43.4457V12.184C43.4457 11.144 43.2137 10.376 42.7497 9.88C42.3017 9.384 41.6617 9.136 40.8297 9.136C40.2377 9.136 39.7017 9.264 39.2217 9.52C38.7577 9.76 38.3897 10.136 38.1177 10.648C37.8617 11.16 37.7337 11.816 37.7337 12.616V19H33.9897V6.088H37.5657V9.664L36.8937 8.584C37.3577 7.72 38.0217 7.056 38.8857 6.592C39.7497 6.128 40.7337 5.896 41.8377 5.896ZM56.7492 23.848C55.5332 23.848 54.3572 23.696 53.2212 23.392C52.1012 23.104 51.1652 22.664 50.4132 22.072L51.9012 19.384C52.4452 19.832 53.1332 20.184 53.9652 20.44C54.8132 20.712 55.6452 20.848 56.4612 20.848C57.7892 20.848 58.7492 20.552 59.3412 19.96C59.9492 19.368 60.2532 18.488 60.2532 17.32V15.376L60.4932 12.136L60.4452 8.872V6.088H63.9972V16.84C63.9972 19.24 63.3732 21.008 62.1252 22.144C60.8772 23.28 59.0852 23.848 56.7492 23.848ZM56.1732 18.376C54.9732 18.376 53.8852 18.12 52.9092 17.608C51.9492 17.08 51.1732 16.352 50.5812 15.424C50.0052 14.48 49.7172 13.384 49.7172 12.136C49.7172 10.872 50.0052 9.776 50.5812 8.848C51.1732 7.904 51.9492 7.176 52.9092 6.664C53.8852 6.152 54.9732 5.896 56.1732 5.896C57.2612 5.896 58.2212 6.12 59.0532 6.568C59.8852 7 60.5332 7.68 60.9972 8.608C61.4612 9.52 61.6932 10.696 61.6932 12.136C61.6932 13.56 61.4612 14.736 60.9972 15.664C60.5332 16.576 59.8852 17.256 59.0532 17.704C58.2212 18.152 57.2612 18.376 56.1732 18.376ZM56.9172 15.304C57.5732 15.304 58.1572 15.176 58.6692 14.92C59.1812 14.648 59.5812 14.272 59.8692 13.792C60.1572 13.312 60.3012 12.76 60.3012 12.136C60.3012 11.496 60.1572 10.944 59.8692 10.48C59.5812 10 59.1812 9.632 58.6692 9.376C58.1572 9.104 57.5732 8.968 56.9172 8.968C56.2612 8.968 55.6772 9.104 55.1652 9.376C54.6532 9.632 54.2452 10 53.9412 10.48C53.6532 10.944 53.5092 11.496 53.5092 12.136C53.5092 12.76 53.6532 13.312 53.9412 13.792C54.2452 14.272 54.6532 14.648 55.1652 14.92C55.6772 15.176 56.2612 15.304 56.9172 15.304ZM67.4819 19V6.088H71.0579V9.736L70.5539 8.68C70.9379 7.768 71.5539 7.08 72.4019 6.616C73.2499 6.136 74.2819 5.896 75.4979 5.896V9.352C75.3379 9.336 75.1939 9.328 75.0659 9.328C74.9379 9.312 74.8019 9.304 74.6579 9.304C73.6339 9.304 72.8019 9.6 72.1619 10.192C71.5379 10.768 71.2259 11.672 71.2259 12.904V19H67.4819ZM84.8003 19V16.48L84.5603 15.928V11.416C84.5603 10.616 84.3123 9.992 83.8163 9.544C83.3363 9.096 82.5923 8.872 81.5843 8.872C80.8963 8.872 80.2163 8.984 79.5443 9.208C78.8883 9.416 78.3283 9.704 77.8643 10.072L76.5203 7.456C77.2243 6.96 78.0723 6.576 79.0643 6.304C80.0563 6.032 81.0643 5.896 82.0883 5.896C84.0563 5.896 85.5843 6.36 86.6723 7.288C87.7603 8.216 88.3043 9.664 88.3043 11.632V19H84.8003ZM80.8643 19.192C79.8563 19.192 78.9923 19.024 78.2723 18.688C77.5523 18.336 77.0003 17.864 76.6163 17.272C76.2323 16.68 76.0403 16.016 76.0403 15.28C76.0403 14.512 76.2243 13.84 76.5923 13.264C76.9763 12.688 77.5763 12.24 78.3923 11.92C79.2083 11.584 80.2723 11.416 81.5843 11.416H85.0163V13.6H81.9923C81.1123 13.6 80.5043 13.744 80.1683 14.032C79.8483 14.32 79.6883 14.68 79.6883 15.112C79.6883 15.592 79.8723 15.976 80.2403 16.264C80.6243 16.536 81.1443 16.672 81.8003 16.672C82.4243 16.672 82.9843 16.528 83.4803 16.24C83.9763 15.936 84.3363 15.496 84.5603 14.92L85.1363 16.648C84.8643 17.48 84.3683 18.112 83.6483 18.544C82.9283 18.976 82.0003 19.192 80.8643 19.192ZM96.9728 19.192C95.4528 19.192 94.2688 18.808 93.4208 18.04C92.5728 17.256 92.1488 16.096 92.1488 14.56V3.232H95.8928V14.512C95.8928 15.056 96.0368 15.48 96.3248 15.784C96.6128 16.072 97.0048 16.216 97.5008 16.216C98.0928 16.216 98.5968 16.056 99.0128 15.736L100.021 18.376C99.6368 18.648 99.1728 18.856 98.6288 19C98.1008 19.128 97.5488 19.192 96.9728 19.192ZM90.1568 9.256V6.376H99.1088V9.256H90.1568ZM107.571 19.192C106.499 19.192 105.539 18.984 104.691 18.568C103.859 18.152 103.211 17.52 102.747 16.672C102.283 15.808 102.051 14.712 102.051 13.384V6.088H105.795V12.832C105.795 13.904 106.019 14.696 106.467 15.208C106.931 15.704 107.579 15.952 108.411 15.952C108.987 15.952 109.499 15.832 109.947 15.592C110.395 15.336 110.747 14.952 111.003 14.44C111.259 13.912 111.387 13.256 111.387 12.472V6.088H115.131V19H111.579V15.448L112.227 16.48C111.795 17.376 111.155 18.056 110.307 18.52C109.475 18.968 108.563 19.192 107.571 19.192ZM118.599 19V1.192H122.343V19H118.599ZM133.738 19V16.48L133.498 15.928V11.416C133.498 10.616 133.25 9.992 132.754 9.544C132.274 9.096 131.53 8.872 130.522 8.872C129.834 8.872 129.154 8.984 128.482 9.208C127.826 9.416 127.266 9.704 126.802 10.072L125.458 7.456C126.162 6.96 127.01 6.576 128.002 6.304C128.994 6.032 130.002 5.896 131.026 5.896C132.994 5.896 134.522 6.36 135.61 7.288C136.698 8.216 137.242 9.664 137.242 11.632V19H133.738ZM129.802 19.192C128.794 19.192 127.93 19.024 127.21 18.688C126.49 18.336 125.938 17.864 125.554 17.272C125.17 16.68 124.978 16.016 124.978 15.28C124.978 14.512 125.162 13.84 125.53 13.264C125.914 12.688 126.514 12.24 127.33 11.92C128.146 11.584 129.21 11.416 130.522 11.416H133.954V13.6H130.93C130.05 13.6 129.442 13.744 129.106 14.032C128.786 14.32 128.626 14.68 128.626 15.112C128.626 15.592 128.81 15.976 129.178 16.264C129.562 16.536 130.082 16.672 130.738 16.672C131.362 16.672 131.922 16.528 132.418 16.24C132.914 15.936 133.274 15.496 133.498 14.92L134.074 16.648C133.802 17.48 133.306 18.112 132.586 18.544C131.866 18.976 130.938 19.192 129.802 19.192ZM145.91 19.192C144.39 19.192 143.206 18.808 142.358 18.04C141.51 17.256 141.086 16.096 141.086 14.56V3.232H144.83V14.512C144.83 15.056 144.974 15.48 145.262 15.784C145.55 16.072 145.942 16.216 146.438 16.216C147.03 16.216 147.534 16.056 147.95 15.736L148.958 18.376C148.574 18.648 148.11 18.856 147.566 19C147.038 19.128 146.486 19.192 145.91 19.192ZM139.094 9.256V6.376H148.046V9.256H139.094ZM151.06 19V6.088H154.804V19H151.06ZM152.932 4.288C152.244 4.288 151.684 4.088 151.252 3.688C150.82 3.288 150.604 2.792 150.604 2.2C150.604 1.608 150.82 1.112 151.252 0.711999C151.684 0.311999 152.244 0.111999 152.932 0.111999C153.62 0.111999 154.18 0.303999 154.612 0.688C155.044 1.056 155.26 1.536 155.26 2.128C155.26 2.752 155.044 3.272 154.612 3.688C154.196 4.088 153.636 4.288 152.932 4.288ZM164.423 19.192C163.047 19.192 161.823 18.904 160.751 18.328C159.695 17.752 158.855 16.968 158.231 15.976C157.623 14.968 157.319 13.824 157.319 12.544C157.319 11.248 157.623 10.104 158.231 9.112C158.855 8.104 159.695 7.32 160.751 6.76C161.823 6.184 163.047 5.896 164.423 5.896C165.783 5.896 166.999 6.184 168.071 6.76C169.143 7.32 169.983 8.096 170.591 9.088C171.199 10.08 171.503 11.232 171.503 12.544C171.503 13.824 171.199 14.968 170.591 15.976C169.983 16.968 169.143 17.752 168.071 18.328C166.999 18.904 165.783 19.192 164.423 19.192ZM164.423 16.12C165.047 16.12 165.607 15.976 166.103 15.688C166.599 15.4 166.991 14.992 167.279 14.464C167.567 13.92 167.711 13.28 167.711 12.544C167.711 11.792 167.567 11.152 167.279 10.624C166.991 10.096 166.599 9.688 166.103 9.4C165.607 9.112 165.047 8.968 164.423 8.968C163.799 8.968 163.239 9.112 162.743 9.4C162.247 9.688 161.847 10.096 161.543 10.624C161.255 11.152 161.111 11.792 161.111 12.544C161.111 13.28 161.255 13.92 161.543 14.464C161.847 14.992 162.247 15.4 162.743 15.688C163.239 15.976 163.799 16.12 164.423 16.12ZM181.853 5.896C182.877 5.896 183.789 6.104 184.589 6.52C185.405 6.92 186.045 7.544 186.509 8.392C186.973 9.224 187.205 10.296 187.205 11.608V19H183.461V12.184C183.461 11.144 183.229 10.376 182.765 9.88C182.317 9.384 181.677 9.136 180.845 9.136C180.253 9.136 179.717 9.264 179.237 9.52C178.773 9.76 178.405 10.136 178.133 10.648C177.877 11.16 177.749 11.816 177.749 12.616V19H174.005V6.088H177.581V9.664L176.909 8.584C177.373 7.72 178.037 7.056 178.901 6.592C179.765 6.128 180.749 5.896 181.853 5.896ZM194.943 19.192C193.839 19.192 192.775 19.064 191.751 18.808C190.743 18.536 189.943 18.2 189.351 17.8L190.599 15.112C191.191 15.48 191.887 15.784 192.687 16.024C193.503 16.248 194.303 16.36 195.087 16.36C195.951 16.36 196.559 16.256 196.911 16.048C197.279 15.84 197.463 15.552 197.463 15.184C197.463 14.88 197.319 14.656 197.031 14.512C196.759 14.352 196.391 14.232 195.927 14.152C195.463 14.072 194.951 13.992 194.391 13.912C193.847 13.832 193.295 13.728 192.735 13.6C192.175 13.456 191.663 13.248 191.199 12.976C190.735 12.704 190.359 12.336 190.071 11.872C189.799 11.408 189.663 10.808 189.663 10.072C189.663 9.256 189.895 8.536 190.359 7.912C190.839 7.288 191.527 6.8 192.423 6.448C193.319 6.08 194.391 5.896 195.639 5.896C196.519 5.896 197.415 5.992 198.327 6.184C199.239 6.376 199.999 6.656 200.607 7.024L199.359 9.688C198.735 9.32 198.103 9.072 197.463 8.944C196.839 8.8 196.231 8.728 195.639 8.728C194.807 8.728 194.199 8.84 193.815 9.064C193.431 9.288 193.239 9.576 193.239 9.928C193.239 10.248 193.375 10.488 193.647 10.648C193.935 10.808 194.311 10.936 194.775 11.032C195.239 11.128 195.743 11.216 196.287 11.296C196.847 11.36 197.407 11.464 197.967 11.608C198.527 11.752 199.031 11.96 199.479 12.232C199.943 12.488 200.319 12.848 200.607 13.312C200.895 13.76 201.039 14.352 201.039 15.088C201.039 15.888 200.799 16.6 200.319 17.224C199.839 17.832 199.143 18.312 198.231 18.664C197.335 19.016 196.239 19.192 194.943 19.192Z" fill="url(#paint0_linear_3518_26023)"/>
<defs>
<linearGradient id="paint0_linear_3518_26023" x1="-71" y1="10.5" x2="272" y2="10.5" gradientUnits="userSpaceOnUse">
<stop stop-color="#FBF09C"/>
<stop offset="0.06" stop-color="#F8EC97"/>
<stop offset="0.13" stop-color="#F2E18A"/>
<stop offset="0.2" stop-color="#E7CE74"/>
<stop offset="0.27" stop-color="#D9B456"/>
<stop offset="0.34" stop-color="#C6932F"/>
<stop offset="0.35" stop-color="#C6932F"/>
<stop offset="0.4" stop-color="#C79632"/>
<stop offset="0.45" stop-color="#CD9F3D"/>
<stop offset="0.49" stop-color="#D6AF50"/>
<stop offset="0.54" stop-color="#E2C56A"/>
<stop offset="0.58" stop-color="#F2E18B"/>
<stop offset="0.6" stop-color="#FBF09C"/>
<stop offset="0.67" stop-color="#F7E993"/>
<stop offset="0.79" stop-color="#EFD77D"/>
<stop offset="0.94" stop-color="#E2BA5A"/>
<stop offset="1" stop-color="#DCAD49"/>
</linearGradient>
</defs>
</svg>
