<svg width="163" height="173" viewBox="0 0 163 173" fill="none" xmlns="http://www.w3.org/2000/svg">
<rect width="163" height="173" rx="16" fill="url(#paint0_linear_3315_9179)"/>
<rect x="25" y="135" width="115" height="25" rx="8" fill="#EBEBEB"/>
<path d="M59.304 151H57.624L55.908 148.54C55.8 148.552 55.692 148.552 55.584 148.552H53.688V151H52.128V142.6H55.584C57.792 142.6 59.16 143.728 59.16 145.588C59.16 146.86 58.512 147.796 57.372 148.24L59.304 151ZM57.588 145.588C57.588 144.532 56.88 143.92 55.512 143.92H53.688V147.268H55.512C56.88 147.268 57.588 146.644 57.588 145.588ZM66.9053 147.832C66.9053 147.952 66.8933 148.132 66.8813 148.276H61.8533C62.0333 149.212 62.8133 149.812 63.9293 149.812C64.6493 149.812 65.2133 149.584 65.6693 149.116L66.4733 150.04C65.8973 150.724 64.9973 151.084 63.8933 151.084C61.7453 151.084 60.3533 149.704 60.3533 147.796C60.3533 145.888 61.7573 144.52 63.6653 144.52C65.5373 144.52 66.9053 145.828 66.9053 147.832ZM63.6653 145.72C62.6933 145.72 61.9853 146.344 61.8413 147.28H65.4773C65.3573 146.356 64.6493 145.72 63.6653 145.72ZM71.0702 143.224C70.4462 143.224 70.1222 143.572 70.1222 144.256V144.64H71.8862V145.84H70.1702V151H68.6702V145.84H67.6142V144.64H68.6702V144.232C68.6702 142.888 69.4742 142.012 70.9622 142.012C71.4782 142.012 71.9822 142.12 72.3182 142.36L71.8982 143.488C71.6702 143.332 71.3822 143.224 71.0702 143.224ZM78.9461 147.832C78.9461 147.952 78.9341 148.132 78.9221 148.276H73.8941C74.0741 149.212 74.8541 149.812 75.9701 149.812C76.6901 149.812 77.2541 149.584 77.7101 149.116L78.5141 150.04C77.9381 150.724 77.0381 151.084 75.9341 151.084C73.7861 151.084 72.3941 149.704 72.3941 147.796C72.3941 145.888 73.7981 144.52 75.7061 144.52C77.5781 144.52 78.9461 145.828 78.9461 147.832ZM75.7061 145.72C74.7341 145.72 74.0261 146.344 73.8821 147.28H77.5181C77.3981 146.356 76.6901 145.72 75.7061 145.72ZM81.935 145.528C82.367 144.856 83.147 144.52 84.215 144.52V145.948C84.083 145.924 83.975 145.912 83.867 145.912C82.727 145.912 82.007 146.584 82.007 147.892V151H80.507V144.592H81.935V145.528ZM95.1624 142.6H96.7104V151H95.4264L90.7944 145.312V151H89.2464V142.6H90.5304L95.1624 148.288V142.6ZM101.817 151.084C99.8493 151.084 98.4093 149.716 98.4093 147.796C98.4093 145.876 99.8493 144.52 101.817 144.52C103.809 144.52 105.237 145.876 105.237 147.796C105.237 149.716 103.809 151.084 101.817 151.084ZM101.817 149.8C102.909 149.8 103.725 149.02 103.725 147.796C103.725 146.572 102.909 145.792 101.817 145.792C100.737 145.792 99.9213 146.572 99.9213 147.796C99.9213 149.02 100.737 149.8 101.817 149.8ZM115.28 144.592H116.612L114.248 151H112.808L111.152 146.584L109.472 151H108.032L105.68 144.592H107.096L108.788 149.32L110.552 144.592H111.812L113.54 149.344L115.28 144.592Z" fill="#957A14"/>
<path d="M23.7353 105.91H27.2153V106.98H23.7353V105.91ZM23.8353 108.91H27.7853V110H22.5353V103H27.6453V104.09H23.8353V108.91ZM32.4557 110V108.92L32.3857 108.69V106.8C32.3857 106.433 32.2757 106.15 32.0557 105.95C31.8357 105.743 31.5024 105.64 31.0557 105.64C30.7557 105.64 30.459 105.687 30.1657 105.78C29.879 105.873 29.6357 106.003 29.4357 106.17L28.9457 105.26C29.2324 105.04 29.5724 104.877 29.9657 104.77C30.3657 104.657 30.779 104.6 31.2057 104.6C31.979 104.6 32.5757 104.787 32.9957 105.16C33.4224 105.527 33.6357 106.097 33.6357 106.87V110H32.4557ZM30.7757 110.07C30.3757 110.07 30.0257 110.003 29.7257 109.87C29.4257 109.73 29.1924 109.54 29.0257 109.3C28.8657 109.053 28.7857 108.777 28.7857 108.47C28.7857 108.17 28.8557 107.9 28.9957 107.66C29.1424 107.42 29.379 107.23 29.7057 107.09C30.0324 106.95 30.4657 106.88 31.0057 106.88H32.5557V107.71H31.0957C30.669 107.71 30.3824 107.78 30.2357 107.92C30.089 108.053 30.0157 108.22 30.0157 108.42C30.0157 108.647 30.1057 108.827 30.2857 108.96C30.4657 109.093 30.7157 109.16 31.0357 109.16C31.3424 109.16 31.6157 109.09 31.8557 108.95C32.1024 108.81 32.279 108.603 32.3857 108.33L32.5957 109.08C32.4757 109.393 32.259 109.637 31.9457 109.81C31.639 109.983 31.249 110.07 30.7757 110.07ZM35.3399 110V104.66H36.5299V106.13L36.3899 105.7C36.5499 105.34 36.7999 105.067 37.1399 104.88C37.4866 104.693 37.9166 104.6 38.4299 104.6V105.79C38.3766 105.777 38.3266 105.77 38.2799 105.77C38.2333 105.763 38.1866 105.76 38.1399 105.76C37.6666 105.76 37.2899 105.9 37.0099 106.18C36.7299 106.453 36.5899 106.863 36.5899 107.41V110H35.3399ZM42.6203 104.6C43.047 104.6 43.427 104.683 43.7603 104.85C44.1003 105.017 44.367 105.273 44.5603 105.62C44.7536 105.96 44.8503 106.4 44.8503 106.94V110H43.6003V107.1C43.6003 106.627 43.487 106.273 43.2603 106.04C43.0403 105.807 42.7303 105.69 42.3303 105.69C42.037 105.69 41.777 105.75 41.5503 105.87C41.3236 105.99 41.147 106.17 41.0203 106.41C40.9003 106.643 40.8403 106.94 40.8403 107.3V110H39.5903V104.66H40.7803V106.1L40.5703 105.66C40.757 105.32 41.027 105.06 41.3803 104.88C41.7403 104.693 42.1536 104.6 42.6203 104.6ZM49.5197 110V103H52.7997C53.6397 103 54.2797 103.167 54.7197 103.5C55.1597 103.827 55.3797 104.267 55.3797 104.82C55.3797 105.193 55.293 105.513 55.1197 105.78C54.9464 106.04 54.713 106.243 54.4197 106.39C54.133 106.53 53.8197 106.6 53.4797 106.6L53.6597 106.24C54.053 106.24 54.4064 106.313 54.7197 106.46C55.033 106.6 55.2797 106.807 55.4597 107.08C55.6464 107.353 55.7397 107.693 55.7397 108.1C55.7397 108.7 55.5097 109.167 55.0497 109.5C54.5897 109.833 53.9064 110 52.9997 110H49.5197ZM50.8197 108.98H52.9197C53.4064 108.98 53.7797 108.9 54.0397 108.74C54.2997 108.58 54.4297 108.323 54.4297 107.97C54.4297 107.623 54.2997 107.37 54.0397 107.21C53.7797 107.043 53.4064 106.96 52.9197 106.96H50.7197V105.95H52.6597C53.113 105.95 53.4597 105.87 53.6997 105.71C53.9464 105.55 54.0697 105.31 54.0697 104.99C54.0697 104.663 53.9464 104.42 53.6997 104.26C53.4597 104.1 53.113 104.02 52.6597 104.02H50.8197V108.98ZM59.5071 110.07C58.9604 110.07 58.4738 109.953 58.0471 109.72C57.6204 109.48 57.2838 109.153 57.0371 108.74C56.7904 108.327 56.6671 107.857 56.6671 107.33C56.6671 106.797 56.7904 106.327 57.0371 105.92C57.2838 105.507 57.6204 105.183 58.0471 104.95C58.4738 104.717 58.9604 104.6 59.5071 104.6C60.0604 104.6 60.5504 104.717 60.9771 104.95C61.4104 105.183 61.7471 105.503 61.9871 105.91C62.2338 106.317 62.3571 106.79 62.3571 107.33C62.3571 107.857 62.2338 108.327 61.9871 108.74C61.7471 109.153 61.4104 109.48 60.9771 109.72C60.5504 109.953 60.0604 110.07 59.5071 110.07ZM59.5071 109C59.8138 109 60.0871 108.933 60.3271 108.8C60.5671 108.667 60.7538 108.473 60.8871 108.22C61.0271 107.967 61.0971 107.67 61.0971 107.33C61.0971 106.983 61.0271 106.687 60.8871 106.44C60.7538 106.187 60.5671 105.993 60.3271 105.86C60.0871 105.727 59.8171 105.66 59.5171 105.66C59.2104 105.66 58.9371 105.727 58.6971 105.86C58.4638 105.993 58.2771 106.187 58.1371 106.44C57.9971 106.687 57.9271 106.983 57.9271 107.33C57.9271 107.67 57.9971 107.967 58.1371 108.22C58.2771 108.473 58.4638 108.667 58.6971 108.8C58.9371 108.933 59.2071 109 59.5071 109ZM65.9124 110.07C65.4591 110.07 65.0591 109.987 64.7124 109.82C64.3658 109.647 64.0958 109.387 63.9024 109.04C63.7091 108.687 63.6124 108.243 63.6124 107.71V104.66H64.8624V107.54C64.8624 108.02 64.9691 108.38 65.1824 108.62C65.4024 108.853 65.7124 108.97 66.1124 108.97C66.4058 108.97 66.6591 108.91 66.8724 108.79C67.0924 108.67 67.2624 108.49 67.3824 108.25C67.5091 108.01 67.5724 107.713 67.5724 107.36V104.66H68.8224V110H67.6324V108.56L67.8424 109C67.6624 109.347 67.3991 109.613 67.0524 109.8C66.7058 109.98 66.3258 110.07 65.9124 110.07ZM73.5891 104.6C74.0157 104.6 74.3957 104.683 74.7291 104.85C75.0691 105.017 75.3357 105.273 75.5291 105.62C75.7224 105.96 75.8191 106.4 75.8191 106.94V110H74.5691V107.1C74.5691 106.627 74.4557 106.273 74.2291 106.04C74.0091 105.807 73.6991 105.69 73.2991 105.69C73.0057 105.69 72.7457 105.75 72.5191 105.87C72.2924 105.99 72.1157 106.17 71.9891 106.41C71.8691 106.643 71.8091 106.94 71.8091 107.3V110H70.5591V104.66H71.7491V106.1L71.5391 105.66C71.7257 105.32 71.9957 105.06 72.3491 104.88C72.7091 104.693 73.1224 104.6 73.5891 104.6ZM79.5148 110.07C78.9281 110.07 78.4748 109.92 78.1548 109.62C77.8348 109.313 77.6748 108.863 77.6748 108.27V103.48H78.9248V108.24C78.9248 108.493 78.9881 108.69 79.1148 108.83C79.2481 108.97 79.4314 109.04 79.6648 109.04C79.9448 109.04 80.1781 108.967 80.3648 108.82L80.7148 109.71C80.5681 109.83 80.3881 109.92 80.1748 109.98C79.9614 110.04 79.7414 110.07 79.5148 110.07ZM76.7948 105.7V104.7H80.3548V105.7H76.7948ZM81.843 110V104.66H83.093V110H81.843ZM82.473 103.78C82.2397 103.78 82.0464 103.707 81.893 103.56C81.7464 103.413 81.673 103.237 81.673 103.03C81.673 102.817 81.7464 102.64 81.893 102.5C82.0464 102.353 82.2397 102.28 82.473 102.28C82.7064 102.28 82.8964 102.35 83.043 102.49C83.1964 102.623 83.273 102.793 83.273 103C83.273 103.22 83.1997 103.407 83.053 103.56C82.9064 103.707 82.713 103.78 82.473 103.78ZM87.3437 110.07C86.7503 110.07 86.2303 109.953 85.7837 109.72C85.3437 109.48 85.0003 109.153 84.7537 108.74C84.5137 108.327 84.3937 107.857 84.3937 107.33C84.3937 106.797 84.5103 106.327 84.7437 105.92C84.9837 105.507 85.3103 105.183 85.7237 104.95C86.1437 104.717 86.6203 104.6 87.1537 104.6C87.6737 104.6 88.137 104.713 88.5437 104.94C88.9503 105.167 89.2703 105.487 89.5037 105.9C89.737 106.313 89.8537 106.8 89.8537 107.36C89.8537 107.413 89.8503 107.473 89.8437 107.54C89.8437 107.607 89.8403 107.67 89.8337 107.73H85.3837V106.9H89.1737L88.6837 107.16C88.6903 106.853 88.627 106.583 88.4937 106.35C88.3603 106.117 88.177 105.933 87.9437 105.8C87.717 105.667 87.4537 105.6 87.1537 105.6C86.847 105.6 86.577 105.667 86.3437 105.8C86.117 105.933 85.937 106.12 85.8037 106.36C85.677 106.593 85.6137 106.87 85.6137 107.19V107.39C85.6137 107.71 85.687 107.993 85.8337 108.24C85.9803 108.487 86.187 108.677 86.4537 108.81C86.7203 108.943 87.027 109.01 87.3737 109.01C87.6737 109.01 87.9437 108.963 88.1837 108.87C88.4237 108.777 88.637 108.63 88.8237 108.43L89.4937 109.2C89.2537 109.48 88.9503 109.697 88.5837 109.85C88.2237 109.997 87.8103 110.07 87.3437 110.07ZM92.8044 110.07C92.3577 110.07 91.9277 110.013 91.5144 109.9C91.1077 109.78 90.7844 109.637 90.5444 109.47L91.0244 108.52C91.2644 108.673 91.551 108.8 91.8844 108.9C92.2177 109 92.551 109.05 92.8844 109.05C93.2777 109.05 93.561 108.997 93.7344 108.89C93.9144 108.783 94.0044 108.64 94.0044 108.46C94.0044 108.313 93.9444 108.203 93.8244 108.13C93.7044 108.05 93.5477 107.99 93.3544 107.95C93.161 107.91 92.9444 107.873 92.7044 107.84C92.471 107.807 92.2344 107.763 91.9944 107.71C91.761 107.65 91.5477 107.567 91.3544 107.46C91.161 107.347 91.0044 107.197 90.8844 107.01C90.7644 106.823 90.7044 106.577 90.7044 106.27C90.7044 105.93 90.801 105.637 90.9944 105.39C91.1877 105.137 91.4577 104.943 91.8044 104.81C92.1577 104.67 92.5744 104.6 93.0544 104.6C93.4144 104.6 93.7777 104.64 94.1444 104.72C94.511 104.8 94.8144 104.913 95.0544 105.06L94.5744 106.01C94.321 105.857 94.0644 105.753 93.8044 105.7C93.551 105.64 93.2977 105.61 93.0444 105.61C92.6644 105.61 92.381 105.667 92.1944 105.78C92.0144 105.893 91.9244 106.037 91.9244 106.21C91.9244 106.37 91.9844 106.49 92.1044 106.57C92.2244 106.65 92.381 106.713 92.5744 106.76C92.7677 106.807 92.981 106.847 93.2144 106.88C93.4544 106.907 93.691 106.95 93.9244 107.01C94.1577 107.07 94.371 107.153 94.5644 107.26C94.7644 107.36 94.9244 107.503 95.0444 107.69C95.1644 107.877 95.2244 108.12 95.2244 108.42C95.2244 108.753 95.1244 109.043 94.9244 109.29C94.731 109.537 94.4544 109.73 94.0944 109.87C93.7344 110.003 93.3044 110.07 92.8044 110.07ZM101.665 110.07C101.118 110.07 100.631 109.953 100.205 109.72C99.7779 109.48 99.4412 109.153 99.1945 108.74C98.9479 108.327 98.8245 107.857 98.8245 107.33C98.8245 106.797 98.9479 106.327 99.1945 105.92C99.4412 105.507 99.7779 105.183 100.205 104.95C100.631 104.717 101.118 104.6 101.665 104.6C102.218 104.6 102.708 104.717 103.135 104.95C103.568 105.183 103.905 105.503 104.145 105.91C104.391 106.317 104.515 106.79 104.515 107.33C104.515 107.857 104.391 108.327 104.145 108.74C103.905 109.153 103.568 109.48 103.135 109.72C102.708 109.953 102.218 110.07 101.665 110.07ZM101.665 109C101.971 109 102.245 108.933 102.485 108.8C102.725 108.667 102.911 108.473 103.045 108.22C103.185 107.967 103.255 107.67 103.255 107.33C103.255 106.983 103.185 106.687 103.045 106.44C102.911 106.187 102.725 105.993 102.485 105.86C102.245 105.727 101.975 105.66 101.675 105.66C101.368 105.66 101.095 105.727 100.855 105.86C100.621 105.993 100.435 106.187 100.295 106.44C100.155 106.687 100.085 106.983 100.085 107.33C100.085 107.67 100.155 107.967 100.295 108.22C100.435 108.473 100.621 108.667 100.855 108.8C101.095 108.933 101.365 109 101.665 109ZM108.84 104.6C109.267 104.6 109.647 104.683 109.98 104.85C110.32 105.017 110.587 105.273 110.78 105.62C110.973 105.96 111.07 106.4 111.07 106.94V110H109.82V107.1C109.82 106.627 109.707 106.273 109.48 106.04C109.26 105.807 108.95 105.69 108.55 105.69C108.257 105.69 107.997 105.75 107.77 105.87C107.543 105.99 107.367 106.17 107.24 106.41C107.12 106.643 107.06 106.94 107.06 107.3V110H105.81V104.66H107V106.1L106.79 105.66C106.977 105.32 107.247 105.06 107.6 104.88C107.96 104.693 108.373 104.6 108.84 104.6ZM118.129 110.07C117.536 110.07 117.016 109.953 116.569 109.72C116.129 109.48 115.786 109.153 115.539 108.74C115.299 108.327 115.179 107.857 115.179 107.33C115.179 106.797 115.296 106.327 115.529 105.92C115.769 105.507 116.096 105.183 116.509 104.95C116.929 104.717 117.406 104.6 117.939 104.6C118.459 104.6 118.923 104.713 119.329 104.94C119.736 105.167 120.056 105.487 120.289 105.9C120.523 106.313 120.639 106.8 120.639 107.36C120.639 107.413 120.636 107.473 120.629 107.54C120.629 107.607 120.626 107.67 120.619 107.73H116.169V106.9H119.959L119.469 107.16C119.476 106.853 119.413 106.583 119.279 106.35C119.146 106.117 118.963 105.933 118.729 105.8C118.503 105.667 118.239 105.6 117.939 105.6C117.633 105.6 117.363 105.667 117.129 105.8C116.903 105.933 116.723 106.12 116.589 106.36C116.463 106.593 116.399 106.87 116.399 107.19V107.39C116.399 107.71 116.473 107.993 116.619 108.24C116.766 108.487 116.973 108.677 117.239 108.81C117.506 108.943 117.813 109.01 118.159 109.01C118.459 109.01 118.729 108.963 118.969 108.87C119.209 108.777 119.423 108.63 119.609 108.43L120.279 109.2C120.039 109.48 119.736 109.697 119.369 109.85C119.009 109.997 118.596 110.07 118.129 110.07ZM123.262 110L120.972 104.66H122.272L124.242 109.37H123.602L125.642 104.66H126.842L124.552 110H123.262ZM130.087 110.07C129.494 110.07 128.974 109.953 128.527 109.72C128.087 109.48 127.744 109.153 127.497 108.74C127.257 108.327 127.137 107.857 127.137 107.33C127.137 106.797 127.254 106.327 127.487 105.92C127.727 105.507 128.054 105.183 128.467 104.95C128.887 104.717 129.364 104.6 129.897 104.6C130.417 104.6 130.88 104.713 131.287 104.94C131.694 105.167 132.014 105.487 132.247 105.9C132.48 106.313 132.597 106.8 132.597 107.36C132.597 107.413 132.594 107.473 132.587 107.54C132.587 107.607 132.584 107.67 132.577 107.73H128.127V106.9H131.917L131.427 107.16C131.434 106.853 131.37 106.583 131.237 106.35C131.104 106.117 130.92 105.933 130.687 105.8C130.46 105.667 130.197 105.6 129.897 105.6C129.59 105.6 129.32 105.667 129.087 105.8C128.86 105.933 128.68 106.12 128.547 106.36C128.42 106.593 128.357 106.87 128.357 107.19V107.39C128.357 107.71 128.43 107.993 128.577 108.24C128.724 108.487 128.93 108.677 129.197 108.81C129.464 108.943 129.77 109.01 130.117 109.01C130.417 109.01 130.687 108.963 130.927 108.87C131.167 108.777 131.38 108.63 131.567 108.43L132.237 109.2C131.997 109.48 131.694 109.697 131.327 109.85C130.967 109.997 130.554 110.07 130.087 110.07ZM133.898 110V104.66H135.088V106.13L134.948 105.7C135.108 105.34 135.358 105.067 135.698 104.88C136.044 104.693 136.474 104.6 136.988 104.6V105.79C136.934 105.777 136.884 105.77 136.838 105.77C136.791 105.763 136.744 105.76 136.698 105.76C136.224 105.76 135.848 105.9 135.568 106.18C135.288 106.453 135.148 106.863 135.148 107.41V110H133.898ZM138.783 112.01C138.523 112.01 138.263 111.967 138.003 111.88C137.743 111.793 137.527 111.673 137.353 111.52L137.853 110.6C137.98 110.713 138.123 110.803 138.283 110.87C138.443 110.937 138.607 110.97 138.773 110.97C139 110.97 139.183 110.913 139.323 110.8C139.463 110.687 139.593 110.497 139.713 110.23L140.023 109.53L140.123 109.38L142.143 104.66H143.343L140.843 110.43C140.677 110.83 140.49 111.147 140.283 111.38C140.083 111.613 139.857 111.777 139.603 111.87C139.357 111.963 139.083 112.01 138.783 112.01ZM139.883 110.19L137.473 104.66H138.773L140.733 109.27L139.883 110.19ZM64.4495 126V120.66H65.6395V122.13L65.4995 121.7C65.6595 121.34 65.9095 121.067 66.2495 120.88C66.5962 120.693 67.0262 120.6 67.5395 120.6V121.79C67.4862 121.777 67.4362 121.77 67.3895 121.77C67.3428 121.763 67.2962 121.76 67.2495 121.76C66.7762 121.76 66.3995 121.9 66.1195 122.18C65.8395 122.453 65.6995 122.863 65.6995 123.41V126H64.4495ZM71.1611 126.07C70.5677 126.07 70.0477 125.953 69.6011 125.72C69.1611 125.48 68.8177 125.153 68.5711 124.74C68.3311 124.327 68.2111 123.857 68.2111 123.33C68.2111 122.797 68.3277 122.327 68.5611 121.92C68.8011 121.507 69.1277 121.183 69.5411 120.95C69.9611 120.717 70.4377 120.6 70.9711 120.6C71.4911 120.6 71.9544 120.713 72.3611 120.94C72.7677 121.167 73.0877 121.487 73.3211 121.9C73.5544 122.313 73.6711 122.8 73.6711 123.36C73.6711 123.413 73.6677 123.473 73.6611 123.54C73.6611 123.607 73.6577 123.67 73.6511 123.73H69.2011V122.9H72.9911L72.5011 123.16C72.5077 122.853 72.4444 122.583 72.3111 122.35C72.1777 122.117 71.9944 121.933 71.7611 121.8C71.5344 121.667 71.2711 121.6 70.9711 121.6C70.6644 121.6 70.3944 121.667 70.1611 121.8C69.9344 121.933 69.7544 122.12 69.6211 122.36C69.4944 122.593 69.4311 122.87 69.4311 123.19V123.39C69.4311 123.71 69.5044 123.993 69.6511 124.24C69.7977 124.487 70.0044 124.677 70.2711 124.81C70.5377 124.943 70.8444 125.01 71.1911 125.01C71.4911 125.01 71.7611 124.963 72.0011 124.87C72.2411 124.777 72.4544 124.63 72.6411 124.43L73.3111 125.2C73.0711 125.48 72.7677 125.697 72.4011 125.85C72.0411 125.997 71.6277 126.07 71.1611 126.07ZM75.1418 126V120.36C75.1418 119.8 75.3051 119.353 75.6318 119.02C75.9651 118.68 76.4384 118.51 77.0518 118.51C77.2718 118.51 77.4784 118.533 77.6718 118.58C77.8718 118.627 78.0384 118.7 78.1718 118.8L77.8318 119.74C77.7384 119.667 77.6318 119.613 77.5118 119.58C77.3918 119.54 77.2684 119.52 77.1418 119.52C76.8818 119.52 76.6851 119.593 76.5518 119.74C76.4184 119.88 76.3518 120.093 76.3518 120.38V120.98L76.3918 121.54V126H75.1418ZM74.2618 121.7V120.7H77.8218V121.7H74.2618ZM81.195 126.07C80.6017 126.07 80.0817 125.953 79.635 125.72C79.195 125.48 78.8517 125.153 78.605 124.74C78.365 124.327 78.245 123.857 78.245 123.33C78.245 122.797 78.3617 122.327 78.595 121.92C78.835 121.507 79.1617 121.183 79.575 120.95C79.995 120.717 80.4717 120.6 81.005 120.6C81.525 120.6 81.9884 120.713 82.395 120.94C82.8017 121.167 83.1217 121.487 83.355 121.9C83.5884 122.313 83.705 122.8 83.705 123.36C83.705 123.413 83.7017 123.473 83.695 123.54C83.695 123.607 83.6917 123.67 83.685 123.73H79.235V122.9H83.025L82.535 123.16C82.5417 122.853 82.4784 122.583 82.345 122.35C82.2117 122.117 82.0284 121.933 81.795 121.8C81.5684 121.667 81.305 121.6 81.005 121.6C80.6984 121.6 80.4284 121.667 80.195 121.8C79.9684 121.933 79.7884 122.12 79.655 122.36C79.5284 122.593 79.465 122.87 79.465 123.19V123.39C79.465 123.71 79.5384 123.993 79.685 124.24C79.8317 124.487 80.0384 124.677 80.305 124.81C80.5717 124.943 80.8784 125.01 81.225 125.01C81.525 125.01 81.795 124.963 82.035 124.87C82.275 124.777 82.4884 124.63 82.675 124.43L83.345 125.2C83.105 125.48 82.8017 125.697 82.435 125.85C82.075 125.997 81.6617 126.07 81.195 126.07ZM85.0057 126V120.66H86.1957V122.13L86.0557 121.7C86.2157 121.34 86.4657 121.067 86.8057 120.88C87.1524 120.693 87.5824 120.6 88.0957 120.6V121.79C88.0424 121.777 87.9924 121.77 87.9457 121.77C87.8991 121.763 87.8524 121.76 87.8057 121.76C87.3324 121.76 86.9557 121.9 86.6757 122.18C86.3957 122.453 86.2557 122.863 86.2557 123.41V126H85.0057ZM89.2561 126V120.66H90.4461V122.13L90.3061 121.7C90.4661 121.34 90.7161 121.067 91.0561 120.88C91.4028 120.693 91.8328 120.6 92.3461 120.6V121.79C92.2928 121.777 92.2428 121.77 92.1961 121.77C92.1495 121.763 92.1028 121.76 92.0561 121.76C91.5828 121.76 91.2061 121.9 90.9261 122.18C90.6461 122.453 90.5061 122.863 90.5061 123.41V126H89.2561ZM96.4157 126V124.92L96.3457 124.69V122.8C96.3457 122.433 96.2357 122.15 96.0157 121.95C95.7957 121.743 95.4623 121.64 95.0157 121.64C94.7157 121.64 94.419 121.687 94.1257 121.78C93.839 121.873 93.5957 122.003 93.3957 122.17L92.9057 121.26C93.1923 121.04 93.5323 120.877 93.9257 120.77C94.3257 120.657 94.739 120.6 95.1657 120.6C95.939 120.6 96.5357 120.787 96.9557 121.16C97.3823 121.527 97.5957 122.097 97.5957 122.87V126H96.4157ZM94.7357 126.07C94.3357 126.07 93.9857 126.003 93.6857 125.87C93.3857 125.73 93.1523 125.54 92.9857 125.3C92.8257 125.053 92.7457 124.777 92.7457 124.47C92.7457 124.17 92.8157 123.9 92.9557 123.66C93.1023 123.42 93.339 123.23 93.6657 123.09C93.9923 122.95 94.4257 122.88 94.9657 122.88H96.5157V123.71H95.0557C94.629 123.71 94.3423 123.78 94.1957 123.92C94.049 124.053 93.9757 124.22 93.9757 124.42C93.9757 124.647 94.0657 124.827 94.2457 124.96C94.4257 125.093 94.6757 125.16 94.9957 125.16C95.3023 125.16 95.5757 125.09 95.8157 124.95C96.0623 124.81 96.239 124.603 96.3457 124.33L96.5557 125.08C96.4357 125.393 96.219 125.637 95.9057 125.81C95.599 125.983 95.209 126.07 94.7357 126.07ZM99.2999 126V118.58H100.55V126H99.2999Z" fill="#F5E590"/>
<g filter="url(#filter0_d_3315_9179)">
<path d="M26.5421 44.7213L36.4738 72.8548C37.5116 75.625 40.6753 77.2771 43.8708 76.718L118.964 73.7225C121.573 73.2667 123.61 71.4301 124.105 69.086L131.435 27.9392C132.342 23.6508 127.869 20.0227 123.206 21.2639L30.8513 37.2727C27.3241 38.2119 25.3684 41.5907 26.5421 44.7213Z" fill="url(#paint1_linear_3315_9179)"/>
<path d="M39.9691 70.8404L39.9018 70.8865C38.897 71.5819 37.4504 71.4259 36.6733 70.5263C35.8973 69.6299 35.0994 68.5655 34.3638 67.3243C32.5341 64.2376 32.4448 61.9452 32.1878 60.0372L36.617 58.9717C36.9486 60.8237 37.0698 62.8042 38.5947 65.5964C39.1712 66.6509 39.6876 67.2606 40.1943 67.7296C41.1661 68.6281 41.0743 70.0759 39.9704 70.8404H39.9691Z" fill="#EAEEF0"/>
<g style="mix-blend-mode:multiply" opacity="0.15">
<path d="M33.0322 64.4495L37.5826 63.3555C36.9829 61.6682 36.8507 60.2875 36.6145 58.9727L32.1853 60.0382C32.3554 61.3003 32.4546 62.7326 33.031 64.4506L33.0322 64.4495Z" fill="#8C5213"/>
</g>
<path d="M31.0731 61.0161L37.3468 59.5073L37.9322 61.4681C37.9911 61.6654 37.8608 61.8697 37.6397 61.9228L32.1639 63.2397C31.944 63.2926 31.7177 63.1753 31.6588 62.9779L31.0734 61.0172L31.0731 61.0161Z" fill="url(#paint2_linear_3315_9179)"/>
<g style="mix-blend-mode:multiply" opacity="0.47">
<path d="M36.869 62.1077L32.9368 63.0535C32.2906 63.2095 31.626 62.8645 31.4522 62.2846L31.1034 61.1158C31.0875 61.0609 31.123 61.0049 31.1842 60.9906L37.2374 59.5351C37.2986 59.5209 37.361 59.5527 37.377 59.6076L37.7258 60.7764C37.8995 61.3564 37.5152 61.9528 36.869 62.1088V62.1077Z" fill="#8C5213"/>
</g>
<path d="M34.6955 42.7485L26.5959 44.696C22.316 45.7253 19.7753 49.6742 20.922 53.5155L21.8118 56.4967C22.9586 60.3379 27.3584 62.6183 31.6382 61.5891L39.7378 59.6415C41.6984 59.1703 43.746 59.0659 45.7531 59.3372L58.7836 61.0959L50.3781 32.9404L40.0731 40.311C38.4858 41.4468 36.6549 42.2761 34.6942 42.7474L34.6955 42.7485Z" fill="#EAEEF0"/>
<path d="M58.6016 61.1406C60.5381 60.6749 60.2263 53.9946 57.9051 46.2198C55.584 38.4449 52.1325 32.5197 50.1961 32.9854C48.2596 33.4511 48.5714 40.1314 50.8925 47.9062C53.2137 55.6811 56.6651 61.6063 58.6016 61.1406Z" fill="url(#paint3_linear_3315_9179)"/>
<path d="M35.7614 51.5448C34.8153 48.3758 34.2034 45.388 33.9415 42.9297L26.597 44.696C22.3172 45.7252 19.7764 49.6742 20.9232 53.5154L21.8129 56.4966C22.9597 60.3379 27.3595 62.6183 31.6394 61.589L38.9838 59.8227C37.8407 57.5753 36.7074 54.7138 35.7614 51.5448Z" fill="url(#paint4_linear_3315_9179)"/>
<g style="mix-blend-mode:multiply" opacity="0.47">
<path d="M58.5939 59.0175C58.5609 59.2054 58.2965 59.2691 58.1631 59.1208C56.8756 57.6895 54.6335 53.8131 52.7377 47.463C50.842 41.1128 50.6229 36.7487 50.9411 34.9319C50.9741 34.744 51.2385 34.6803 51.3719 34.8286C52.6594 36.2599 54.9015 40.1363 56.7973 46.4865C58.6931 52.8366 58.9121 57.2007 58.5939 59.0175Z" fill="#8C5213"/>
</g>
<g style="mix-blend-mode:multiply" opacity="0.31">
<path d="M58.7432 61.091L58.7857 61.0967L58.7796 61.0762C58.7675 61.0819 58.7554 61.0853 58.7432 61.091Z" fill="#8C5213"/>
</g>
<path style="mix-blend-mode:hard-light" d="M29.9713 46.7251C32.6773 46.0737 35.3845 45.4234 38.0905 44.772C41.1159 42.9794 44.14 41.1867 47.1655 39.394C47.1251 39.7763 47.114 40.2585 47.1924 40.8077C47.2903 41.4943 47.4971 42.0556 47.6868 42.4642C44.998 44.057 42.3091 45.6508 39.6203 47.2447C35.9279 48.1322 32.2355 49.0208 28.5431 49.9084C28.0523 49.2944 27.9666 48.4958 28.3252 47.8301C28.8111 46.9272 29.8636 46.7416 29.9726 46.724L29.9713 46.7251Z" fill="url(#paint5_linear_3315_9179)"/>
<path style="mix-blend-mode:multiply" opacity="0.2" d="M53.3289 54.5349C51.5861 54.5349 49.8433 54.5338 48.1005 54.5327C44.2478 54.5316 40.7928 54.8106 36.7295 55.9299C35.0541 56.3913 32.9147 57.1207 29.6225 57.8138C28.9164 57.9621 27.8675 58.1708 26.4784 58.2147C24.7625 58.2696 23.3441 58.0488 22.3772 57.839C24.0405 60.8477 27.8846 62.491 31.6382 61.5881L39.7378 59.6405C41.6984 59.1693 43.746 59.0649 45.7531 59.3362L57.6589 60.9433C56.4044 60.2359 54.822 57.8632 53.3276 54.5338L53.3289 54.5349Z" fill="url(#paint6_linear_3315_9179)"/>
<path d="M124.624 48.4772C124.268 48.6694 124.135 49.1439 124.407 49.4493C124.671 49.7426 125.194 49.7514 125.491 49.4877C125.751 49.2549 125.789 48.8517 125.533 48.5936C125.298 48.3563 124.901 48.3278 124.623 48.4772H124.624Z" fill="#67C1E9"/>
<path d="M122.715 46.7623C122.359 46.9545 122.225 47.4291 122.498 47.7344C122.761 48.0277 123.285 48.0365 123.581 47.7729C123.842 47.54 123.88 47.1369 123.624 46.8787C123.389 46.6415 122.991 46.6129 122.714 46.7623H122.715Z" fill="#67C1E9"/>
<path d="M56.3702 86.9996C54.1709 86.9996 52.0034 86.1275 50.5568 84.4952L43.6016 76.3579C43.2944 75.9976 43.3703 75.4824 43.7705 75.2067C44.1707 74.9299 44.7459 74.9991 45.0531 75.3583L51.9985 83.4835C53.723 85.4288 56.834 85.9352 59.2242 84.65C59.2634 84.6292 59.3026 84.6105 59.3454 84.5951L128.749 58.8497C130.683 57.7831 131.697 55.8015 131.335 53.7847L122.617 12.8807C122.3 11.1188 121.028 9.68314 119.211 9.01748C117.395 8.35182 115.367 8.5792 113.788 9.62492C113.763 9.6403 113.739 9.65568 113.713 9.66886L61.2155 37.8045C60.7822 38.0374 60.2205 37.91 59.961 37.52C59.7016 37.1312 59.8435 36.627 60.278 36.3941L112.738 8.28152C114.829 6.91395 117.504 6.62066 119.901 7.49942C122.313 8.38258 124.001 10.2884 124.417 12.5973L133.135 53.5013C133.626 56.2277 132.249 58.8837 129.632 60.2909C129.593 60.3117 129.553 60.3304 129.511 60.3458L60.1042 86.0934C58.9403 86.7063 57.6504 87.0018 56.3702 87.0018V86.9996Z" fill="#FFCA55"/>
<path d="M72.3943 44.9387C72.0908 45.4945 71.4788 46.0118 70.5585 46.4886L73.0466 50.5254L69.807 50.7802L67.8366 47.1465L66.953 47.2157L66.7302 51.0219L63.7526 51.2558L64.3449 40.9238L68.2393 40.6174C69.6137 40.5097 70.6882 40.6745 71.4617 41.1117C72.2352 41.5488 72.6635 42.1936 72.7468 43.0449C72.8153 43.7501 72.6978 44.3806 72.3955 44.9376L72.3943 44.9387ZM67.0509 45.344L68.0655 45.2638C68.6872 45.2155 69.1241 45.0155 69.3762 44.6651C69.6271 44.3147 69.7312 43.9094 69.6859 43.4492C69.6516 43.0966 69.5011 42.8472 69.2343 42.7C68.9675 42.5539 68.577 42.5001 68.0642 42.5407L67.2137 42.6077L67.0521 45.344H67.0509Z" fill="white"/>
<path d="M81.4436 39.5806L81.0091 41.5534L77.1968 41.8522L77.0634 44.0381L80.4009 43.7766L80.3066 45.6781L76.9679 45.9406L76.8345 48.2902L80.9088 47.9705L80.8023 49.917L73.7332 50.4717L74.3256 40.1397L81.4436 39.5806Z" fill="white"/>
<path d="M89.6251 38.938L89.2078 40.9097L85.6084 41.1931L85.4713 43.6745L88.6289 43.4262L88.5224 45.3727L85.3648 45.6209L85.1237 49.5765L82.1461 49.8104L82.7384 39.4784L89.6276 38.938H89.6251Z" fill="white"/>
<path d="M97.6586 38.3072L97.2241 40.2801L93.4118 40.5788L93.2784 42.7648L96.6171 42.5022L96.5216 44.4036L93.1829 44.6662L93.0495 47.0157L97.1238 46.6961L97.0173 48.6425L89.9482 49.1973L90.5406 38.8653L97.6586 38.3062V38.3072Z" fill="white"/>
<path d="M107.002 42.2214C106.698 42.7783 106.086 43.2945 105.166 43.7713L107.654 47.8081L104.414 48.0629L102.445 44.4292L101.562 44.4984L101.339 48.3046L98.3611 48.5385L98.9534 38.2065L102.848 37.9001C104.222 37.7924 105.297 37.9572 106.07 38.3944C106.844 38.8327 107.272 39.4763 107.355 40.3287C107.424 41.0339 107.306 41.6645 107.004 42.2214H107.002ZM101.658 42.6256L102.673 42.5465C103.295 42.4971 103.731 42.2983 103.982 41.9479C104.234 41.5974 104.337 41.1921 104.292 40.7319C104.258 40.3793 104.107 40.1299 103.84 39.9827C103.574 39.8366 103.183 39.7828 102.67 39.8235L101.82 39.8905L101.658 42.6267V42.6256Z" fill="white"/>
<path d="M117.75 47.0149L117.367 44.9432L114.405 45.1761L113.806 47.3246L110.698 47.5685L114.596 36.9772L118.196 36.6938L120.894 46.7677L117.752 47.0149H117.75ZM114.952 43.1802L117.03 43.0165L116.222 38.6249L114.951 43.1791L114.952 43.1802Z" fill="white"/>
<path d="M75.4038 53.9132L74.9865 55.8849L71.3871 56.1672L71.25 58.6486L74.4076 58.4004L74.3011 60.3468L71.1435 60.5951L70.9024 64.5506L67.9235 64.7846L68.5159 54.4525L75.405 53.9121L75.4038 53.9132Z" fill="white"/>
<path d="M84.371 57.8566C84.0675 58.4135 83.4556 58.9298 82.5352 59.4065L85.0234 63.4433L81.7838 63.6971L79.8134 60.0634L78.9297 60.1326L78.707 63.9387L75.7293 64.1727L76.3217 53.8407L80.216 53.5353C81.5904 53.4277 82.665 53.5924 83.4385 54.0296C84.2119 54.4679 84.6403 55.1116 84.7235 55.964C84.7921 56.6692 84.6746 57.2997 84.3723 57.8566H84.371ZM79.0264 58.2608L80.041 58.1818C80.6627 58.1323 81.0996 57.9335 81.3518 57.5831C81.6039 57.2327 81.7067 56.8274 81.6614 56.3671C81.6271 56.0145 81.4766 55.7652 81.2098 55.618C80.943 55.4719 80.5526 55.4181 80.0398 55.4587L79.1892 55.5257L79.0264 58.2619V58.2608Z" fill="white"/>
<path d="M89.28 52.8232L88.6876 63.1552L85.71 63.3892L86.3023 53.0572L89.28 52.8232Z" fill="white"/>
<path d="M98.1653 52.126L97.7308 54.0988L93.9184 54.3987L93.785 56.5846L97.1225 56.322L97.0271 58.2235L93.6896 58.486L93.5562 60.8345L97.6304 60.5148L97.524 62.4624L90.4549 63.0171L91.0472 52.6851L98.1653 52.126Z" fill="white"/>
<path d="M107.702 61.6627L103.938 61.9582L101.428 54.1339C101.51 54.6304 101.577 55.1533 101.63 55.7014C101.732 56.7394 101.75 57.7742 101.685 58.8045L101.484 62.1504L98.8666 62.3558L99.4589 52.0238L103.173 51.7327L105.734 59.5526C105.637 59.0176 105.56 58.4464 105.501 57.839C105.417 56.9778 105.401 56.076 105.452 55.1346L105.679 51.535L108.296 51.3296L107.704 61.6616L107.702 61.6627Z" fill="white"/>
<path d="M117.229 51.4866C118.234 51.9809 118.807 52.952 118.949 54.3997C119.131 56.2704 118.769 57.8324 117.865 59.0879C116.959 60.3434 115.35 61.0618 113.038 61.2431L109.454 61.5243L110.047 51.1923L113.368 50.9319C114.94 50.8089 116.227 50.9934 117.231 51.4866H117.229ZM112.919 52.9355L112.553 59.3274L113.29 59.2691C114.402 59.1813 115.143 58.6815 115.51 57.7698C115.877 56.858 116.004 55.82 115.891 54.6546C115.82 53.9197 115.603 53.4265 115.243 53.1738C114.883 52.9212 114.37 52.8212 113.705 52.8729L112.919 52.9344V52.9355Z" fill="white"/>
<path d="M52.5419 69.3883C52.1858 69.5805 52.0524 70.055 52.3253 70.3604C52.5884 70.6537 53.1123 70.6625 53.4084 70.3989C53.6691 70.166 53.7071 69.7629 53.4513 69.5047C53.2163 69.2675 52.8185 69.2389 52.5407 69.3883H52.5419Z" fill="#FFCA55"/>
<path d="M57.3346 69.3883C56.9785 69.5805 56.8451 70.055 57.118 70.3604C57.3811 70.6537 57.9049 70.6625 58.2011 70.3989C58.4618 70.166 58.4997 69.7629 58.2439 69.5047C58.009 69.2675 57.6112 69.2389 57.3334 69.3883H57.3346Z" fill="#FFCA55"/>
<path d="M53.8465 67.3527C53.3105 67.6405 53.111 68.3545 53.521 68.8125C53.9151 69.253 54.7032 69.2673 55.1475 68.8708C55.5392 68.5214 55.5967 67.9151 55.2124 67.5273C54.8599 67.1715 54.2614 67.1286 53.8465 67.3527Z" fill="#FFCA55"/>
<path d="M118.364 77.4925H120.44C124.093 77.4925 127.306 75.3264 128.323 72.1771L129.151 69.6122C129.423 68.7697 130.216 68.1458 131.183 68.014L131.863 67.9217C133.633 67.6812 135.105 69.1344 134.67 70.6931L134.135 72.6066C132.594 78.1219 127.069 81.9907 120.733 81.9907H118.364C116.769 81.9907 115.58 80.6714 115.913 79.272C116.16 78.234 117.182 77.4914 118.364 77.4914V77.4925Z" fill="url(#paint7_linear_3315_9179)"/>
<path d="M111.111 77.1499H110.143C109.005 77.1499 107.96 77.8024 107.653 78.7855C107.199 80.2376 108.415 81.6491 110.064 81.6491H111.11C112.417 81.6491 113.505 80.7473 113.609 79.5775C113.726 78.2692 112.573 77.1499 111.11 77.1499H111.111Z" fill="url(#paint8_linear_3315_9179)"/>
</g>
<defs>
<filter id="filter0_d_3315_9179" x="16.6468" y="5" width="122.1" height="88.002" filterUnits="userSpaceOnUse" color-interpolation-filters="sRGB">
<feFlood flood-opacity="0" result="BackgroundImageFix"/>
<feColorMatrix in="SourceAlpha" type="matrix" values="0 0 0 0 0 0 0 0 0 0 0 0 0 0 0 0 0 0 127 0" result="hardAlpha"/>
<feOffset dy="2"/>
<feGaussianBlur stdDeviation="2"/>
<feComposite in2="hardAlpha" operator="out"/>
<feColorMatrix type="matrix" values="0 0 0 0 0 0 0 0 0 0 0 0 0 0 0 0 0 0 0.25 0"/>
<feBlend mode="normal" in2="BackgroundImageFix" result="effect1_dropShadow_3315_9179"/>
<feBlend mode="normal" in="SourceGraphic" in2="effect1_dropShadow_3315_9179" result="shape"/>
</filter>
<linearGradient id="paint0_linear_3315_9179" x1="81.5" y1="0" x2="81.5" y2="173" gradientUnits="userSpaceOnUse">
<stop stop-color="#C5A120"/>
<stop offset="1" stop-color="#372E00"/>
</linearGradient>
<linearGradient id="paint1_linear_3315_9179" x1="134.791" y1="5.24767" x2="25.5965" y2="119.418" gradientUnits="userSpaceOnUse">
<stop stop-color="#9130F1"/>
<stop offset="1" stop-color="#DCB902"/>
</linearGradient>
<linearGradient id="paint2_linear_3315_9179" x1="18.3696" y1="75.0212" x2="49.6541" y2="42.1733" gradientUnits="userSpaceOnUse">
<stop stop-color="#FEC200"/>
<stop offset="1" stop-color="#FD5025"/>
</linearGradient>
<linearGradient id="paint3_linear_3315_9179" x1="25.2645" y1="84.1222" x2="75.5095" y2="4.78634" gradientUnits="userSpaceOnUse">
<stop stop-color="#FEC200"/>
<stop offset="1" stop-color="#FD5025"/>
</linearGradient>
<linearGradient id="paint4_linear_3315_9179" x1="19.1371" y1="68.492" x2="47.3887" y2="22.9223" gradientUnits="userSpaceOnUse">
<stop stop-color="#FEC200"/>
<stop offset="1" stop-color="#FD5025"/>
</linearGradient>
<linearGradient id="paint5_linear_3315_9179" x1="48.985" y1="41.8271" x2="31.4982" y2="47.6237" gradientUnits="userSpaceOnUse">
<stop stop-color="white"/>
<stop offset="1" stop-color="white"/>
</linearGradient>
<linearGradient id="paint6_linear_3315_9179" x1="38.0698" y1="48.2877" x2="40.1403" y2="62.931" gradientUnits="userSpaceOnUse">
<stop offset="0.28" stop-color="#603813"/>
<stop offset="1" stop-color="#603813"/>
</linearGradient>
<linearGradient id="paint7_linear_3315_9179" x1="115.856" y1="74.9441" x2="134.748" y2="74.9441" gradientUnits="userSpaceOnUse">
<stop stop-color="#C89543"/>
<stop offset="1" stop-color="#9B43D1"/>
</linearGradient>
<linearGradient id="paint8_linear_3315_9179" x1="107.557" y1="79.3995" x2="113.619" y2="79.3995" gradientUnits="userSpaceOnUse">
<stop stop-color="#C89443"/>
<stop offset="1" stop-color="#9C45CF"/>
</linearGradient>
</defs>
</svg>
