<svg width="24" height="24" viewBox="0 0 24 24" fill="none" xmlns="http://www.w3.org/2000/svg">
<path d="M9.87891 2.92383C9.87891 2.70413 10.0576 2.52539 10.2773 2.52539H13.7227C13.9424 2.52539 14.1211 2.70413 14.1211 2.92383V3.82617H15.5273V2.92383C15.5273 1.92872 14.7178 1.11914 13.7227 1.11914H10.2773C9.28223 1.11914 8.47266 1.92872 8.47266 2.92383V3.82617H9.87891V2.92383Z" fill="white"/>
<path d="M14.291 14.2086V15.1174C14.291 15.4203 14.097 15.6892 13.8094 15.7847L12.2215 16.3118C12.0777 16.3595 11.9223 16.3595 11.7785 16.3118L10.1906 15.7847C9.90305 15.6892 9.70903 15.4203 9.70903 15.1174V14.2086L2.19291 12.3295C1.34006 12.1163 0.591 11.6816 0 11.0962V21.4746C0 22.2512 0.629578 22.8808 1.40625 22.8808H22.5938C23.3704 22.8808 24 22.2512 24 21.4746V11.0962C23.409 11.6816 22.6599 12.1163 21.8071 12.3295L14.291 14.2086ZM22.2305 20.4081C22.2305 20.7965 21.9157 21.1113 21.5273 21.1113H18.3516C17.9632 21.1113 17.6484 20.7965 17.6484 20.4081C17.6484 20.0198 17.9632 19.705 18.3516 19.705H21.5273C21.9157 19.705 22.2305 20.0198 22.2305 20.4081Z" fill="white"/>
<path d="M22.5938 5.23242H1.40625C0.629578 5.23242 0 5.862 0 6.63867V7.71994C0 9.255 1.0447 10.593 2.53392 10.9653L9.70898 12.7591V12.4688C9.70898 12.0804 10.0238 11.7656 10.4121 11.7656H13.5879C13.9762 11.7656 14.291 12.0804 14.291 12.4688V12.7591L21.4661 10.9653C22.9552 10.593 24 9.255 24 7.71994V6.63867C24 5.862 23.3704 5.23242 22.5938 5.23242Z" fill="white"/>
<path d="M12.8848 14.61V13.1719H11.1152V14.61L12 14.9037L12.8848 14.61Z" fill="white"/>
</svg>
