<svg width="65" height="12" viewBox="0 0 65 12" fill="none" xmlns="http://www.w3.org/2000/svg">
<g clip-path="url(#clip0_3289_10221)">
<path d="M4.99997 8.74999C5.54997 8.74999 5.74997 8.04999 5.34997 7.69999C5.29997 7.64999 5.24997 7.59999 5.19997 7.54999C3.09997 5.84999 2.49997 6.24999 0.349971 6.99999C0.249971 7.04999 0.299971 7.14999 0.349971 7.14999C0.999971 7.24999 1.64997 7.69999 2.39997 8.49999L4.79997 8.7C4.89997 8.75 4.94997 8.74999 4.99997 8.74999Z" fill="#ED2449"/>
<path d="M14.9 0.250001L6.84995 8.3C6.24995 8.9 5.44995 9.2 4.59995 9.1L2.69995 8.95L4.69995 10.9C5.74995 11.9 7.44995 11.75 8.24995 10.5L15 0.350001C15.05 0.300001 14.95 0.200001 14.9 0.250001Z" fill="#ED2449"/>
<path d="M43.0002 7.7002C43.0002 8.1002 42.9002 8.4502 42.7002 8.7002C42.5002 8.9502 42.2002 9.15019 41.8502 9.30019C41.5002 9.45019 41.0502 9.5002 40.6502 9.5002H37.2502C37.2002 9.5002 37.2002 9.4502 37.2002 9.4502V2.5002C37.2002 2.4502 37.2502 2.4502 37.2502 2.4502H41.1502C41.5002 2.4502 41.7502 2.5502 42.0002 2.7002C42.2502 2.9002 42.4502 3.1002 42.5502 3.4002C42.7002 3.7002 42.7502 3.9502 42.7502 4.2502C42.7502 4.6002 42.6502 4.9002 42.5002 5.2002C42.3502 5.5002 42.1002 5.7002 41.8502 5.8502C41.8002 5.8502 41.8002 5.9002 41.8502 5.9502C42.2002 6.0502 42.5002 6.30019 42.7002 6.55019C42.9002 6.85019 43.0002 7.2502 43.0002 7.7002ZM38.7502 3.9002V5.2502C38.7502 5.3002 38.8002 5.3002 38.8002 5.3002H40.3502C40.5002 5.3002 40.6002 5.2502 40.7002 5.2002C40.8002 5.1502 40.9002 5.0502 40.9502 4.9502C41.0002 4.8502 41.0502 4.7002 41.0502 4.5502C41.0502 4.4002 41.0002 4.2502 40.9502 4.1502C40.9002 4.0502 40.8002 3.9502 40.7002 3.9002C40.6002 3.8502 40.5002 3.8002 40.3502 3.8002H38.7502C38.8002 3.8002 38.7502 3.8502 38.7502 3.9002ZM41.3502 7.4002C41.3502 7.2502 41.3002 7.1002 41.2502 7.0002C41.2002 6.9002 41.1002 6.8002 41.0002 6.7002C40.9002 6.6502 40.8002 6.6002 40.6502 6.6002H38.8002C38.7502 6.6002 38.7502 6.6502 38.7502 6.6502V8.1002C38.7502 8.1502 38.8002 8.1502 38.8002 8.1502H40.5502C40.7002 8.1502 40.8502 8.10019 40.9502 8.05019C41.0502 8.00019 41.1502 7.90019 41.2002 7.80019C41.3002 7.65019 41.3502 7.5502 41.3502 7.4002Z" fill="white"/>
<path d="M45.65 2.40039H47.35C47.4 2.40039 47.4 2.40039 47.4 2.45039L49.85 9.45039C49.85 9.50039 49.85 9.55039 49.8 9.55039H48.3C48.25 9.55039 48.2 9.50039 48.2 9.45039L47.7 8.00039C47.7 7.95039 47.65 7.95039 47.65 7.95039H45.4C45.35 7.95039 45.35 7.95039 45.35 8.00039L44.9 9.45039C44.9 9.50039 44.85 9.55039 44.8 9.55039H43.3C43.25 9.55039 43.25 9.50039 43.25 9.45039L45.65 2.45039C45.6 2.45039 45.65 2.40039 45.65 2.40039ZM47.3 6.75039L46.5 4.20039C46.5 4.15039 46.45 4.15039 46.4 4.20039L45.6 6.75039C45.6 6.80039 45.6 6.80039 45.65 6.80039H47.2C47.3 6.80039 47.35 6.80039 47.3 6.75039Z" fill="white"/>
<path d="M52.15 5.60039V9.50039C52.15 9.55039 52.1 9.55039 52.1 9.55039H50.55C50.5 9.55039 50.5 9.50039 50.5 9.50039V2.50039C50.5 2.45039 50.55 2.45039 50.55 2.45039H51.75C51.8 2.45039 51.8 2.45039 51.85 2.50039L55 6.50039C55 6.55039 55.1 6.50039 55.1 6.45039V2.45039C55.1 2.40039 55.15 2.40039 55.15 2.40039H56.65C56.7 2.40039 56.7 2.45039 56.7 2.45039V9.45039C56.7 9.50039 56.65 9.50039 56.65 9.50039H55.45C55.4 9.50039 55.4 9.50039 55.35 9.45039L52.2 5.50039C52.2 5.50039 52.15 5.55039 52.15 5.60039Z" fill="white"/>
<path d="M57.8999 9.5002V2.5002C57.8999 2.4502 57.9499 2.4502 57.9499 2.4502H59.4999C59.5499 2.4502 59.5499 2.5002 59.5499 2.5002V5.4002C59.5499 5.4502 59.5999 5.4502 59.5999 5.4502L62.0999 2.5002H62.1499H63.8499C63.8999 2.5002 63.9499 2.5502 63.8999 2.6002L61.3499 5.6502V5.7002L64.0999 9.5002C64.1499 9.5502 64.0999 9.6002 64.0499 9.6002H62.2999C62.2999 9.6002 62.2499 9.60019 62.2499 9.55019L60.2999 6.7502C60.2999 6.7002 60.2499 6.7002 60.1999 6.7502L59.4999 7.4502V7.5002V9.5002C59.4999 9.5502 59.4499 9.55019 59.4499 9.55019H57.9999C57.9499 9.55019 57.8999 9.5002 57.8999 9.5002Z" fill="white"/>
<path d="M17.2998 2.50039L18.7498 5.45039C18.7498 5.50039 18.8498 5.50039 18.8498 5.45039L20.3498 2.45039C20.3498 2.40039 20.3998 2.40039 20.4498 2.40039H22.0498C22.0998 2.40039 22.0998 2.45039 22.0998 2.50039L19.5998 7.10039V9.50039C19.5998 9.55039 19.5498 9.55039 19.5498 9.55039H18.0498C17.9998 9.55039 17.9998 9.50039 17.9998 9.50039V7.10039L15.5498 2.50039C15.5498 2.45039 15.5498 2.40039 15.5998 2.40039H17.1998C17.2498 2.40039 17.2998 2.45039 17.2998 2.50039Z" fill="white"/>
<path d="M24.3001 6.6002H27.0001C27.0501 6.6002 27.0501 6.55019 27.0501 6.55019V5.3502C27.0501 5.3002 27.0001 5.3002 27.0001 5.3002H24.3001C24.2501 5.3002 24.2501 5.2502 24.2501 5.2502V4.0002C24.2501 3.9502 24.3001 3.9502 24.3001 3.9502H27.3501C27.3501 3.9502 27.4001 3.9502 27.4001 3.9002L27.9001 2.5502C27.9001 2.5002 27.9001 2.4502 27.8501 2.4502H22.6501C22.6001 2.4502 22.6001 2.5002 22.6001 2.5002V9.5002C22.6001 9.5502 22.6501 9.55019 22.6501 9.55019H27.6001C27.6501 9.55019 27.6501 9.5002 27.6501 9.5002V8.1502C27.6501 8.10019 27.6001 8.1002 27.6001 8.1002H24.3001C24.2501 8.1002 24.2501 8.05019 24.2501 8.05019V6.6502C24.2501 6.60019 24.2501 6.6002 24.3001 6.6002Z" fill="white"/>
<path d="M32.6999 5.69961C32.3499 5.54961 31.9999 5.39961 31.4999 5.24961C31.1999 5.14961 30.8999 5.09961 30.6999 4.99961C30.4999 4.94961 30.2999 4.84961 30.1999 4.74961C30.0999 4.64961 29.9999 4.44961 30.0499 4.29961C30.0499 4.14961 30.1499 3.99961 30.2999 3.94961C30.4499 3.84961 30.6499 3.79961 30.9499 3.79961H33.2999C33.3499 3.79961 33.3499 3.74961 33.3499 3.74961V2.39961C33.3499 2.34961 33.2999 2.34961 33.2999 2.34961H30.9999C30.5499 2.34961 30.0999 2.44961 29.6999 2.59961C29.2999 2.74961 28.9999 3.04961 28.7499 3.34961C28.4999 3.69961 28.3999 4.09961 28.3999 4.59961C28.3999 4.94961 28.4499 5.24961 28.5999 5.49961C28.7499 5.74961 28.9499 5.94961 29.2499 6.09961C29.5499 6.24961 29.8999 6.39961 30.2999 6.54961C30.6499 6.64961 30.9499 6.74961 31.1999 6.79961C31.4499 6.89961 31.6499 6.94961 31.7999 7.09961C31.9499 7.24961 31.9999 7.34961 31.9999 7.49961C31.9999 7.64961 31.9499 7.79961 31.7999 7.89961C31.6499 7.99961 31.4499 8.04961 31.1499 8.04961L28.6499 8.09961C28.5999 8.09961 28.5999 8.14961 28.5999 8.14961V9.49961C28.5999 9.54961 28.6499 9.54961 28.6499 9.54961H30.7999H31.1499C31.4999 9.54961 31.7999 9.49961 32.1499 9.44961C32.4499 9.34961 32.7499 9.24961 32.9999 9.09961C33.2499 8.94961 33.4499 8.69961 33.5999 8.44961C33.7499 8.14961 33.7999 7.84961 33.7999 7.44961C33.7999 6.99961 33.6999 6.64961 33.5499 6.39961C33.2999 6.09961 32.9999 5.84961 32.6999 5.69961Z" fill="white"/>
</g>
<defs>
<clipPath id="clip0_3289_10221">
<rect width="65" height="12" fill="white"/>
</clipPath>
</defs>
</svg>
