<svg width="238" height="17" viewBox="0 0 238 17" fill="none" xmlns="http://www.w3.org/2000/svg">
<path d="M0.672 16V12.955L8.862 3.421L9.471 5.143H0.882V1.3H13.839V4.345L5.649 13.879L5.04 12.157H14.175V16H0.672ZM20.99 6.76H27.542V10.33H20.99V6.76ZM21.326 12.262H28.676V16H16.454V1.3H28.403V5.038H21.326V12.262ZM31.4239 16V1.3H38.5009C39.8729 1.3 41.0559 1.524 42.0499 1.972C43.0579 2.42 43.8349 3.064 44.3809 3.904C44.9269 4.73 45.1999 5.71 45.1999 6.844C45.1999 7.978 44.9269 8.958 44.3809 9.784C43.8349 10.596 43.0579 11.219 42.0499 11.653C41.0559 12.087 39.8729 12.304 38.5009 12.304H34.1749L36.3799 10.267V16H31.4239ZM40.2229 16L36.6109 10.645H41.8609L45.5149 16H40.2229ZM36.3799 10.813L34.1749 8.566H38.1859C38.8719 8.566 39.3759 8.412 39.6979 8.104C40.0339 7.796 40.2019 7.376 40.2019 6.844C40.2019 6.312 40.0339 5.892 39.6979 5.584C39.3759 5.276 38.8719 5.122 38.1859 5.122H34.1749L36.3799 2.875V10.813ZM55.6183 16.336C54.4283 16.336 53.3223 16.147 52.3003 15.769C51.2923 15.391 50.4173 14.859 49.6753 14.173C48.9333 13.473 48.3523 12.654 47.9323 11.716C47.5263 10.778 47.3233 9.756 47.3233 8.65C47.3233 7.53 47.5263 6.508 47.9323 5.584C48.3523 4.646 48.9333 3.834 49.6753 3.148C50.4173 2.448 51.2923 1.909 52.3003 1.531C53.3223 1.153 54.4283 0.964 55.6183 0.964C56.8223 0.964 57.9283 1.153 58.9363 1.531C59.9443 1.909 60.8193 2.448 61.5613 3.148C62.3033 3.834 62.8773 4.646 63.2833 5.584C63.7033 6.508 63.9133 7.53 63.9133 8.65C63.9133 9.756 63.7033 10.778 63.2833 11.716C62.8773 12.654 62.3033 13.473 61.5613 14.173C60.8193 14.859 59.9443 15.391 58.9363 15.769C57.9283 16.147 56.8223 16.336 55.6183 16.336ZM55.6183 12.325C56.0803 12.325 56.5073 12.241 56.8993 12.073C57.3053 11.905 57.6553 11.667 57.9493 11.359C58.2573 11.037 58.4953 10.652 58.6633 10.204C58.8313 9.742 58.9153 9.224 58.9153 8.65C58.9153 8.076 58.8313 7.565 58.6633 7.117C58.4953 6.655 58.2573 6.27 57.9493 5.962C57.6553 5.64 57.3053 5.395 56.8993 5.227C56.5073 5.059 56.0803 4.975 55.6183 4.975C55.1563 4.975 54.7223 5.059 54.3163 5.227C53.9243 5.395 53.5743 5.64 53.2663 5.962C52.9723 6.27 52.7413 6.655 52.5733 7.117C52.4053 7.565 52.3213 8.076 52.3213 8.65C52.3213 9.224 52.4053 9.742 52.5733 10.204C52.7413 10.652 52.9723 11.037 53.2663 11.359C53.5743 11.667 53.9243 11.905 54.3163 12.073C54.7223 12.241 55.1563 12.325 55.6183 12.325ZM77.405 16.336C76.257 16.336 75.221 16.154 74.297 15.79C73.373 15.412 72.603 14.866 71.987 14.152L74.654 11.002C75.046 11.478 75.431 11.842 75.809 12.094C76.187 12.332 76.579 12.451 76.985 12.451C78.049 12.451 78.581 11.842 78.581 10.624V5.038H73.583V1.3H83.474V10.33C83.474 12.346 82.956 13.851 81.92 14.845C80.884 15.839 79.379 16.336 77.405 16.336ZM94.2936 16.336C93.1036 16.336 91.9976 16.147 90.9756 15.769C89.9676 15.391 89.0926 14.859 88.3506 14.173C87.6086 13.473 87.0276 12.654 86.6076 11.716C86.2016 10.778 85.9986 9.756 85.9986 8.65C85.9986 7.53 86.2016 6.508 86.6076 5.584C87.0276 4.646 87.6086 3.834 88.3506 3.148C89.0926 2.448 89.9676 1.909 90.9756 1.531C91.9976 1.153 93.1036 0.964 94.2936 0.964C95.4976 0.964 96.6036 1.153 97.6116 1.531C98.6196 1.909 99.4946 2.448 100.237 3.148C100.979 3.834 101.553 4.646 101.959 5.584C102.379 6.508 102.589 7.53 102.589 8.65C102.589 9.756 102.379 10.778 101.959 11.716C101.553 12.654 100.979 13.473 100.237 14.173C99.4946 14.859 98.6196 15.391 97.6116 15.769C96.6036 16.147 95.4976 16.336 94.2936 16.336ZM94.2936 12.325C94.7556 12.325 95.1826 12.241 95.5746 12.073C95.9806 11.905 96.3306 11.667 96.6246 11.359C96.9326 11.037 97.1706 10.652 97.3386 10.204C97.5066 9.742 97.5906 9.224 97.5906 8.65C97.5906 8.076 97.5066 7.565 97.3386 7.117C97.1706 6.655 96.9326 6.27 96.6246 5.962C96.3306 5.64 95.9806 5.395 95.5746 5.227C95.1826 5.059 94.7556 4.975 94.2936 4.975C93.8316 4.975 93.3976 5.059 92.9916 5.227C92.5996 5.395 92.2496 5.64 91.9416 5.962C91.6476 6.27 91.4166 6.655 91.2486 7.117C91.0806 7.565 90.9966 8.076 90.9966 8.65C90.9966 9.224 91.0806 9.742 91.2486 10.204C91.4166 10.652 91.6476 11.037 91.9416 11.359C92.2496 11.667 92.5996 11.905 92.9916 12.073C93.3976 12.241 93.8316 12.325 94.2936 12.325ZM105.227 16V1.3H110.183V16H105.227ZM113.409 16V1.3H117.483L124.959 10.246H123.069V1.3H127.899V16H123.825L116.349 7.054H118.239V16H113.409ZM131.127 16V1.3H136.083V16H131.127ZM139.309 16V1.3H143.383L150.859 10.246H148.969V1.3H153.799V16H149.725L142.249 7.054H144.139V16H139.309ZM164.65 16.336C163.46 16.336 162.361 16.154 161.353 15.79C160.359 15.412 159.491 14.88 158.749 14.194C158.021 13.508 157.454 12.696 157.048 11.758C156.642 10.82 156.439 9.784 156.439 8.65C156.439 7.516 156.642 6.48 157.048 5.542C157.454 4.604 158.028 3.792 158.77 3.106C159.512 2.42 160.387 1.895 161.395 1.531C162.417 1.153 163.537 0.964 164.755 0.964C166.211 0.964 167.506 1.209 168.64 1.699C169.788 2.189 170.733 2.889 171.475 3.799L168.304 6.592C167.842 6.06 167.338 5.661 166.792 5.395C166.26 5.115 165.665 4.975 165.007 4.975C164.461 4.975 163.964 5.059 163.516 5.227C163.082 5.395 162.711 5.64 162.403 5.962C162.095 6.284 161.857 6.669 161.689 7.117C161.521 7.565 161.437 8.076 161.437 8.65C161.437 9.196 161.521 9.7 161.689 10.162C161.857 10.61 162.095 10.995 162.403 11.317C162.711 11.639 163.075 11.891 163.495 12.073C163.929 12.241 164.412 12.325 164.944 12.325C165.504 12.325 166.05 12.234 166.582 12.052C167.114 11.856 167.681 11.527 168.283 11.065L171.055 14.467C170.159 15.069 169.137 15.531 167.989 15.853C166.841 16.175 165.728 16.336 164.65 16.336ZM166.75 13.837V8.251H171.055V14.467L166.75 13.837ZM185.762 7.558H192.23V11.296H185.762V7.558ZM186.098 16H181.142V1.3H193.091V5.038H186.098V16ZM200.033 6.76H206.585V10.33H200.033V6.76ZM200.369 12.262H207.719V16H195.497V1.3H207.446V5.038H200.369V12.262ZM215.003 6.76H221.555V10.33H215.003V6.76ZM215.339 12.262H222.689V16H210.467V1.3H222.416V5.038H215.339V12.262ZM230.918 16.336C229.686 16.336 228.496 16.196 227.348 15.916C226.2 15.636 225.255 15.272 224.513 14.824L226.109 11.212C226.809 11.618 227.586 11.947 228.44 12.199C229.308 12.437 230.148 12.556 230.96 12.556C231.436 12.556 231.807 12.528 232.073 12.472C232.353 12.402 232.556 12.311 232.682 12.199C232.808 12.073 232.871 11.926 232.871 11.758C232.871 11.492 232.724 11.282 232.43 11.128C232.136 10.974 231.744 10.848 231.254 10.75C230.778 10.638 230.253 10.526 229.679 10.414C229.105 10.288 228.524 10.127 227.936 9.931C227.362 9.735 226.83 9.476 226.34 9.154C225.864 8.832 225.479 8.412 225.185 7.894C224.891 7.362 224.744 6.704 224.744 5.92C224.744 5.01 224.996 4.184 225.5 3.442C226.018 2.686 226.781 2.084 227.789 1.636C228.811 1.188 230.078 0.964 231.59 0.964C232.584 0.964 233.564 1.069 234.53 1.279C235.496 1.489 236.364 1.811 237.134 2.245L235.643 5.836C234.915 5.472 234.208 5.199 233.522 5.017C232.85 4.835 232.192 4.744 231.548 4.744C231.072 4.744 230.694 4.786 230.414 4.87C230.134 4.954 229.931 5.066 229.805 5.206C229.693 5.346 229.637 5.5 229.637 5.668C229.637 5.92 229.784 6.123 230.078 6.277C230.372 6.417 230.757 6.536 231.233 6.634C231.723 6.732 232.255 6.837 232.829 6.949C233.417 7.061 233.998 7.215 234.572 7.411C235.146 7.607 235.671 7.866 236.147 8.188C236.637 8.51 237.029 8.93 237.323 9.448C237.617 9.966 237.764 10.61 237.764 11.38C237.764 12.276 237.505 13.102 236.987 13.858C236.483 14.6 235.727 15.202 234.719 15.664C233.711 16.112 232.444 16.336 230.918 16.336Z" fill="url(#paint0_linear_3518_26095)"/>
<defs>
<linearGradient id="paint0_linear_3518_26095" x1="122.5" y1="-5" x2="122.5" y2="21" gradientUnits="userSpaceOnUse">
<stop stop-color="white"/>
<stop offset="1" stop-color="#999999"/>
</linearGradient>
</defs>
</svg>
